<?xml version="1.0" encoding="UTF-8" standalone="no"?>
<svg width="418" height="149" viewBox="0 0 418 149" fill="none" xmlns="http://www.w3.org/2000/svg">
<rect x="0.5" y="0.5" width="417" height="148" rx="27.5" fill="#E3E3E3" stroke="black"/>
<path fill-rule="evenodd" clip-rule="evenodd" d="M185 18.75C185 16.6789 186.679 15 188.75 15H201.382C203.453 15 205.132 16.6789 205.132 18.75V37.5333H228.75C230.821 37.5333 232.5 39.2123 232.5 41.2833V63.8167C232.5 65.3364 231.583 66.7058 230.178 67.2843L217.546 72.4843C216.044 73.1028 214.314 72.6835 213.261 71.4457L205.132 61.8834V65.55C205.132 67.0697 204.214 68.4392 202.809 69.0177L190.178 74.2177C189.021 74.6939 187.703 74.5619 186.663 73.8657C185.624 73.1696 185 72.001 185 70.75V18.75ZM192.5 22.5V65.1509L197.632 63.0384V51.6833C197.632 50.1113 198.612 48.7061 200.088 48.1637C201.563 47.6212 203.22 48.0566 204.239 49.2543L217.21 64.5118L225 61.3051V45.0333H201.382C199.311 45.0333 197.632 43.3544 197.632 41.2833V22.5H192.5Z" fill="black"/>
<path d="M38.105 89.26H39.95L40.505 95.53H40.655L41.57 89.26H43.52L44.42 95.53H44.57L45.14 89.26H46.895L45.98 97H43.34L42.575 91.66H42.425L41.66 97H39.02L38.105 89.26ZM48.1041 95.275H49.8891V90.985H48.1041V89.26H52.1091V91.45H52.2141C52.2841 91.17 52.3791 90.9 52.4991 90.64C52.6291 90.37 52.7891 90.135 52.9791 89.935C53.1791 89.725 53.4191 89.56 53.6991 89.44C53.9791 89.32 54.3091 89.26 54.6891 89.26H55.4241V91.3H53.7741C53.2241 91.3 52.8091 91.465 52.5291 91.795C52.2491 92.115 52.1091 92.51 52.1091 92.98V95.275H54.6591V97H48.1041V95.275ZM60.9683 88.27C60.4683 88.27 60.1183 88.17 59.9183 87.97C59.7283 87.76 59.6333 87.51 59.6333 87.22V86.785C59.6333 86.485 59.7283 86.235 59.9183 86.035C60.1183 85.835 60.4683 85.735 60.9683 85.735C61.4683 85.735 61.8133 85.835 62.0033 86.035C62.2033 86.235 62.3033 86.485 62.3033 86.785V87.22C62.3033 87.51 62.2033 87.76 62.0033 87.97C61.8133 88.17 61.4683 88.27 60.9683 88.27ZM57.3983 95.275H59.8583V90.985H57.3983V89.26H62.0783V95.275H64.3583V97H57.3983V95.275ZM70.0824 97C69.2824 97 68.6874 96.79 68.2974 96.37C67.9074 95.95 67.7124 95.415 67.7124 94.765V90.985H65.6124V89.26H66.9774C67.3074 89.26 67.5424 89.195 67.6824 89.065C67.8224 88.935 67.8924 88.695 67.8924 88.345V86.53H69.9324V89.26H72.9474V90.985H69.9324V95.275H72.9474V97H70.0824ZM78.6866 97.18C77.3866 97.18 76.4016 96.82 75.7316 96.1C75.0616 95.38 74.7266 94.4 74.7266 93.16C74.7266 92.53 74.8116 91.965 74.9816 91.465C75.1616 90.955 75.4116 90.525 75.7316 90.175C76.0616 89.815 76.4566 89.545 76.9166 89.365C77.3866 89.175 77.9116 89.08 78.4916 89.08C79.0716 89.08 79.5916 89.175 80.0516 89.365C80.5116 89.545 80.9016 89.805 81.2216 90.145C81.5416 90.485 81.7866 90.9 81.9566 91.39C82.1366 91.87 82.2266 92.41 82.2266 93.01V93.67H76.9316V93.805C76.9316 94.305 77.0866 94.71 77.3966 95.02C77.7066 95.32 78.1616 95.47 78.7616 95.47C79.2216 95.47 79.6166 95.385 79.9466 95.215C80.2766 95.035 80.5616 94.8 80.8016 94.51L82.0016 95.815C81.7016 96.185 81.2816 96.505 80.7416 96.775C80.2016 97.045 79.5166 97.18 78.6866 97.18ZM78.5066 90.67C78.0266 90.67 77.6416 90.82 77.3516 91.12C77.0716 91.41 76.9316 91.805 76.9316 92.305V92.425H80.0516V92.305C80.0516 91.795 79.9116 91.395 79.6316 91.105C79.3616 90.815 78.9866 90.67 78.5066 90.67Z" fill="#EB9411"/>
<path d="M85.5807 92.335C85.5807 91.605 85.6607 90.905 85.8207 90.235C85.9907 89.555 86.2157 88.925 86.4957 88.345C86.7857 87.765 87.1207 87.245 87.5007 86.785C87.8807 86.315 88.2807 85.92 88.7007 85.6H90.9207C90.4507 85.92 90.0057 86.295 89.5857 86.725C89.1657 87.145 88.7957 87.61 88.4757 88.12C88.1657 88.63 87.9157 89.175 87.7257 89.755C87.5357 90.335 87.4407 90.94 87.4407 91.57V93.1C87.4407 93.73 87.5357 94.335 87.7257 94.915C87.9157 95.495 88.1657 96.04 88.4757 96.55C88.7957 97.06 89.1657 97.525 89.5857 97.945C90.0057 98.375 90.4507 98.75 90.9207 99.07H88.7007C88.2807 98.76 87.8807 98.37 87.5007 97.9C87.1207 97.43 86.7857 96.905 86.4957 96.325C86.2157 95.745 85.9907 95.12 85.8207 94.45C85.6607 93.77 85.5807 93.065 85.5807 92.335ZM94.5448 85.9H96.1798L95.3248 90.79H92.4748L94.5448 85.9ZM98.4148 85.9H100.05L99.1948 90.79H96.3448L98.4148 85.9ZM363.589 85.9H366.439L364.369 90.79H362.734L363.589 85.9ZM367.459 85.9H370.309L368.239 90.79H366.604L367.459 85.9ZM377.173 92.335C377.173 93.065 377.088 93.77 376.918 94.45C376.758 95.12 376.533 95.745 376.243 96.325C375.963 96.905 375.633 97.43 375.253 97.9C374.873 98.37 374.473 98.76 374.053 99.07H371.833C372.293 98.75 372.733 98.375 373.153 97.945C373.583 97.525 373.953 97.06 374.263 96.55C374.583 96.04 374.838 95.495 375.028 94.915C375.218 94.335 375.313 93.73 375.313 93.1V91.57C375.313 90.94 375.218 90.335 375.028 89.755C374.838 89.175 374.583 88.63 374.263 88.12C373.953 87.61 373.583 87.145 373.153 86.725C372.733 86.295 372.293 85.92 371.833 85.6H374.053C374.473 85.92 374.873 86.315 375.253 86.785C375.633 87.245 375.963 87.765 376.243 88.345C376.533 88.925 376.758 89.555 376.918 90.235C377.088 90.905 377.173 91.605 377.173 92.335Z" fill="#FC1F1F"/>
<path d="M106.779 92.62H104.139V97H101.874V86.53H104.139V90.775H106.779V86.53H109.044V97H106.779V92.62ZM114.663 97.18C113.363 97.18 112.378 96.82 111.708 96.1C111.038 95.38 110.703 94.4 110.703 93.16C110.703 92.53 110.788 91.965 110.958 91.465C111.138 90.955 111.388 90.525 111.708 90.175C112.038 89.815 112.433 89.545 112.893 89.365C113.363 89.175 113.888 89.08 114.468 89.08C115.048 89.08 115.568 89.175 116.028 89.365C116.488 89.545 116.878 89.805 117.198 90.145C117.518 90.485 117.763 90.9 117.933 91.39C118.113 91.87 118.203 92.41 118.203 93.01V93.67H112.908V93.805C112.908 94.305 113.063 94.71 113.373 95.02C113.683 95.32 114.138 95.47 114.738 95.47C115.198 95.47 115.593 95.385 115.923 95.215C116.253 95.035 116.538 94.8 116.778 94.51L117.978 95.815C117.678 96.185 117.258 96.505 116.718 96.775C116.178 97.045 115.493 97.18 114.663 97.18ZM114.483 90.67C114.003 90.67 113.618 90.82 113.328 91.12C113.048 91.41 112.908 91.805 112.908 92.305V92.425H116.028V92.305C116.028 91.795 115.888 91.395 115.608 91.105C115.338 90.815 114.963 90.67 114.483 90.67ZM119.967 95.275H122.337V87.625H119.967V85.9H124.557V95.275H126.927V97H119.967V95.275ZM128.961 95.275H131.331V87.625H128.961V85.9H133.551V95.275H135.921V97H128.961V95.275ZM141.436 97.18C140.836 97.18 140.296 97.09 139.816 96.91C139.336 96.72 138.926 96.45 138.586 96.1C138.256 95.75 138.001 95.325 137.821 94.825C137.641 94.325 137.551 93.76 137.551 93.13C137.551 92.5 137.641 91.935 137.821 91.435C138.001 90.935 138.256 90.51 138.586 90.16C138.926 89.81 139.336 89.545 139.816 89.365C140.296 89.175 140.836 89.08 141.436 89.08C142.036 89.08 142.576 89.175 143.056 89.365C143.536 89.545 143.941 89.81 144.271 90.16C144.611 90.51 144.871 90.935 145.051 91.435C145.231 91.935 145.321 92.5 145.321 93.13C145.321 93.76 145.231 94.325 145.051 94.825C144.871 95.325 144.611 95.75 144.271 96.1C143.941 96.45 143.536 96.72 143.056 96.91C142.576 97.09 142.036 97.18 141.436 97.18ZM141.436 95.53C141.936 95.53 142.326 95.375 142.606 95.065C142.886 94.755 143.026 94.315 143.026 93.745V92.515C143.026 91.945 142.886 91.505 142.606 91.195C142.326 90.885 141.936 90.73 141.436 90.73C140.936 90.73 140.546 90.885 140.266 91.195C139.986 91.505 139.846 91.945 139.846 92.515V93.745C139.846 94.315 139.986 94.755 140.266 95.065C140.546 95.375 140.936 95.53 141.436 95.53ZM149.335 94.39H152.185L150.13 99.265H148.48L149.335 94.39ZM164.728 97L164.083 86.53H166.018L166.318 92.8L166.408 94.78H166.543L167.443 88.81H169.468L170.368 94.78H170.503L170.593 92.86L170.893 86.53H172.753L172.108 97H169.258L168.493 91.225H168.343L167.578 97H164.728ZM177.622 97.18C176.322 97.18 175.337 96.82 174.667 96.1C173.997 95.38 173.662 94.4 173.662 93.16C173.662 92.53 173.747 91.965 173.917 91.465C174.097 90.955 174.347 90.525 174.667 90.175C174.997 89.815 175.392 89.545 175.852 89.365C176.322 89.175 176.847 89.08 177.427 89.08C178.007 89.08 178.527 89.175 178.987 89.365C179.447 89.545 179.837 89.805 180.157 90.145C180.477 90.485 180.722 90.9 180.892 91.39C181.072 91.87 181.162 92.41 181.162 93.01V93.67H175.867V93.805C175.867 94.305 176.022 94.71 176.332 95.02C176.642 95.32 177.097 95.47 177.697 95.47C178.157 95.47 178.552 95.385 178.882 95.215C179.212 95.035 179.497 94.8 179.737 94.51L180.937 95.815C180.637 96.185 180.217 96.505 179.677 96.775C179.137 97.045 178.452 97.18 177.622 97.18ZM177.442 90.67C176.962 90.67 176.577 90.82 176.287 91.12C176.007 91.41 175.867 91.805 175.867 92.305V92.425H178.987V92.305C178.987 91.795 178.847 91.395 178.567 91.105C178.297 90.815 177.922 90.67 177.442 90.67ZM182.926 95.275H185.296V87.625H182.926V85.9H187.516V95.275H189.886V97H182.926V95.275ZM195.715 97.18C195.105 97.18 194.555 97.09 194.065 96.91C193.585 96.72 193.175 96.45 192.835 96.1C192.505 95.75 192.25 95.325 192.07 94.825C191.89 94.325 191.8 93.76 191.8 93.13C191.8 92.5 191.89 91.935 192.07 91.435C192.25 90.935 192.505 90.51 192.835 90.16C193.175 89.81 193.585 89.545 194.065 89.365C194.555 89.175 195.1 89.08 195.7 89.08C196.55 89.08 197.23 89.255 197.74 89.605C198.26 89.945 198.655 90.4 198.925 90.97L197.215 91.9C197.075 91.6 196.89 91.35 196.66 91.15C196.44 90.95 196.12 90.85 195.7 90.85C195.19 90.85 194.795 91 194.515 91.3C194.245 91.59 194.11 91.99 194.11 92.5V93.76C194.11 94.27 194.245 94.675 194.515 94.975C194.795 95.265 195.2 95.41 195.73 95.41C196.16 95.41 196.495 95.31 196.735 95.11C196.985 94.91 197.195 94.65 197.365 94.33L199.045 95.29C198.765 95.86 198.355 96.32 197.815 96.67C197.285 97.01 196.585 97.18 195.715 97.18ZM204.395 97.18C203.795 97.18 203.255 97.09 202.775 96.91C202.295 96.72 201.885 96.45 201.545 96.1C201.215 95.75 200.96 95.325 200.78 94.825C200.6 94.325 200.51 93.76 200.51 93.13C200.51 92.5 200.6 91.935 200.78 91.435C200.96 90.935 201.215 90.51 201.545 90.16C201.885 89.81 202.295 89.545 202.775 89.365C203.255 89.175 203.795 89.08 204.395 89.08C204.995 89.08 205.535 89.175 206.015 89.365C206.495 89.545 206.9 89.81 207.23 90.16C207.57 90.51 207.83 90.935 208.01 91.435C208.19 91.935 208.28 92.5 208.28 93.13C208.28 93.76 208.19 94.325 208.01 94.825C207.83 95.325 207.57 95.75 207.23 96.1C206.9 96.45 206.495 96.72 206.015 96.91C205.535 97.09 204.995 97.18 204.395 97.18ZM204.395 95.53C204.895 95.53 205.285 95.375 205.565 95.065C205.845 94.755 205.985 94.315 205.985 93.745V92.515C205.985 91.945 205.845 91.505 205.565 91.195C205.285 90.885 204.895 90.73 204.395 90.73C203.895 90.73 203.505 90.885 203.225 91.195C202.945 91.505 202.805 91.945 202.805 92.515V93.745C202.805 94.315 202.945 94.755 203.225 95.065C203.505 95.375 203.895 95.53 204.395 95.53ZM209.339 97V89.26H211.124V90.4H211.229C211.349 90.04 211.519 89.73 211.739 89.47C211.969 89.21 212.289 89.08 212.699 89.08C213.449 89.08 213.909 89.52 214.079 90.4H214.169C214.229 90.22 214.304 90.05 214.394 89.89C214.484 89.73 214.594 89.59 214.724 89.47C214.854 89.35 215.009 89.255 215.189 89.185C215.369 89.115 215.579 89.08 215.819 89.08C216.899 89.08 217.439 89.875 217.439 91.465V97H215.654V91.69C215.654 91.33 215.589 91.08 215.459 90.94C215.339 90.79 215.179 90.715 214.979 90.715C214.789 90.715 214.624 90.78 214.484 90.91C214.354 91.03 214.289 91.22 214.289 91.48V97H212.489V91.69C212.489 91.33 212.429 91.08 212.309 90.94C212.199 90.79 212.044 90.715 211.844 90.715C211.644 90.715 211.474 90.78 211.334 90.91C211.194 91.03 211.124 91.22 211.124 91.48V97H209.339ZM222.593 97.18C221.293 97.18 220.308 96.82 219.638 96.1C218.968 95.38 218.633 94.4 218.633 93.16C218.633 92.53 218.718 91.965 218.888 91.465C219.068 90.955 219.318 90.525 219.638 90.175C219.968 89.815 220.363 89.545 220.823 89.365C221.293 89.175 221.818 89.08 222.398 89.08C222.978 89.08 223.498 89.175 223.958 89.365C224.418 89.545 224.808 89.805 225.128 90.145C225.448 90.485 225.693 90.9 225.863 91.39C226.043 91.87 226.133 92.41 226.133 93.01V93.67H220.838V93.805C220.838 94.305 220.993 94.71 221.303 95.02C221.613 95.32 222.068 95.47 222.668 95.47C223.128 95.47 223.523 95.385 223.853 95.215C224.183 95.035 224.468 94.8 224.708 94.51L225.908 95.815C225.608 96.185 225.188 96.505 224.648 96.775C224.108 97.045 223.423 97.18 222.593 97.18ZM222.413 90.67C221.933 90.67 221.548 90.82 221.258 91.12C220.978 91.41 220.838 91.805 220.838 92.305V92.425H223.958V92.305C223.958 91.795 223.818 91.395 223.538 91.105C223.268 90.815 222.893 90.67 222.413 90.67ZM240.971 97C240.171 97 239.576 96.79 239.186 96.37C238.796 95.95 238.601 95.415 238.601 94.765V90.985H236.501V89.26H237.866C238.196 89.26 238.431 89.195 238.571 89.065C238.711 88.935 238.781 88.695 238.781 88.345V86.53H240.821V89.26H243.836V90.985H240.821V95.275H243.836V97H240.971ZM249.365 97.18C248.765 97.18 248.225 97.09 247.745 96.91C247.265 96.72 246.855 96.45 246.515 96.1C246.185 95.75 245.93 95.325 245.75 94.825C245.57 94.325 245.48 93.76 245.48 93.13C245.48 92.5 245.57 91.935 245.75 91.435C245.93 90.935 246.185 90.51 246.515 90.16C246.855 89.81 247.265 89.545 247.745 89.365C248.225 89.175 248.765 89.08 249.365 89.08C249.965 89.08 250.505 89.175 250.985 89.365C251.465 89.545 251.87 89.81 252.2 90.16C252.54 90.51 252.8 90.935 252.98 91.435C253.16 91.935 253.25 92.5 253.25 93.13C253.25 93.76 253.16 94.325 252.98 94.825C252.8 95.325 252.54 95.75 252.2 96.1C251.87 96.45 251.465 96.72 250.985 96.91C250.505 97.09 249.965 97.18 249.365 97.18ZM249.365 95.53C249.865 95.53 250.255 95.375 250.535 95.065C250.815 94.755 250.955 94.315 250.955 93.745V92.515C250.955 91.945 250.815 91.505 250.535 91.195C250.255 90.885 249.865 90.73 249.365 90.73C248.865 90.73 248.475 90.885 248.195 91.195C247.915 91.505 247.775 91.945 247.775 92.515V93.745C247.775 94.315 247.915 94.755 248.195 95.065C248.475 95.375 248.865 95.53 249.365 95.53ZM267.954 97C267.154 97 266.559 96.79 266.169 96.37C265.779 95.95 265.584 95.415 265.584 94.765V90.985H263.484V89.26H264.849C265.179 89.26 265.414 89.195 265.554 89.065C265.694 88.935 265.764 88.695 265.764 88.345V86.53H267.804V89.26H270.819V90.985H267.804V95.275H270.819V97H267.954ZM272.823 85.9H275.043V90.67H275.133C275.223 90.45 275.333 90.245 275.463 90.055C275.593 89.865 275.748 89.7 275.928 89.56C276.118 89.41 276.333 89.295 276.573 89.215C276.823 89.125 277.103 89.08 277.413 89.08C277.783 89.08 278.123 89.145 278.433 89.275C278.743 89.395 279.008 89.58 279.228 89.83C279.448 90.08 279.618 90.385 279.738 90.745C279.868 91.105 279.933 91.52 279.933 91.99V97H277.713V92.29C277.713 91.29 277.278 90.79 276.408 90.79C276.238 90.79 276.068 90.815 275.898 90.865C275.738 90.905 275.593 90.975 275.463 91.075C275.333 91.165 275.228 91.28 275.148 91.42C275.078 91.56 275.043 91.725 275.043 91.915V97H272.823V85.9ZM285.552 97.18C284.252 97.18 283.267 96.82 282.597 96.1C281.927 95.38 281.592 94.4 281.592 93.16C281.592 92.53 281.677 91.965 281.847 91.465C282.027 90.955 282.277 90.525 282.597 90.175C282.927 89.815 283.322 89.545 283.782 89.365C284.252 89.175 284.777 89.08 285.357 89.08C285.937 89.08 286.457 89.175 286.917 89.365C287.377 89.545 287.767 89.805 288.087 90.145C288.407 90.485 288.652 90.9 288.822 91.39C289.002 91.87 289.092 92.41 289.092 93.01V93.67H283.797V93.805C283.797 94.305 283.952 94.71 284.262 95.02C284.572 95.32 285.027 95.47 285.627 95.47C286.087 95.47 286.482 95.385 286.812 95.215C287.142 95.035 287.427 94.8 287.667 94.51L288.867 95.815C288.567 96.185 288.147 96.505 287.607 96.775C287.067 97.045 286.382 97.18 285.552 97.18ZM285.372 90.67C284.892 90.67 284.507 90.82 284.217 91.12C283.937 91.41 283.797 91.805 283.797 92.305V92.425H286.917V92.305C286.917 91.795 286.777 91.395 286.497 91.105C286.227 90.815 285.852 90.67 285.372 90.67ZM304.65 92.62H302.01V97H299.745V86.53H302.01V90.775H304.65V86.53H306.915V97H304.65V92.62ZM314.274 89.26H316.539L312.894 98.245C312.664 98.815 312.359 99.25 311.979 99.55C311.599 99.85 311.079 100 310.419 100H308.889V98.275H310.749L311.229 96.955L308.109 89.26H310.494L311.619 92.515L312.324 94.765H312.444L313.119 92.515L314.274 89.26ZM317.808 97V95.155L322.113 90.985H317.958V89.26H324.678V91.105L320.373 95.275H324.828V97H317.808ZM330.523 97.18C329.223 97.18 328.238 96.82 327.568 96.1C326.898 95.38 326.563 94.4 326.563 93.16C326.563 92.53 326.648 91.965 326.818 91.465C326.998 90.955 327.248 90.525 327.568 90.175C327.898 89.815 328.293 89.545 328.753 89.365C329.223 89.175 329.748 89.08 330.328 89.08C330.908 89.08 331.428 89.175 331.888 89.365C332.348 89.545 332.738 89.805 333.058 90.145C333.378 90.485 333.623 90.9 333.793 91.39C333.973 91.87 334.063 92.41 334.063 93.01V93.67H328.768V93.805C328.768 94.305 328.923 94.71 329.233 95.02C329.543 95.32 329.998 95.47 330.598 95.47C331.058 95.47 331.453 95.385 331.783 95.215C332.113 95.035 332.398 94.8 332.638 94.51L333.838 95.815C333.538 96.185 333.118 96.505 332.578 96.775C332.038 97.045 331.353 97.18 330.523 97.18ZM330.343 90.67C329.863 90.67 329.478 90.82 329.188 91.12C328.908 91.41 328.768 91.805 328.768 92.305V92.425H331.888V92.305C331.888 91.795 331.748 91.395 331.468 91.105C331.198 90.815 330.823 90.67 330.343 90.67ZM335.917 95.275H337.702V90.985H335.917V89.26H339.922V91.45H340.027C340.097 91.17 340.192 90.9 340.312 90.64C340.442 90.37 340.602 90.135 340.792 89.935C340.992 89.725 341.232 89.56 341.512 89.44C341.792 89.32 342.122 89.26 342.502 89.26H343.237V91.3H341.587C341.037 91.3 340.622 91.465 340.342 91.795C340.062 92.115 339.922 92.51 339.922 92.98V95.275H342.472V97H335.917V95.275ZM348.301 97.18C347.701 97.18 347.161 97.09 346.681 96.91C346.201 96.72 345.791 96.45 345.451 96.1C345.121 95.75 344.866 95.325 344.686 94.825C344.506 94.325 344.416 93.76 344.416 93.13C344.416 92.5 344.506 91.935 344.686 91.435C344.866 90.935 345.121 90.51 345.451 90.16C345.791 89.81 346.201 89.545 346.681 89.365C347.161 89.175 347.701 89.08 348.301 89.08C348.901 89.08 349.441 89.175 349.921 89.365C350.401 89.545 350.806 89.81 351.136 90.16C351.476 90.51 351.736 90.935 351.916 91.435C352.096 91.935 352.186 92.5 352.186 93.13C352.186 93.76 352.096 94.325 351.916 94.825C351.736 95.325 351.476 95.75 351.136 96.1C350.806 96.45 350.401 96.72 349.921 96.91C349.441 97.09 348.901 97.18 348.301 97.18ZM348.301 95.53C348.801 95.53 349.191 95.375 349.471 95.065C349.751 94.755 349.891 94.315 349.891 93.745V92.515C349.891 91.945 349.751 91.505 349.471 91.195C349.191 90.885 348.801 90.73 348.301 90.73C347.801 90.73 347.411 90.885 347.131 91.195C346.851 91.505 346.711 91.945 346.711 92.515V93.745C346.711 94.315 346.851 94.755 347.131 95.065C347.411 95.375 347.801 95.53 348.301 95.53ZM356.935 93.355L356.08 89.575V86.53H358.51V89.575L357.655 93.355H356.935ZM357.295 97.18C356.755 97.18 356.375 97.065 356.155 96.835C355.935 96.605 355.825 96.33 355.825 96.01V95.53C355.825 95.22 355.935 94.95 356.155 94.72C356.385 94.49 356.765 94.375 357.295 94.375C357.825 94.375 358.2 94.49 358.42 94.72C358.65 94.95 358.765 95.22 358.765 95.53V96.01C358.765 96.33 358.655 96.605 358.435 96.835C358.215 97.065 357.835 97.18 357.295 97.18Z" fill="#356BD3"/>
<path d="M113.773 113.451V119.633H112.161V113.451H110V112.129H115.934V113.451H113.773Z" fill="black"/>
<path d="M120.359 116.493H118.467V119.633H116.844V112.129H118.467V115.171H120.359V112.129H121.982V119.633H120.359V116.493Z" fill="black"/>
<path d="M123.494 119.633V112.129H128.288V113.451H125.106V115.171H128.181V116.493H125.106V118.31H128.288V119.633H123.494Z" fill="black"/>
<path d="M139.696 116.493H137.804V119.633H136.181V112.129H137.804V115.171H139.696V112.129H141.319V119.633H139.696V116.493Z" fill="black"/>
<path d="M144.39 119.633V116.977L142.014 112.129H143.809L144.605 113.871L145.185 115.343H145.271L145.852 113.871L146.647 112.129H148.378L146.002 116.977V119.633H144.39Z" fill="black"/>
<path d="M154.34 119.633H148.933V118.224L152.427 113.451H149.04V112.129H154.233V113.537L150.739 118.31H154.34V119.633Z" fill="black"/>
<path d="M155.723 119.633V112.129H160.517V113.451H157.335V115.171H160.41V116.493H157.335V118.31H160.517V119.633H155.723Z" fill="black"/>
<path d="M163.716 119.633H162.125V112.129H165.028C165.393 112.129 165.719 112.186 166.006 112.301C166.293 112.408 166.533 112.566 166.726 112.774C166.927 112.982 167.078 113.233 167.178 113.526C167.278 113.82 167.328 114.15 167.328 114.516C167.328 115.046 167.214 115.501 166.984 115.881C166.755 116.261 166.429 116.511 166.006 116.633L167.479 119.633H165.716L164.458 116.848H163.716V119.633ZM164.641 115.601C165.021 115.601 165.282 115.53 165.426 115.386C165.576 115.243 165.651 115.006 165.651 114.677V114.354C165.651 114.025 165.576 113.788 165.426 113.645C165.282 113.501 165.021 113.43 164.641 113.43H163.716V115.601H164.641Z" fill="black"/>
<path d="M170.979 119.762C169.976 119.762 169.234 119.421 168.754 118.74C168.281 118.059 168.044 117.106 168.044 115.881C168.044 114.655 168.281 113.702 168.754 113.021C169.234 112.34 169.976 112 170.979 112C171.983 112 172.721 112.34 173.194 113.021C173.674 113.702 173.914 114.655 173.914 115.881C173.914 117.106 173.674 118.059 173.194 118.74C172.721 119.421 171.983 119.762 170.979 119.762ZM170.979 118.461C171.438 118.461 171.753 118.292 171.925 117.956C172.104 117.612 172.194 117.135 172.194 116.526V115.225C172.194 114.623 172.104 114.154 171.925 113.817C171.753 113.473 171.438 113.301 170.979 113.301C170.521 113.301 170.202 113.473 170.022 113.817C169.85 114.154 169.764 114.623 169.764 115.225V116.536C169.764 117.139 169.85 117.612 170.022 117.956C170.202 118.292 170.521 118.461 170.979 118.461Z" fill="black"/>
<path d="M181.463 119.633V112.129H184.365C184.731 112.129 185.057 112.186 185.344 112.301C185.63 112.408 185.87 112.566 186.064 112.774C186.264 112.982 186.415 113.233 186.515 113.526C186.616 113.82 186.666 114.15 186.666 114.516C186.666 114.881 186.616 115.211 186.515 115.505C186.415 115.798 186.264 116.049 186.064 116.257C185.87 116.465 185.63 116.626 185.344 116.741C185.057 116.848 184.731 116.902 184.365 116.902H183.086V119.633H181.463ZM183.086 115.601H183.957C184.337 115.601 184.598 115.53 184.742 115.386C184.892 115.243 184.967 115.006 184.967 114.677V114.354C184.967 114.025 184.892 113.788 184.742 113.645C184.598 113.501 184.337 113.43 183.957 113.43H183.086V115.601Z" fill="black"/>
<path d="M189.5 119.633H187.909V112.129H190.811C191.177 112.129 191.503 112.186 191.789 112.301C192.076 112.408 192.316 112.566 192.51 112.774C192.71 112.982 192.861 113.233 192.961 113.526C193.061 113.82 193.112 114.15 193.112 114.516C193.112 115.046 192.997 115.501 192.768 115.881C192.538 116.261 192.212 116.511 191.789 116.633L193.262 119.633H191.499L190.241 116.848H189.5V119.633ZM190.424 115.601C190.804 115.601 191.066 115.53 191.209 115.386C191.359 115.243 191.435 115.006 191.435 114.677V114.354C191.435 114.025 191.359 113.788 191.209 113.645C191.066 113.501 190.804 113.43 190.424 113.43H189.5V115.601H190.424Z" fill="black"/>
<path d="M196.762 119.762C195.759 119.762 195.017 119.421 194.537 118.74C194.064 118.059 193.828 117.106 193.828 115.881C193.828 114.655 194.064 113.702 194.537 113.021C195.017 112.34 195.759 112 196.762 112C197.766 112 198.504 112.34 198.977 113.021C199.457 113.702 199.697 114.655 199.697 115.881C199.697 117.106 199.457 118.059 198.977 118.74C198.504 119.421 197.766 119.762 196.762 119.762ZM196.762 118.461C197.221 118.461 197.536 118.292 197.708 117.956C197.888 117.612 197.977 117.135 197.977 116.526V115.225C197.977 114.623 197.888 114.154 197.708 113.817C197.536 113.473 197.221 113.301 196.762 113.301C196.304 113.301 195.985 113.473 195.806 113.817C195.634 114.154 195.548 114.623 195.548 115.225V116.536C195.548 117.139 195.634 117.612 195.806 117.956C195.985 118.292 196.304 118.461 196.762 118.461Z" fill="black"/>
<path d="M204.401 118.568H204.305C204.24 118.726 204.161 118.876 204.068 119.02C203.975 119.163 203.86 119.292 203.724 119.407C203.588 119.514 203.427 119.6 203.24 119.665C203.061 119.729 202.857 119.762 202.628 119.762C202.262 119.762 201.936 119.676 201.649 119.504C201.37 119.332 201.133 119.081 200.94 118.751C200.746 118.421 200.6 118.02 200.499 117.547C200.406 117.074 200.359 116.54 200.359 115.945C200.359 114.67 200.592 113.695 201.058 113.021C201.524 112.34 202.244 112 203.219 112C203.606 112 203.946 112.054 204.24 112.161C204.534 112.262 204.785 112.408 204.993 112.602C205.208 112.788 205.383 113.014 205.519 113.279C205.656 113.544 205.763 113.838 205.842 114.161L204.337 114.526C204.294 114.369 204.244 114.218 204.186 114.075C204.136 113.924 204.068 113.792 203.982 113.677C203.896 113.562 203.789 113.473 203.66 113.408C203.531 113.337 203.373 113.301 203.187 113.301C202.778 113.301 202.488 113.469 202.316 113.806C202.151 114.143 202.069 114.616 202.069 115.225V116.451C202.069 117.06 202.158 117.547 202.337 117.913C202.524 118.278 202.85 118.461 203.316 118.461C203.681 118.461 203.954 118.353 204.133 118.138C204.312 117.923 204.401 117.647 204.401 117.311V116.762H203.122V115.623H205.842V119.633H204.401V118.568Z" fill="black"/>
<path d="M208.837 119.633H207.246V112.129H210.149C210.514 112.129 210.84 112.186 211.127 112.301C211.413 112.408 211.654 112.566 211.847 112.774C212.048 112.982 212.198 113.233 212.299 113.526C212.399 113.82 212.449 114.15 212.449 114.516C212.449 115.046 212.334 115.501 212.105 115.881C211.876 116.261 211.55 116.511 211.127 116.633L212.6 119.633H210.837L209.579 116.848H208.837V119.633ZM209.762 115.601C210.141 115.601 210.403 115.53 210.546 115.386C210.697 115.243 210.772 115.006 210.772 114.677V114.354C210.772 114.025 210.697 113.788 210.546 113.645C210.403 113.501 210.141 113.43 209.762 113.43H208.837V115.601H209.762Z" fill="black"/>
<path d="M217.551 119.633L217.078 117.827H215.025L214.563 119.633H212.929L214.96 112.129H217.239L219.271 119.633H217.551ZM216.1 113.688H216.014L215.283 116.526H216.831L216.1 113.688Z" fill="black"/>
<path d="M223.954 116.289L224.04 114.193H223.943L222.546 118.052L221.148 114.193H221.051L221.137 116.289V119.633H219.74V112.129H221.643L222.567 114.655H222.653L223.578 112.129H225.351V119.633H223.954V116.289Z" fill="black"/>
<path d="M230.4 116.289L230.486 114.193H230.389L228.991 118.052L227.594 114.193H227.497L227.583 116.289V119.633H226.186V112.129H228.088L229.013 114.655H229.099L230.023 112.129H231.797V119.633H230.4V116.289Z" fill="black"/>
<path d="M233.018 119.633V118.439H234.631V113.322H233.018V112.129H237.856V113.322H236.243V118.439H237.856V119.633H233.018Z" fill="black"/>
<path d="M240.808 114.645H240.69V119.633H239.314V112.129H241.249L242.958 117.117H243.076V112.129H244.452V119.633H242.517L240.808 114.645Z" fill="black"/>
<path d="M249.522 118.568H249.425C249.361 118.726 249.282 118.876 249.189 119.02C249.096 119.163 248.981 119.292 248.845 119.407C248.709 119.514 248.547 119.6 248.361 119.665C248.182 119.729 247.978 119.762 247.748 119.762C247.383 119.762 247.057 119.676 246.77 119.504C246.491 119.332 246.254 119.081 246.061 118.751C245.867 118.421 245.72 118.02 245.62 117.547C245.527 117.074 245.48 116.54 245.48 115.945C245.48 114.67 245.713 113.695 246.179 113.021C246.645 112.34 247.365 112 248.34 112C248.727 112 249.067 112.054 249.361 112.161C249.655 112.262 249.905 112.408 250.113 112.602C250.328 112.788 250.504 113.014 250.64 113.279C250.776 113.544 250.884 113.838 250.963 114.161L249.458 114.526C249.415 114.369 249.364 114.218 249.307 114.075C249.257 113.924 249.189 113.792 249.103 113.677C249.017 113.562 248.909 113.473 248.78 113.408C248.651 113.337 248.494 113.301 248.307 113.301C247.899 113.301 247.609 113.469 247.437 113.806C247.272 114.143 247.189 114.616 247.189 115.225V116.451C247.189 117.06 247.279 117.547 247.458 117.913C247.644 118.278 247.97 118.461 248.436 118.461C248.802 118.461 249.074 118.353 249.253 118.138C249.432 117.923 249.522 117.647 249.522 117.311V116.762H248.243V115.623H250.963V119.633H249.522V118.568Z" fill="black"/>
<path d="M258.984 119.633V112.129H260.608V118.31H263.833V119.633H258.984Z" fill="black"/>
<path d="M269.117 119.633L268.644 117.827H266.591L266.129 119.633H264.495L266.527 112.129H268.806L270.837 119.633H269.117ZM267.666 113.688H267.58L266.849 116.526H268.397L267.666 113.688Z" fill="black"/>
<path d="M273.037 114.645H272.919V119.633H271.543V112.129H273.478L275.187 117.117H275.305V112.129H276.681V119.633H274.746L273.037 114.645Z" fill="black"/>
<path d="M281.751 118.568H281.654C281.59 118.726 281.511 118.876 281.418 119.02C281.325 119.163 281.21 119.292 281.074 119.407C280.938 119.514 280.776 119.6 280.59 119.665C280.411 119.729 280.207 119.762 279.977 119.762C279.612 119.762 279.286 119.676 278.999 119.504C278.72 119.332 278.483 119.081 278.29 118.751C278.096 118.421 277.949 118.02 277.849 117.547C277.756 117.074 277.709 116.54 277.709 115.945C277.709 114.67 277.942 113.695 278.408 113.021C278.874 112.34 279.594 112 280.569 112C280.956 112 281.296 112.054 281.59 112.161C281.884 112.262 282.134 112.408 282.342 112.602C282.557 112.788 282.733 113.014 282.869 113.279C283.005 113.544 283.113 113.838 283.192 114.161L281.687 114.526C281.644 114.369 281.593 114.218 281.536 114.075C281.486 113.924 281.418 113.792 281.332 113.677C281.246 113.562 281.138 113.473 281.009 113.408C280.88 113.337 280.723 113.301 280.536 113.301C280.128 113.301 279.838 113.469 279.666 113.806C279.501 114.143 279.418 114.616 279.418 115.225V116.451C279.418 117.06 279.508 117.547 279.687 117.913C279.873 118.278 280.199 118.461 280.665 118.461C281.031 118.461 281.303 118.353 281.482 118.138C281.661 117.923 281.751 117.647 281.751 117.311V116.762H280.472V115.623H283.192V119.633H281.751V118.568Z" fill="black"/>
<path d="M285.982 112.129V116.881C285.982 117.117 285.99 117.336 286.004 117.536C286.025 117.73 286.068 117.895 286.133 118.031C286.205 118.167 286.308 118.274 286.445 118.353C286.581 118.425 286.767 118.461 287.004 118.461C287.24 118.461 287.426 118.425 287.563 118.353C287.699 118.274 287.799 118.167 287.864 118.031C287.935 117.895 287.978 117.73 287.993 117.536C288.014 117.336 288.025 117.117 288.025 116.881V112.129H289.637V116.666C289.637 117.182 289.602 117.633 289.53 118.02C289.465 118.407 289.336 118.73 289.143 118.988C288.949 119.246 288.681 119.439 288.337 119.568C287.993 119.697 287.548 119.762 287.004 119.762C286.459 119.762 286.015 119.697 285.671 119.568C285.327 119.439 285.058 119.246 284.864 118.988C284.671 118.73 284.538 118.407 284.467 118.02C284.402 117.633 284.37 117.182 284.37 116.666V112.129H285.982Z" fill="black"/>
<path d="M294.901 119.633L294.428 117.827H292.374L291.912 119.633H290.278L292.31 112.129H294.589L296.621 119.633H294.901ZM293.449 113.688H293.363L292.632 116.526H294.18L293.449 113.688Z" fill="black"/>
<path d="M301.088 118.568H300.992C300.927 118.726 300.848 118.876 300.755 119.02C300.662 119.163 300.547 119.292 300.411 119.407C300.275 119.514 300.114 119.6 299.927 119.665C299.748 119.729 299.544 119.762 299.315 119.762C298.949 119.762 298.623 119.676 298.336 119.504C298.057 119.332 297.82 119.081 297.627 118.751C297.433 118.421 297.287 118.02 297.186 117.547C297.093 117.074 297.046 116.54 297.046 115.945C297.046 114.67 297.279 113.695 297.745 113.021C298.211 112.34 298.931 112 299.906 112C300.293 112 300.633 112.054 300.927 112.161C301.221 112.262 301.472 112.408 301.68 112.602C301.895 112.788 302.07 113.014 302.206 113.279C302.343 113.544 302.45 113.838 302.529 114.161L301.024 114.526C300.981 114.369 300.931 114.218 300.873 114.075C300.823 113.924 300.755 113.792 300.669 113.677C300.583 113.562 300.476 113.473 300.347 113.408C300.218 113.337 300.06 113.301 299.874 113.301C299.465 113.301 299.175 113.469 299.003 113.806C298.838 114.143 298.756 114.616 298.756 115.225V116.451C298.756 117.06 298.845 117.547 299.024 117.913C299.211 118.278 299.537 118.461 300.003 118.461C300.368 118.461 300.641 118.353 300.82 118.138C300.999 117.923 301.088 117.647 301.088 117.311V116.762H299.809V115.623H302.529V119.633H301.088V118.568Z" fill="black"/>
<path d="M303.976 119.633V112.129H308.771V113.451H305.589V115.171H308.663V116.493H305.589V118.31H308.771V119.633H303.976Z" fill="black"/>
<path d="M131.404 133.578C131.18 133.578 130.98 133.54 130.804 133.464C130.632 133.384 130.486 133.274 130.366 133.134C130.246 132.994 130.154 132.824 130.09 132.624C130.03 132.424 130 132.202 130 131.958C130 131.714 130.032 131.492 130.096 131.292C130.16 131.092 130.252 130.922 130.372 130.782C130.492 130.638 130.638 130.528 130.81 130.452C130.982 130.376 131.178 130.338 131.398 130.338C131.698 130.338 131.942 130.404 132.13 130.536C132.318 130.668 132.456 130.84 132.544 131.052L132.16 131.256C132.104 131.096 132.01 130.972 131.878 130.884C131.75 130.796 131.59 130.752 131.398 130.752C131.258 130.752 131.132 130.776 131.02 130.824C130.912 130.868 130.82 130.932 130.744 131.016C130.668 131.1 130.61 131.2 130.57 131.316C130.534 131.432 130.516 131.558 130.516 131.694V132.222C130.516 132.358 130.534 132.484 130.57 132.6C130.61 132.716 130.668 132.816 130.744 132.9C130.82 132.984 130.914 133.05 131.026 133.098C131.138 133.142 131.266 133.164 131.41 133.164C131.618 133.164 131.79 133.116 131.926 133.02C132.062 132.924 132.17 132.792 132.25 132.624L132.592 132.858C132.5 133.066 132.356 133.238 132.16 133.374C131.968 133.51 131.716 133.578 131.404 133.578Z" fill="black"/>
<path d="M133.556 133.098H134.462V130.818H133.556V130.41H134.942V131.19H134.972C135.036 130.946 135.156 130.756 135.332 130.62C135.512 130.48 135.74 130.41 136.016 130.41H136.448V130.89H135.866C135.59 130.89 135.366 130.97 135.194 131.13C135.026 131.29 134.942 131.5 134.942 131.76V133.098H136.142V133.506H133.556V133.098Z" fill="black"/>
<path d="M138.545 133.578C138.321 133.578 138.119 133.54 137.939 133.464C137.763 133.388 137.611 133.28 137.483 133.14C137.359 132.996 137.263 132.826 137.195 132.63C137.127 132.43 137.093 132.208 137.093 131.964C137.093 131.716 137.127 131.492 137.195 131.292C137.267 131.092 137.365 130.922 137.489 130.782C137.613 130.638 137.761 130.528 137.933 130.452C138.109 130.376 138.303 130.338 138.515 130.338C138.723 130.338 138.911 130.376 139.079 130.452C139.251 130.528 139.397 130.634 139.517 130.77C139.637 130.902 139.729 131.06 139.793 131.244C139.857 131.428 139.889 131.63 139.889 131.85V132.078H137.597V132.222C137.597 132.358 137.619 132.484 137.663 132.6C137.707 132.716 137.769 132.816 137.849 132.9C137.933 132.984 138.033 133.05 138.149 133.098C138.269 133.142 138.401 133.164 138.545 133.164C138.753 133.164 138.933 133.116 139.085 133.02C139.237 132.924 139.353 132.792 139.433 132.624L139.787 132.864C139.695 133.072 139.541 133.244 139.325 133.38C139.113 133.512 138.853 133.578 138.545 133.578ZM138.515 130.734C138.383 130.734 138.261 130.758 138.149 130.806C138.037 130.854 137.939 130.92 137.855 131.004C137.775 131.088 137.711 131.188 137.663 131.304C137.619 131.416 137.597 131.54 137.597 131.676V131.718H139.373V131.652C139.373 131.516 139.351 131.392 139.307 131.28C139.267 131.168 139.209 131.072 139.133 130.992C139.061 130.908 138.971 130.844 138.863 130.8C138.759 130.756 138.643 130.734 138.515 130.734Z" fill="black"/>
<path d="M143.259 133.506C143.071 133.506 142.937 133.458 142.857 133.362C142.777 133.266 142.727 133.146 142.707 133.002H142.677C142.609 133.182 142.499 133.324 142.347 133.428C142.199 133.528 141.999 133.578 141.747 133.578C141.423 133.578 141.165 133.494 140.973 133.326C140.781 133.158 140.685 132.928 140.685 132.636C140.685 132.348 140.789 132.126 140.997 131.97C141.209 131.814 141.549 131.736 142.017 131.736H142.677V131.43C142.677 131.202 142.613 131.032 142.485 130.92C142.357 130.804 142.175 130.746 141.939 130.746C141.731 130.746 141.561 130.788 141.429 130.872C141.297 130.952 141.191 131.062 141.111 131.202L140.787 130.962C140.827 130.882 140.881 130.804 140.949 130.728C141.017 130.652 141.101 130.586 141.201 130.53C141.301 130.47 141.415 130.424 141.543 130.392C141.671 130.356 141.813 130.338 141.969 130.338C142.333 130.338 142.621 130.43 142.833 130.614C143.049 130.798 143.157 131.054 143.157 131.382V133.086H143.589V133.506H143.259ZM141.831 133.176C141.955 133.176 142.067 133.162 142.167 133.134C142.271 133.102 142.361 133.062 142.437 133.014C142.513 132.962 142.571 132.902 142.611 132.834C142.655 132.762 142.677 132.686 142.677 132.606V132.096H142.017C141.729 132.096 141.519 132.136 141.387 132.216C141.255 132.296 141.189 132.412 141.189 132.564V132.69C141.189 132.85 141.245 132.972 141.357 133.056C141.473 133.136 141.631 133.176 141.831 133.176Z" fill="black"/>
<path d="M145.837 133.506C145.601 133.506 145.427 133.44 145.315 133.308C145.207 133.176 145.153 133.006 145.153 132.798V130.818H144.121V130.41H144.889C144.993 130.41 145.065 130.39 145.105 130.35C145.149 130.306 145.171 130.232 145.171 130.128V129.318H145.633V130.41H147.043V130.818H145.633V133.098H147.043V133.506H145.837Z" fill="black"/>
<path d="M149.338 133.578C149.114 133.578 148.912 133.54 148.732 133.464C148.556 133.388 148.404 133.28 148.276 133.14C148.152 132.996 148.056 132.826 147.988 132.63C147.92 132.43 147.886 132.208 147.886 131.964C147.886 131.716 147.92 131.492 147.988 131.292C148.06 131.092 148.158 130.922 148.282 130.782C148.406 130.638 148.554 130.528 148.726 130.452C148.902 130.376 149.096 130.338 149.308 130.338C149.516 130.338 149.704 130.376 149.872 130.452C150.044 130.528 150.19 130.634 150.31 130.77C150.43 130.902 150.522 131.06 150.586 131.244C150.65 131.428 150.682 131.63 150.682 131.85V132.078H148.39V132.222C148.39 132.358 148.412 132.484 148.456 132.6C148.5 132.716 148.562 132.816 148.642 132.9C148.726 132.984 148.826 133.05 148.942 133.098C149.062 133.142 149.194 133.164 149.338 133.164C149.546 133.164 149.726 133.116 149.878 133.02C150.03 132.924 150.146 132.792 150.226 132.624L150.58 132.864C150.488 133.072 150.334 133.244 150.118 133.38C149.906 133.512 149.646 133.578 149.338 133.578ZM149.308 130.734C149.176 130.734 149.054 130.758 148.942 130.806C148.83 130.854 148.732 130.92 148.648 131.004C148.568 131.088 148.504 131.188 148.456 131.304C148.412 131.416 148.39 131.54 148.39 131.676V131.718H150.166V131.652C150.166 131.516 150.144 131.392 150.1 131.28C150.06 131.168 150.002 131.072 149.926 130.992C149.854 130.908 149.764 130.844 149.656 130.8C149.552 130.756 149.436 130.734 149.308 130.734Z" fill="black"/>
<path d="M153.632 133.002H153.608C153.408 133.386 153.09 133.578 152.654 133.578C152.274 133.578 151.976 133.436 151.76 133.152C151.548 132.868 151.442 132.47 151.442 131.958C151.442 131.446 151.548 131.048 151.76 130.764C151.976 130.48 152.274 130.338 152.654 130.338C153.09 130.338 153.408 130.53 153.608 130.914H153.632V129.066H154.112V133.506H153.632V133.002ZM152.84 133.152C152.948 133.152 153.05 133.138 153.146 133.11C153.242 133.082 153.326 133.042 153.398 132.99C153.47 132.934 153.526 132.868 153.566 132.792C153.61 132.712 153.632 132.62 153.632 132.516V131.4C153.632 131.296 153.61 131.206 153.566 131.13C153.526 131.05 153.47 130.984 153.398 130.932C153.326 130.876 153.242 130.834 153.146 130.806C153.05 130.778 152.948 130.764 152.84 130.764C152.56 130.764 152.342 130.85 152.186 131.022C152.034 131.19 151.958 131.414 151.958 131.694V132.222C151.958 132.502 152.034 132.728 152.186 132.9C152.342 133.068 152.56 133.152 152.84 133.152Z" fill="black"/>
<path d="M161.247 133.506C161.059 133.506 160.925 133.458 160.845 133.362C160.765 133.266 160.715 133.146 160.695 133.002H160.665C160.597 133.182 160.487 133.324 160.335 133.428C160.187 133.528 159.987 133.578 159.735 133.578C159.411 133.578 159.153 133.494 158.961 133.326C158.769 133.158 158.673 132.928 158.673 132.636C158.673 132.348 158.777 132.126 158.985 131.97C159.197 131.814 159.537 131.736 160.005 131.736H160.665V131.43C160.665 131.202 160.601 131.032 160.473 130.92C160.345 130.804 160.163 130.746 159.927 130.746C159.719 130.746 159.549 130.788 159.417 130.872C159.285 130.952 159.179 131.062 159.099 131.202L158.775 130.962C158.815 130.882 158.869 130.804 158.937 130.728C159.005 130.652 159.089 130.586 159.189 130.53C159.289 130.47 159.403 130.424 159.531 130.392C159.659 130.356 159.801 130.338 159.957 130.338C160.321 130.338 160.609 130.43 160.821 130.614C161.037 130.798 161.145 131.054 161.145 131.382V133.086H161.577V133.506H161.247ZM159.819 133.176C159.943 133.176 160.055 133.162 160.155 133.134C160.259 133.102 160.349 133.062 160.425 133.014C160.501 132.962 160.559 132.902 160.599 132.834C160.643 132.762 160.665 132.686 160.665 132.606V132.096H160.005C159.717 132.096 159.507 132.136 159.375 132.216C159.243 132.296 159.177 132.412 159.177 132.564V132.69C159.177 132.85 159.233 132.972 159.345 133.056C159.461 133.136 159.619 133.176 159.819 133.176Z" fill="black"/>
<path d="M162.463 133.506V130.41H162.943V130.914H162.967C162.999 130.838 163.039 130.766 163.087 130.698C163.135 130.626 163.193 130.564 163.261 130.512C163.333 130.46 163.417 130.418 163.513 130.386C163.609 130.354 163.721 130.338 163.849 130.338C164.173 130.338 164.433 130.442 164.629 130.65C164.825 130.854 164.923 131.144 164.923 131.52V133.506H164.443V131.604C164.443 131.32 164.381 131.11 164.257 130.974C164.133 130.834 163.951 130.764 163.711 130.764C163.615 130.764 163.521 130.776 163.429 130.8C163.337 130.824 163.255 130.86 163.183 130.908C163.111 130.956 163.053 131.018 163.009 131.094C162.965 131.17 162.943 131.258 162.943 131.358V133.506H162.463Z" fill="black"/>
<path d="M168.023 133.002H167.999C167.799 133.386 167.481 133.578 167.045 133.578C166.665 133.578 166.367 133.436 166.151 133.152C165.939 132.868 165.833 132.47 165.833 131.958C165.833 131.446 165.939 131.048 166.151 130.764C166.367 130.48 166.665 130.338 167.045 130.338C167.481 130.338 167.799 130.53 167.999 130.914H168.023V129.066H168.503V133.506H168.023V133.002ZM167.231 133.152C167.339 133.152 167.441 133.138 167.537 133.11C167.633 133.082 167.717 133.042 167.789 132.99C167.861 132.934 167.917 132.868 167.957 132.792C168.001 132.712 168.023 132.62 168.023 132.516V131.4C168.023 131.296 168.001 131.206 167.957 131.13C167.917 131.05 167.861 130.984 167.789 130.932C167.717 130.876 167.633 130.834 167.537 130.806C167.441 130.778 167.339 130.764 167.231 130.764C166.951 130.764 166.733 130.85 166.577 131.022C166.425 131.19 166.349 131.414 166.349 131.694V132.222C166.349 132.502 166.425 132.728 166.577 132.9C166.733 133.068 166.951 133.152 167.231 133.152Z" fill="black"/>
<path d="M175.218 133.002H175.194C174.994 133.386 174.676 133.578 174.24 133.578C173.86 133.578 173.562 133.436 173.346 133.152C173.134 132.868 173.028 132.47 173.028 131.958C173.028 131.446 173.134 131.048 173.346 130.764C173.562 130.48 173.86 130.338 174.24 130.338C174.676 130.338 174.994 130.53 175.194 130.914H175.218V129.066H175.698V133.506H175.218V133.002ZM174.426 133.152C174.534 133.152 174.636 133.138 174.732 133.11C174.828 133.082 174.912 133.042 174.984 132.99C175.056 132.934 175.112 132.868 175.152 132.792C175.196 132.712 175.218 132.62 175.218 132.516V131.4C175.218 131.296 175.196 131.206 175.152 131.13C175.112 131.05 175.056 130.984 174.984 130.932C174.912 130.876 174.828 130.834 174.732 130.806C174.636 130.778 174.534 130.764 174.426 130.764C174.146 130.764 173.928 130.85 173.772 131.022C173.62 131.19 173.544 131.414 173.544 131.694V132.222C173.544 132.502 173.62 132.728 173.772 132.9C173.928 133.068 174.146 133.152 174.426 133.152Z" fill="black"/>
<path d="M178.12 133.578C177.896 133.578 177.694 133.54 177.514 133.464C177.338 133.388 177.186 133.28 177.058 133.14C176.934 132.996 176.838 132.826 176.77 132.63C176.702 132.43 176.668 132.208 176.668 131.964C176.668 131.716 176.702 131.492 176.77 131.292C176.842 131.092 176.94 130.922 177.064 130.782C177.188 130.638 177.336 130.528 177.508 130.452C177.684 130.376 177.878 130.338 178.09 130.338C178.298 130.338 178.486 130.376 178.654 130.452C178.826 130.528 178.972 130.634 179.092 130.77C179.212 130.902 179.304 131.06 179.368 131.244C179.432 131.428 179.464 131.63 179.464 131.85V132.078H177.172V132.222C177.172 132.358 177.194 132.484 177.238 132.6C177.282 132.716 177.344 132.816 177.424 132.9C177.508 132.984 177.608 133.05 177.724 133.098C177.844 133.142 177.976 133.164 178.12 133.164C178.328 133.164 178.508 133.116 178.66 133.02C178.812 132.924 178.928 132.792 179.008 132.624L179.362 132.864C179.27 133.072 179.116 133.244 178.9 133.38C178.688 133.512 178.428 133.578 178.12 133.578ZM178.09 130.734C177.958 130.734 177.836 130.758 177.724 130.806C177.612 130.854 177.514 130.92 177.43 131.004C177.35 131.088 177.286 131.188 177.238 131.304C177.194 131.416 177.172 131.54 177.172 131.676V131.718H178.948V131.652C178.948 131.516 178.926 131.392 178.882 131.28C178.842 131.168 178.784 131.072 178.708 130.992C178.636 130.908 178.546 130.844 178.438 130.8C178.334 130.756 178.218 130.734 178.09 130.734Z" fill="black"/>
<path d="M181.357 133.506L180.247 130.41H180.733L181.177 131.706L181.657 133.104H181.681L182.161 131.706L182.605 130.41H183.079L181.969 133.506H181.357Z" fill="black"/>
<path d="M185.315 133.578C185.091 133.578 184.889 133.54 184.709 133.464C184.533 133.388 184.381 133.28 184.253 133.14C184.129 132.996 184.033 132.826 183.965 132.63C183.897 132.43 183.863 132.208 183.863 131.964C183.863 131.716 183.897 131.492 183.965 131.292C184.037 131.092 184.135 130.922 184.259 130.782C184.383 130.638 184.531 130.528 184.703 130.452C184.879 130.376 185.073 130.338 185.285 130.338C185.493 130.338 185.681 130.376 185.849 130.452C186.021 130.528 186.167 130.634 186.287 130.77C186.407 130.902 186.499 131.06 186.563 131.244C186.627 131.428 186.659 131.63 186.659 131.85V132.078H184.367V132.222C184.367 132.358 184.389 132.484 184.433 132.6C184.477 132.716 184.539 132.816 184.619 132.9C184.703 132.984 184.803 133.05 184.919 133.098C185.039 133.142 185.171 133.164 185.315 133.164C185.523 133.164 185.703 133.116 185.855 133.02C186.007 132.924 186.123 132.792 186.203 132.624L186.557 132.864C186.465 133.072 186.311 133.244 186.095 133.38C185.883 133.512 185.623 133.578 185.315 133.578ZM185.285 130.734C185.153 130.734 185.031 130.758 184.919 130.806C184.807 130.854 184.709 130.92 184.625 131.004C184.545 131.088 184.481 131.188 184.433 131.304C184.389 131.416 184.367 131.54 184.367 131.676V131.718H186.143V131.652C186.143 131.516 186.121 131.392 186.077 131.28C186.037 131.168 185.979 131.072 185.903 130.992C185.831 130.908 185.741 130.844 185.633 130.8C185.529 130.756 185.413 130.734 185.285 130.734Z" fill="black"/>
<path d="M187.538 133.098H188.618V129.474H187.538V129.066H189.098V133.098H190.178V133.506H187.538V133.098Z" fill="black"/>
<path d="M192.456 133.578C192.24 133.578 192.044 133.54 191.868 133.464C191.696 133.388 191.548 133.28 191.424 133.14C191.304 132.996 191.212 132.826 191.148 132.63C191.084 132.43 191.052 132.206 191.052 131.958C191.052 131.714 191.084 131.492 191.148 131.292C191.212 131.092 191.304 130.922 191.424 130.782C191.548 130.638 191.696 130.528 191.868 130.452C192.044 130.376 192.24 130.338 192.456 130.338C192.672 130.338 192.866 130.376 193.038 130.452C193.214 130.528 193.362 130.638 193.482 130.782C193.606 130.922 193.7 131.092 193.764 131.292C193.828 131.492 193.86 131.714 193.86 131.958C193.86 132.206 193.828 132.43 193.764 132.63C193.7 132.826 193.606 132.996 193.482 133.14C193.362 133.28 193.214 133.388 193.038 133.464C192.866 133.54 192.672 133.578 192.456 133.578ZM192.456 133.164C192.724 133.164 192.94 133.084 193.104 132.924C193.268 132.764 193.35 132.516 193.35 132.18V131.736C193.35 131.4 193.268 131.152 193.104 130.992C192.94 130.832 192.724 130.752 192.456 130.752C192.188 130.752 191.972 130.832 191.808 130.992C191.644 131.152 191.562 131.4 191.562 131.736V132.18C191.562 132.516 191.644 132.764 191.808 132.924C191.972 133.084 192.188 133.164 192.456 133.164Z" fill="black"/>
<path d="M194.824 130.41H195.304V130.914H195.328C195.528 130.53 195.846 130.338 196.282 130.338C196.662 130.338 196.958 130.48 197.17 130.764C197.386 131.048 197.494 131.446 197.494 131.958C197.494 132.47 197.386 132.868 197.17 133.152C196.958 133.436 196.662 133.578 196.282 133.578C195.846 133.578 195.528 133.386 195.328 133.002H195.304V134.706H194.824V130.41ZM196.096 133.152C196.376 133.152 196.592 133.068 196.744 132.9C196.9 132.728 196.978 132.502 196.978 132.222V131.694C196.978 131.414 196.9 131.19 196.744 131.022C196.592 130.85 196.376 130.764 196.096 130.764C195.988 130.764 195.886 130.778 195.79 130.806C195.694 130.834 195.61 130.876 195.538 130.932C195.466 130.984 195.408 131.05 195.364 131.13C195.324 131.206 195.304 131.296 195.304 131.4V132.516C195.304 132.62 195.324 132.712 195.364 132.792C195.408 132.868 195.466 132.934 195.538 132.99C195.61 133.042 195.694 133.082 195.79 133.11C195.886 133.138 195.988 133.152 196.096 133.152Z" fill="black"/>
<path d="M199.705 133.578C199.481 133.578 199.279 133.54 199.099 133.464C198.923 133.388 198.771 133.28 198.643 133.14C198.519 132.996 198.423 132.826 198.355 132.63C198.287 132.43 198.253 132.208 198.253 131.964C198.253 131.716 198.287 131.492 198.355 131.292C198.427 131.092 198.525 130.922 198.649 130.782C198.773 130.638 198.921 130.528 199.093 130.452C199.269 130.376 199.463 130.338 199.675 130.338C199.883 130.338 200.071 130.376 200.239 130.452C200.411 130.528 200.557 130.634 200.677 130.77C200.797 130.902 200.889 131.06 200.953 131.244C201.017 131.428 201.049 131.63 201.049 131.85V132.078H198.757V132.222C198.757 132.358 198.779 132.484 198.823 132.6C198.867 132.716 198.929 132.816 199.009 132.9C199.093 132.984 199.193 133.05 199.309 133.098C199.429 133.142 199.561 133.164 199.705 133.164C199.913 133.164 200.093 133.116 200.245 133.02C200.397 132.924 200.513 132.792 200.593 132.624L200.947 132.864C200.855 133.072 200.701 133.244 200.485 133.38C200.273 133.512 200.013 133.578 199.705 133.578ZM199.675 130.734C199.543 130.734 199.421 130.758 199.309 130.806C199.197 130.854 199.099 130.92 199.015 131.004C198.935 131.088 198.871 131.188 198.823 131.304C198.779 131.416 198.757 131.54 198.757 131.676V131.718H200.533V131.652C200.533 131.516 200.511 131.392 200.467 131.28C200.427 131.168 200.369 131.072 200.293 130.992C200.221 130.908 200.131 130.844 200.023 130.8C199.919 130.756 199.803 130.734 199.675 130.734Z" fill="black"/>
<path d="M203.999 133.002H203.975C203.775 133.386 203.457 133.578 203.021 133.578C202.641 133.578 202.343 133.436 202.127 133.152C201.915 132.868 201.809 132.47 201.809 131.958C201.809 131.446 201.915 131.048 202.127 130.764C202.343 130.48 202.641 130.338 203.021 130.338C203.457 130.338 203.775 130.53 203.975 130.914H203.999V129.066H204.479V133.506H203.999V133.002ZM203.207 133.152C203.315 133.152 203.417 133.138 203.513 133.11C203.609 133.082 203.693 133.042 203.765 132.99C203.837 132.934 203.893 132.868 203.933 132.792C203.977 132.712 203.999 132.62 203.999 132.516V131.4C203.999 131.296 203.977 131.206 203.933 131.13C203.893 131.05 203.837 130.984 203.765 130.932C203.693 130.876 203.609 130.834 203.513 130.806C203.417 130.778 203.315 130.764 203.207 130.764C202.927 130.764 202.709 130.85 202.553 131.022C202.401 131.19 202.325 131.414 202.325 131.694V132.222C202.325 132.502 202.401 132.728 202.553 132.9C202.709 133.068 202.927 133.152 203.207 133.152Z" fill="black"/>
<path d="M209.214 129.066H209.694V130.914H209.718C209.918 130.53 210.236 130.338 210.672 130.338C211.052 130.338 211.348 130.48 211.56 130.764C211.776 131.048 211.884 131.446 211.884 131.958C211.884 132.47 211.776 132.868 211.56 133.152C211.348 133.436 211.052 133.578 210.672 133.578C210.236 133.578 209.918 133.386 209.718 133.002H209.694V133.506H209.214V129.066ZM210.486 133.152C210.766 133.152 210.982 133.068 211.134 132.9C211.29 132.728 211.368 132.502 211.368 132.222V131.694C211.368 131.414 211.29 131.19 211.134 131.022C210.982 130.85 210.766 130.764 210.486 130.764C210.378 130.764 210.276 130.778 210.18 130.806C210.084 130.834 210 130.876 209.928 130.932C209.856 130.984 209.798 131.05 209.754 131.13C209.714 131.206 209.694 131.296 209.694 131.4V132.516C209.694 132.62 209.714 132.712 209.754 132.792C209.798 132.868 209.856 132.934 209.928 132.99C210 133.042 210.084 133.082 210.18 133.11C210.276 133.138 210.378 133.152 210.486 133.152Z" fill="black"/>
<path d="M215.044 130.41H215.524L213.988 134.184C213.952 134.272 213.912 134.348 213.868 134.412C213.824 134.48 213.772 134.534 213.712 134.574C213.652 134.618 213.58 134.65 213.496 134.67C213.412 134.694 213.312 134.706 213.196 134.706H212.74V134.298H213.46L213.808 133.446L212.56 130.41H213.052L213.574 131.706L214.036 132.882H214.06L214.522 131.706L215.044 130.41Z" fill="black"/>
<path d="M221.333 133.578C220.773 133.578 220.357 133.39 220.085 133.014C219.817 132.634 219.683 132.1 219.683 131.412C219.683 130.724 219.817 130.192 220.085 129.816C220.357 129.436 220.773 129.246 221.333 129.246C221.549 129.246 221.739 129.276 221.903 129.336C222.071 129.392 222.215 129.472 222.335 129.576C222.455 129.68 222.553 129.806 222.629 129.954C222.709 130.102 222.771 130.268 222.815 130.452L221.975 130.656C221.951 130.556 221.923 130.464 221.891 130.38C221.859 130.296 221.817 130.224 221.765 130.164C221.717 130.104 221.655 130.058 221.579 130.026C221.507 129.99 221.419 129.972 221.315 129.972C221.071 129.972 220.897 130.068 220.793 130.26C220.693 130.448 220.643 130.71 220.643 131.046V131.778C220.643 132.114 220.693 132.378 220.793 132.57C220.897 132.758 221.071 132.852 221.315 132.852C221.523 132.852 221.673 132.788 221.765 132.66C221.861 132.532 221.931 132.368 221.975 132.168L222.815 132.372C222.771 132.556 222.709 132.722 222.629 132.87C222.553 133.018 222.455 133.146 222.335 133.254C222.215 133.358 222.071 133.438 221.903 133.494C221.739 133.55 221.549 133.578 221.333 133.578Z" fill="black"/>
<path d="M225.615 130.41H226.521L225.063 134.004C224.971 134.232 224.849 134.406 224.697 134.526C224.545 134.646 224.337 134.706 224.073 134.706H223.461V134.016H224.205L224.397 133.488L223.149 130.41H224.103L224.553 131.712L224.835 132.612H224.883L225.153 131.712L225.615 130.41Z" fill="black"/>
<path d="M227.077 132.816H227.791V131.1H227.077V130.41H228.679V131.286H228.721C228.749 131.174 228.787 131.066 228.835 130.962C228.887 130.854 228.951 130.76 229.027 130.68C229.107 130.596 229.203 130.53 229.315 130.482C229.427 130.434 229.559 130.41 229.711 130.41H230.005V131.226H229.345C229.125 131.226 228.959 131.292 228.847 131.424C228.735 131.552 228.679 131.71 228.679 131.898V132.816H229.699V133.506H227.077V132.816Z" fill="black"/>
<path d="M232.222 130.014C232.022 130.014 231.882 129.974 231.802 129.894C231.726 129.81 231.688 129.71 231.688 129.594V129.42C231.688 129.3 231.726 129.2 231.802 129.12C231.882 129.04 232.022 129 232.222 129C232.422 129 232.56 129.04 232.636 129.12C232.716 129.2 232.756 129.3 232.756 129.42V129.594C232.756 129.71 232.716 129.81 232.636 129.894C232.56 129.974 232.422 130.014 232.222 130.014ZM230.794 132.816H231.778V131.1H230.794V130.41H232.666V132.816H233.578V133.506H230.794V132.816Z" fill="black"/>
<path d="M234.236 132.816H235.184V129.756H234.236V129.066H236.072V132.816H237.02V133.506H234.236V132.816Z" fill="black"/>
<path d="M244.089 129.318V132.336C244.089 132.524 244.055 132.696 243.987 132.852C243.923 133.004 243.829 133.134 243.705 133.242C243.585 133.35 243.439 133.434 243.267 133.494C243.095 133.55 242.903 133.578 242.691 133.578C242.263 133.578 241.931 133.472 241.695 133.26C241.463 133.044 241.315 132.762 241.251 132.414L242.103 132.24C242.135 132.42 242.195 132.566 242.283 132.678C242.375 132.79 242.511 132.846 242.691 132.846C242.843 132.846 242.961 132.798 243.045 132.702C243.133 132.602 243.177 132.45 243.177 132.246V130.056H241.797V129.318H244.089Z" fill="black"/>
<path d="M246.421 133.578C246.181 133.578 245.965 133.542 245.773 133.47C245.581 133.394 245.417 133.286 245.281 133.146C245.149 133.006 245.047 132.836 244.975 132.636C244.903 132.436 244.867 132.21 244.867 131.958C244.867 131.706 244.903 131.48 244.975 131.28C245.047 131.08 245.149 130.91 245.281 130.77C245.417 130.63 245.581 130.524 245.773 130.452C245.965 130.376 246.181 130.338 246.421 130.338C246.661 130.338 246.877 130.376 247.069 130.452C247.261 130.524 247.423 130.63 247.555 130.77C247.691 130.91 247.795 131.08 247.867 131.28C247.939 131.48 247.975 131.706 247.975 131.958C247.975 132.21 247.939 132.436 247.867 132.636C247.795 132.836 247.691 133.006 247.555 133.146C247.423 133.286 247.261 133.394 247.069 133.47C246.877 133.542 246.661 133.578 246.421 133.578ZM246.421 132.918C246.621 132.918 246.777 132.856 246.889 132.732C247.001 132.608 247.057 132.432 247.057 132.204V131.712C247.057 131.484 247.001 131.308 246.889 131.184C246.777 131.06 246.621 130.998 246.421 130.998C246.221 130.998 246.065 131.06 245.953 131.184C245.841 131.308 245.785 131.484 245.785 131.712V132.204C245.785 132.432 245.841 132.608 245.953 132.732C246.065 132.856 246.221 132.918 246.421 132.918Z" fill="black"/>
<path d="M248.609 129.066H249.497V130.974H249.533C249.569 130.886 249.613 130.804 249.665 130.728C249.717 130.652 249.779 130.586 249.851 130.53C249.927 130.47 250.013 130.424 250.109 130.392C250.209 130.356 250.321 130.338 250.445 130.338C250.593 130.338 250.729 130.364 250.853 130.416C250.977 130.464 251.083 130.538 251.171 130.638C251.259 130.738 251.327 130.86 251.375 131.004C251.427 131.148 251.453 131.314 251.453 131.502V133.506H250.565V131.622C250.565 131.222 250.391 131.022 250.043 131.022C249.975 131.022 249.907 131.032 249.839 131.052C249.775 131.068 249.717 131.096 249.665 131.136C249.613 131.172 249.571 131.218 249.539 131.274C249.511 131.33 249.497 131.396 249.497 131.472V133.506H248.609V129.066Z" fill="black"/>
<path d="M252.206 133.506V130.41H253.094V130.974H253.13C253.166 130.886 253.21 130.804 253.262 130.728C253.314 130.652 253.376 130.586 253.448 130.53C253.524 130.47 253.61 130.424 253.706 130.392C253.806 130.356 253.918 130.338 254.042 130.338C254.19 130.338 254.326 130.364 254.45 130.416C254.574 130.464 254.68 130.538 254.768 130.638C254.856 130.738 254.924 130.86 254.972 131.004C255.024 131.148 255.05 131.314 255.05 131.502V133.506H254.162V131.622C254.162 131.222 253.988 131.022 253.64 131.022C253.572 131.022 253.504 131.032 253.436 131.052C253.372 131.068 253.314 131.096 253.262 131.136C253.21 131.172 253.168 131.218 253.136 131.274C253.108 131.33 253.094 131.396 253.094 131.472V133.506H252.206Z" fill="black"/>
<path d="M261.598 131.64L261.646 130.47H261.592L260.812 132.624L260.032 130.47H259.978L260.026 131.64V133.506H259.246V129.318H260.308L260.824 130.728H260.872L261.388 129.318H262.378V133.506H261.598V131.64Z" fill="black"/>
<path d="M265.531 133.506C265.347 133.506 265.199 133.46 265.087 133.368C264.975 133.272 264.909 133.136 264.889 132.96H264.859C264.803 133.164 264.691 133.318 264.523 133.422C264.359 133.526 264.157 133.578 263.917 133.578C263.617 133.578 263.375 133.498 263.191 133.338C263.011 133.174 262.921 132.946 262.921 132.654C262.921 132.33 263.039 132.09 263.275 131.934C263.511 131.778 263.857 131.7 264.313 131.7H264.811V131.544C264.811 131.36 264.767 131.222 264.679 131.13C264.595 131.034 264.451 130.986 264.247 130.986C264.059 130.986 263.907 131.022 263.791 131.094C263.675 131.166 263.575 131.26 263.491 131.376L263.005 130.944C263.109 130.768 263.271 130.624 263.491 130.512C263.715 130.396 264.001 130.338 264.349 130.338C264.773 130.338 265.103 130.436 265.339 130.632C265.579 130.824 265.699 131.116 265.699 131.508V132.864H266.041V133.506H265.531ZM264.253 132.996C264.409 132.996 264.541 132.958 264.649 132.882C264.757 132.806 264.811 132.696 264.811 132.552V132.18H264.337C263.973 132.18 263.791 132.302 263.791 132.546V132.666C263.791 132.774 263.833 132.856 263.917 132.912C264.001 132.968 264.113 132.996 264.253 132.996Z" fill="black"/>
<path d="M269.705 133.818C269.705 134.146 269.567 134.388 269.291 134.544C269.015 134.7 268.581 134.778 267.989 134.778C267.693 134.778 267.449 134.76 267.257 134.724C267.065 134.692 266.911 134.644 266.795 134.58C266.683 134.516 266.603 134.44 266.555 134.352C266.511 134.264 266.489 134.168 266.489 134.064C266.489 133.888 266.541 133.754 266.645 133.662C266.749 133.574 266.895 133.506 267.083 133.458V133.422C266.951 133.382 266.845 133.326 266.765 133.254C266.689 133.178 266.651 133.072 266.651 132.936C266.651 132.784 266.701 132.672 266.801 132.6C266.905 132.528 267.041 132.472 267.209 132.432V132.396C267.025 132.308 266.881 132.184 266.777 132.024C266.677 131.864 266.627 131.67 266.627 131.442C266.627 131.262 266.659 131.104 266.723 130.968C266.787 130.828 266.877 130.712 266.993 130.62C267.113 130.528 267.255 130.458 267.419 130.41C267.583 130.362 267.767 130.338 267.971 130.338C268.167 130.338 268.349 130.36 268.517 130.404V130.236C268.517 130.116 268.559 130.016 268.643 129.936C268.727 129.856 268.843 129.816 268.991 129.816H269.537V130.464H268.793V130.518C268.961 130.606 269.091 130.728 269.183 130.884C269.279 131.036 269.327 131.222 269.327 131.442C269.327 131.622 269.295 131.78 269.231 131.916C269.167 132.052 269.075 132.168 268.955 132.264C268.835 132.356 268.691 132.426 268.523 132.474C268.359 132.522 268.175 132.546 267.971 132.546C267.879 132.546 267.791 132.542 267.707 132.534C267.623 132.522 267.543 132.506 267.467 132.486C267.423 132.51 267.385 132.54 267.353 132.576C267.325 132.612 267.311 132.658 267.311 132.714C267.311 132.762 267.323 132.8 267.347 132.828C267.371 132.856 267.403 132.878 267.443 132.894C267.487 132.906 267.537 132.914 267.593 132.918C267.649 132.922 267.707 132.924 267.767 132.924H268.475C268.695 132.924 268.883 132.946 269.039 132.99C269.195 133.034 269.323 133.096 269.423 133.176C269.523 133.256 269.595 133.35 269.639 133.458C269.683 133.566 269.705 133.686 269.705 133.818ZM268.865 133.884C268.865 133.804 268.833 133.74 268.769 133.692C268.705 133.648 268.583 133.626 268.403 133.626H267.341C267.261 133.694 267.221 133.778 267.221 133.878C267.221 133.974 267.261 134.052 267.341 134.112C267.425 134.176 267.565 134.208 267.761 134.208H268.283C268.487 134.208 268.635 134.18 268.727 134.124C268.819 134.068 268.865 133.988 268.865 133.884ZM267.971 131.982C268.151 131.982 268.281 131.938 268.361 131.85C268.445 131.762 268.487 131.65 268.487 131.514V131.37C268.487 131.234 268.445 131.122 268.361 131.034C268.281 130.946 268.151 130.902 267.971 130.902C267.795 130.902 267.667 130.946 267.587 131.034C267.507 131.122 267.467 131.234 267.467 131.37V131.514C267.467 131.65 267.507 131.762 267.587 131.85C267.667 131.938 267.795 131.982 267.971 131.982Z" fill="black"/>
<path d="M272.727 133.506C272.543 133.506 272.395 133.46 272.283 133.368C272.171 133.272 272.105 133.136 272.085 132.96H272.055C271.999 133.164 271.887 133.318 271.719 133.422C271.555 133.526 271.353 133.578 271.113 133.578C270.813 133.578 270.571 133.498 270.387 133.338C270.207 133.174 270.117 132.946 270.117 132.654C270.117 132.33 270.235 132.09 270.471 131.934C270.707 131.778 271.053 131.7 271.509 131.7H272.007V131.544C272.007 131.36 271.963 131.222 271.875 131.13C271.791 131.034 271.647 130.986 271.443 130.986C271.255 130.986 271.103 131.022 270.987 131.094C270.871 131.166 270.771 131.26 270.687 131.376L270.201 130.944C270.305 130.768 270.467 130.624 270.687 130.512C270.911 130.396 271.197 130.338 271.545 130.338C271.969 130.338 272.299 130.436 272.535 130.632C272.775 130.824 272.895 131.116 272.895 131.508V132.864H273.237V133.506H272.727ZM271.449 132.996C271.605 132.996 271.737 132.958 271.845 132.882C271.953 132.806 272.007 132.696 272.007 132.552V132.18H271.533C271.169 132.18 270.987 132.302 270.987 132.546V132.666C270.987 132.774 271.029 132.856 271.113 132.912C271.197 132.968 271.309 132.996 271.449 132.996Z" fill="black"/>
<path d="M275.982 130.41H276.888L275.43 134.004C275.338 134.232 275.216 134.406 275.064 134.526C274.912 134.646 274.704 134.706 274.44 134.706H273.828V134.016H274.572L274.764 133.488L273.516 130.41H274.47L274.92 131.712L275.202 132.612H275.25L275.52 131.712L275.982 130.41Z" fill="black"/>
<path d="M279.922 133.506C279.738 133.506 279.59 133.46 279.478 133.368C279.366 133.272 279.3 133.136 279.28 132.96H279.25C279.194 133.164 279.082 133.318 278.914 133.422C278.75 133.526 278.548 133.578 278.308 133.578C278.008 133.578 277.766 133.498 277.582 133.338C277.402 133.174 277.312 132.946 277.312 132.654C277.312 132.33 277.43 132.09 277.666 131.934C277.902 131.778 278.248 131.7 278.704 131.7H279.202V131.544C279.202 131.36 279.158 131.222 279.07 131.13C278.986 131.034 278.842 130.986 278.638 130.986C278.45 130.986 278.298 131.022 278.182 131.094C278.066 131.166 277.966 131.26 277.882 131.376L277.396 130.944C277.5 130.768 277.662 130.624 277.882 130.512C278.106 130.396 278.392 130.338 278.74 130.338C279.164 130.338 279.494 130.436 279.73 130.632C279.97 130.824 280.09 131.116 280.09 131.508V132.864H280.432V133.506H279.922ZM278.644 132.996C278.8 132.996 278.932 132.958 279.04 132.882C279.148 132.806 279.202 132.696 279.202 132.552V132.18H278.728C278.364 132.18 278.182 132.302 278.182 132.546V132.666C278.182 132.774 278.224 132.856 278.308 132.912C278.392 132.968 278.504 132.996 278.644 132.996Z" fill="black"/>
<path d="M284.096 133.818C284.096 134.146 283.958 134.388 283.682 134.544C283.406 134.7 282.972 134.778 282.38 134.778C282.084 134.778 281.84 134.76 281.648 134.724C281.456 134.692 281.302 134.644 281.186 134.58C281.074 134.516 280.994 134.44 280.946 134.352C280.902 134.264 280.88 134.168 280.88 134.064C280.88 133.888 280.932 133.754 281.036 133.662C281.14 133.574 281.286 133.506 281.474 133.458V133.422C281.342 133.382 281.236 133.326 281.156 133.254C281.08 133.178 281.042 133.072 281.042 132.936C281.042 132.784 281.092 132.672 281.192 132.6C281.296 132.528 281.432 132.472 281.6 132.432V132.396C281.416 132.308 281.272 132.184 281.168 132.024C281.068 131.864 281.018 131.67 281.018 131.442C281.018 131.262 281.05 131.104 281.114 130.968C281.178 130.828 281.268 130.712 281.384 130.62C281.504 130.528 281.646 130.458 281.81 130.41C281.974 130.362 282.158 130.338 282.362 130.338C282.558 130.338 282.74 130.36 282.908 130.404V130.236C282.908 130.116 282.95 130.016 283.034 129.936C283.118 129.856 283.234 129.816 283.382 129.816H283.928V130.464H283.184V130.518C283.352 130.606 283.482 130.728 283.574 130.884C283.67 131.036 283.718 131.222 283.718 131.442C283.718 131.622 283.686 131.78 283.622 131.916C283.558 132.052 283.466 132.168 283.346 132.264C283.226 132.356 283.082 132.426 282.914 132.474C282.75 132.522 282.566 132.546 282.362 132.546C282.27 132.546 282.182 132.542 282.098 132.534C282.014 132.522 281.934 132.506 281.858 132.486C281.814 132.51 281.776 132.54 281.744 132.576C281.716 132.612 281.702 132.658 281.702 132.714C281.702 132.762 281.714 132.8 281.738 132.828C281.762 132.856 281.794 132.878 281.834 132.894C281.878 132.906 281.928 132.914 281.984 132.918C282.04 132.922 282.098 132.924 282.158 132.924H282.866C283.086 132.924 283.274 132.946 283.43 132.99C283.586 133.034 283.714 133.096 283.814 133.176C283.914 133.256 283.986 133.35 284.03 133.458C284.074 133.566 284.096 133.686 284.096 133.818ZM283.256 133.884C283.256 133.804 283.224 133.74 283.16 133.692C283.096 133.648 282.974 133.626 282.794 133.626H281.732C281.652 133.694 281.612 133.778 281.612 133.878C281.612 133.974 281.652 134.052 281.732 134.112C281.816 134.176 281.956 134.208 282.152 134.208H282.674C282.878 134.208 283.026 134.18 283.118 134.124C283.21 134.068 283.256 133.988 283.256 133.884ZM282.362 131.982C282.542 131.982 282.672 131.938 282.752 131.85C282.836 131.762 282.878 131.65 282.878 131.514V131.37C282.878 131.234 282.836 131.122 282.752 131.034C282.672 130.946 282.542 130.902 282.362 130.902C282.186 130.902 282.058 130.946 281.978 131.034C281.898 131.122 281.858 131.234 281.858 131.37V131.514C281.858 131.65 281.898 131.762 281.978 131.85C282.058 131.938 282.186 131.982 282.362 131.982Z" fill="black"/>
<path d="M287.117 133.506C286.933 133.506 286.785 133.46 286.673 133.368C286.561 133.272 286.495 133.136 286.475 132.96H286.445C286.389 133.164 286.277 133.318 286.109 133.422C285.945 133.526 285.743 133.578 285.503 133.578C285.203 133.578 284.961 133.498 284.777 133.338C284.597 133.174 284.507 132.946 284.507 132.654C284.507 132.33 284.625 132.09 284.861 131.934C285.097 131.778 285.443 131.7 285.899 131.7H286.397V131.544C286.397 131.36 286.353 131.222 286.265 131.13C286.181 131.034 286.037 130.986 285.833 130.986C285.645 130.986 285.493 131.022 285.377 131.094C285.261 131.166 285.161 131.26 285.077 131.376L284.591 130.944C284.695 130.768 284.857 130.624 285.077 130.512C285.301 130.396 285.587 130.338 285.935 130.338C286.359 130.338 286.689 130.436 286.925 130.632C287.165 130.824 287.285 131.116 287.285 131.508V132.864H287.627V133.506H287.117ZM285.839 132.996C285.995 132.996 286.127 132.958 286.235 132.882C286.343 132.806 286.397 132.696 286.397 132.552V132.18H285.923C285.559 132.18 285.377 132.302 285.377 132.546V132.666C285.377 132.774 285.419 132.856 285.503 132.912C285.587 132.968 285.699 132.996 285.839 132.996Z" fill="black"/>
</svg>
