<!--
    Copyright 2022 Cyril John Magayaga
    Hyzero programming language (v0.0.3 - v0.1.1)
-->
<?xml version="1.0" encoding="UTF-8" standalone="no"?>
<svg width="342" height="129" viewBox="0 0 342 129" fill="none" xmlns="http://www.w3.org/2000/svg">
<path d="M32.2632 16H7V122L32.2632 111.4V83.1333L61.7368 118.467L87 107.867V61.9333H32.2632V16Z" stroke="grey" stroke-width="12.5" stroke-linejoin="round"/>
<path d="M64.14 3.808H65.1V4.816H65.148C65.548 4.048 66.184 3.664 67.056 3.664C67.816 3.664 68.408 3.948 68.832 4.516C69.264 5.084 69.48 5.88 69.48 6.904C69.48 7.928 69.264 8.724 68.832 9.292C68.408 9.86 67.816 10.144 67.056 10.144C66.184 10.144 65.548 9.76 65.148 8.992H65.1V12.4H64.14V3.808ZM66.684 9.292C67.244 9.292 67.676 9.124 67.98 8.788C68.292 8.444 68.448 7.992 68.448 7.432V6.376C68.448 5.816 68.292 5.368 67.98 5.032C67.676 4.688 67.244 4.516 66.684 4.516C66.468 4.516 66.264 4.544 66.072 4.6C65.88 4.656 65.712 4.74 65.568 4.852C65.424 4.956 65.308 5.088 65.22 5.248C65.14 5.4 65.1 5.58 65.1 5.788V8.02C65.1 8.228 65.14 8.412 65.22 8.572C65.308 8.724 65.424 8.856 65.568 8.968C65.712 9.072 65.88 9.152 66.072 9.208C66.264 9.264 66.468 9.292 66.684 9.292ZM71.1193 9.184H72.9313V4.624H71.1193V3.808H73.8913V5.368H73.9513C74.0793 4.88 74.3193 4.5 74.6713 4.228C75.0313 3.948 75.4873 3.808 76.0393 3.808H76.9033V4.768H75.7393C75.1873 4.768 74.7393 4.928 74.3953 5.248C74.0593 5.568 73.8913 5.988 73.8913 6.508V9.184H76.2913V10H71.1193V9.184ZM81.3746 2.44C81.0946 2.44 80.8986 2.384 80.7866 2.272C80.6746 2.152 80.6186 2.004 80.6186 1.828V1.636C80.6186 1.46 80.6746 1.316 80.7866 1.204C80.8986 1.084 81.0946 1.024 81.3746 1.024C81.6546 1.024 81.8506 1.084 81.9626 1.204C82.0746 1.316 82.1306 1.46 82.1306 1.636V1.828C82.1306 2.004 82.0746 2.152 81.9626 2.272C81.8506 2.384 81.6546 2.44 81.3746 2.44ZM78.6626 9.184H80.8946V4.624H78.6626V3.808H81.8546V9.184H83.9426V10H78.6626V9.184ZM85.7619 10V3.808H86.7219V4.816H86.7699C86.8339 4.664 86.9139 4.52 87.0099 4.384C87.1059 4.24 87.2219 4.116 87.3579 4.012C87.5019 3.908 87.6699 3.824 87.8619 3.76C88.0539 3.696 88.2779 3.664 88.5339 3.664C89.1819 3.664 89.7019 3.872 90.0939 4.288C90.4859 4.696 90.6819 5.276 90.6819 6.028V10H89.7219V6.196C89.7219 5.628 89.5979 5.208 89.3499 4.936C89.1019 4.656 88.7379 4.516 88.2579 4.516C88.0659 4.516 87.8779 4.54 87.6939 4.588C87.5099 4.636 87.3459 4.708 87.2019 4.804C87.0579 4.9 86.9419 5.024 86.8539 5.176C86.7659 5.328 86.7219 5.504 86.7219 5.704V10H85.7619ZM95.6813 10C95.2093 10 94.8613 9.868 94.6373 9.604C94.4213 9.34 94.3133 9 94.3133 8.584V4.624H92.2493V3.808H93.7853C93.9933 3.808 94.1373 3.768 94.2173 3.688C94.3053 3.6 94.3493 3.452 94.3493 3.244V1.624H95.2733V3.808H98.0933V4.624H95.2733V9.184H98.0933V10H95.6813ZM101.437 6.268C101.437 5.684 101.501 5.124 101.629 4.588C101.765 4.044 101.945 3.54 102.169 3.076C102.401 2.612 102.669 2.196 102.973 1.828C103.277 1.452 103.597 1.136 103.933 0.879999H104.905C104.553 1.144 104.221 1.452 103.909 1.804C103.605 2.148 103.333 2.528 103.093 2.944C102.861 3.352 102.677 3.796 102.541 4.276C102.405 4.748 102.337 5.24 102.337 5.752V6.784C102.337 7.296 102.405 7.792 102.541 8.272C102.677 8.744 102.861 9.188 103.093 9.604C103.333 10.012 103.605 10.388 103.909 10.732C104.221 11.084 104.553 11.392 104.905 11.656H103.933C103.597 11.408 103.277 11.096 102.973 10.72C102.669 10.344 102.401 9.924 102.169 9.46C101.945 8.996 101.765 8.496 101.629 7.96C101.501 7.416 101.437 6.852 101.437 6.268ZM108.536 1.12H109.34L108.704 4.444H107.156L108.536 1.12ZM111.404 1.12H112.208L111.572 4.444H110.024L111.404 1.12ZM118.023 6.496H115.911V10H114.099V1.624H115.911V5.02H118.023V1.624H119.835V10H118.023V6.496ZM125.723 3.808H127.535L124.619 10.996C124.435 11.452 124.191 11.8 123.887 12.04C123.583 12.28 123.167 12.4 122.639 12.4H121.415V11.02H122.903L123.287 9.964L120.791 3.808H122.699L123.599 6.412L124.163 8.212H124.259L124.799 6.412L125.723 3.808ZM128.55 10V8.524L131.994 5.188H128.67V3.808H134.046V5.284L130.602 8.62H134.166V10H128.55ZM138.721 10.144C137.681 10.144 136.893 9.856 136.357 9.28C135.821 8.704 135.553 7.92 135.553 6.928C135.553 6.424 135.621 5.972 135.757 5.572C135.901 5.164 136.101 4.82 136.357 4.54C136.621 4.252 136.937 4.036 137.305 3.892C137.681 3.74 138.101 3.664 138.565 3.664C139.029 3.664 139.445 3.74 139.813 3.892C140.181 4.036 140.493 4.244 140.749 4.516C141.005 4.788 141.201 5.12 141.337 5.512C141.481 5.896 141.553 6.328 141.553 6.808V7.336H137.317V7.444C137.317 7.844 137.441 8.168 137.689 8.416C137.937 8.656 138.301 8.776 138.781 8.776C139.149 8.776 139.465 8.708 139.729 8.572C139.993 8.428 140.221 8.24 140.413 8.008L141.373 9.052C141.133 9.348 140.797 9.604 140.365 9.82C139.933 10.036 139.385 10.144 138.721 10.144ZM138.577 4.936C138.193 4.936 137.885 5.056 137.653 5.296C137.429 5.528 137.317 5.844 137.317 6.244V6.34H139.813V6.244C139.813 5.836 139.701 5.516 139.477 5.284C139.261 5.052 138.961 4.936 138.577 4.936ZM143.036 8.62H144.464V5.188H143.036V3.808H146.24V5.56H146.324C146.38 5.336 146.456 5.12 146.552 4.912C146.656 4.696 146.784 4.508 146.936 4.348C147.096 4.18 147.288 4.048 147.512 3.952C147.736 3.856 148 3.808 148.304 3.808H148.892V5.44H147.572C147.132 5.44 146.8 5.572 146.576 5.836C146.352 6.092 146.24 6.408 146.24 6.784V8.62H148.28V10H143.036V8.62ZM152.944 10.144C152.464 10.144 152.032 10.072 151.648 9.928C151.264 9.776 150.936 9.56 150.664 9.28C150.4 9 150.196 8.66 150.052 8.26C149.908 7.86 149.836 7.408 149.836 6.904C149.836 6.4 149.908 5.948 150.052 5.548C150.196 5.148 150.4 4.808 150.664 4.528C150.936 4.248 151.264 4.036 151.648 3.892C152.032 3.74 152.464 3.664 152.944 3.664C153.424 3.664 153.856 3.74 154.24 3.892C154.624 4.036 154.948 4.248 155.212 4.528C155.484 4.808 155.692 5.148 155.836 5.548C155.98 5.948 156.052 6.4 156.052 6.904C156.052 7.408 155.98 7.86 155.836 8.26C155.692 8.66 155.484 9 155.212 9.28C154.948 9.56 154.624 9.776 154.24 9.928C153.856 10.072 153.424 10.144 152.944 10.144ZM152.944 8.824C153.344 8.824 153.656 8.7 153.88 8.452C154.104 8.204 154.216 7.852 154.216 7.396V6.412C154.216 5.956 154.104 5.604 153.88 5.356C153.656 5.108 153.344 4.984 152.944 4.984C152.544 4.984 152.232 5.108 152.008 5.356C151.784 5.604 151.672 5.956 151.672 6.412V7.396C151.672 7.852 151.784 8.204 152.008 8.452C152.232 8.7 152.544 8.824 152.944 8.824ZM158.495 1.12H160.043L158.663 4.444H157.859L158.495 1.12ZM161.363 1.12H162.911L161.531 4.444H160.727L161.363 1.12ZM168.474 6.268C168.474 6.852 168.406 7.416 168.27 7.96C168.142 8.496 167.962 8.996 167.73 9.46C167.506 9.924 167.242 10.344 166.938 10.72C166.634 11.096 166.314 11.408 165.978 11.656H165.006C165.35 11.392 165.678 11.084 165.99 10.732C166.302 10.388 166.574 10.012 166.806 9.604C167.046 9.188 167.234 8.744 167.37 8.272C167.506 7.792 167.574 7.296 167.574 6.784V5.752C167.574 5.24 167.506 4.748 167.37 4.276C167.234 3.796 167.046 3.352 166.806 2.944C166.574 2.528 166.302 2.148 165.99 1.804C165.678 1.452 165.35 1.144 165.006 0.879999H165.978C166.314 1.136 166.634 1.452 166.938 1.828C167.242 2.196 167.506 2.612 167.73 3.076C167.962 3.54 168.142 4.044 168.27 4.588C168.406 5.124 168.474 5.684 168.474 6.268ZM174.014 8.368H175.562L174.182 11.692H173.378L174.014 8.368ZM174.53 5.356C174.202 5.356 173.97 5.288 173.834 5.152C173.706 5.016 173.642 4.844 173.642 4.636V4.42C173.642 4.212 173.706 4.04 173.834 3.904C173.97 3.768 174.202 3.7 174.53 3.7C174.858 3.7 175.086 3.768 175.214 3.904C175.35 4.04 175.418 4.212 175.418 4.42V4.636C175.418 4.844 175.35 5.016 175.214 5.152C175.086 5.288 174.858 5.356 174.53 5.356ZM100.117 19.808H101.077V20.816H101.125C101.525 20.048 102.161 19.664 103.033 19.664C103.793 19.664 104.385 19.948 104.809 20.516C105.241 21.084 105.457 21.88 105.457 22.904C105.457 23.928 105.241 24.724 104.809 25.292C104.385 25.86 103.793 26.144 103.033 26.144C102.161 26.144 101.525 25.76 101.125 24.992H101.077V28.4H100.117V19.808ZM102.661 25.292C103.221 25.292 103.653 25.124 103.957 24.788C104.269 24.444 104.425 23.992 104.425 23.432V22.376C104.425 21.816 104.269 21.368 103.957 21.032C103.653 20.688 103.221 20.516 102.661 20.516C102.445 20.516 102.241 20.544 102.049 20.6C101.857 20.656 101.689 20.74 101.545 20.852C101.401 20.956 101.285 21.088 101.197 21.248C101.117 21.4 101.077 21.58 101.077 21.788V24.02C101.077 24.228 101.117 24.412 101.197 24.572C101.285 24.724 101.401 24.856 101.545 24.968C101.689 25.072 101.857 25.152 102.049 25.208C102.241 25.264 102.445 25.292 102.661 25.292ZM107.096 25.184H108.908V20.624H107.096V19.808H109.868V21.368H109.928C110.056 20.88 110.296 20.5 110.648 20.228C111.008 19.948 111.464 19.808 112.016 19.808H112.88V20.768H111.716C111.164 20.768 110.716 20.928 110.372 21.248C110.036 21.568 109.868 21.988 109.868 22.508V25.184H112.268V26H107.096V25.184ZM117.351 18.44C117.071 18.44 116.875 18.384 116.763 18.272C116.651 18.152 116.595 18.004 116.595 17.828V17.636C116.595 17.46 116.651 17.316 116.763 17.204C116.875 17.084 117.071 17.024 117.351 17.024C117.631 17.024 117.827 17.084 117.939 17.204C118.051 17.316 118.107 17.46 118.107 17.636V17.828C118.107 18.004 118.051 18.152 117.939 18.272C117.827 18.384 117.631 18.44 117.351 18.44ZM114.639 25.184H116.871V20.624H114.639V19.808H117.831V25.184H119.919V26H114.639V25.184ZM121.739 26V19.808H122.699V20.816H122.747C122.811 20.664 122.891 20.52 122.987 20.384C123.083 20.24 123.199 20.116 123.335 20.012C123.479 19.908 123.647 19.824 123.839 19.76C124.031 19.696 124.255 19.664 124.511 19.664C125.159 19.664 125.679 19.872 126.071 20.288C126.463 20.696 126.659 21.276 126.659 22.028V26H125.699V22.196C125.699 21.628 125.575 21.208 125.327 20.936C125.079 20.656 124.715 20.516 124.235 20.516C124.043 20.516 123.855 20.54 123.671 20.588C123.487 20.636 123.323 20.708 123.179 20.804C123.035 20.9 122.919 21.024 122.831 21.176C122.743 21.328 122.699 21.504 122.699 21.704V26H121.739ZM131.658 26C131.186 26 130.838 25.868 130.614 25.604C130.398 25.34 130.29 25 130.29 24.584V20.624H128.226V19.808H129.762C129.97 19.808 130.114 19.768 130.194 19.688C130.282 19.6 130.326 19.452 130.326 19.244V17.624H131.25V19.808H134.07V20.624H131.25V25.184H134.07V26H131.658ZM137.413 22.268C137.413 21.684 137.477 21.124 137.605 20.588C137.741 20.044 137.921 19.54 138.145 19.076C138.377 18.612 138.645 18.196 138.949 17.828C139.253 17.452 139.573 17.136 139.909 16.88H140.881C140.529 17.144 140.197 17.452 139.885 17.804C139.581 18.148 139.309 18.528 139.069 18.944C138.837 19.352 138.653 19.796 138.517 20.276C138.381 20.748 138.313 21.24 138.313 21.752V22.784C138.313 23.296 138.381 23.792 138.517 24.272C138.653 24.744 138.837 25.188 139.069 25.604C139.309 26.012 139.581 26.388 139.885 26.732C140.197 27.084 140.529 27.392 140.881 27.656H139.909C139.573 27.408 139.253 27.096 138.949 26.72C138.645 26.344 138.377 25.924 138.145 25.46C137.921 24.996 137.741 24.496 137.605 23.96C137.477 23.416 137.413 22.852 137.413 22.268ZM144.512 17.12H145.316L144.68 20.444H143.132L144.512 17.12ZM147.38 17.12H148.184L147.548 20.444H146L147.38 17.12ZM151.744 20.432H151.612V26H150.076V17.624H152.236L154.144 23.192H154.276V17.624H155.812V26H153.652L151.744 20.432ZM160.307 26.144C159.267 26.144 158.479 25.856 157.943 25.28C157.407 24.704 157.139 23.92 157.139 22.928C157.139 22.424 157.207 21.972 157.343 21.572C157.487 21.164 157.687 20.82 157.943 20.54C158.207 20.252 158.523 20.036 158.891 19.892C159.267 19.74 159.687 19.664 160.151 19.664C160.615 19.664 161.031 19.74 161.399 19.892C161.767 20.036 162.079 20.244 162.335 20.516C162.591 20.788 162.787 21.12 162.923 21.512C163.067 21.896 163.139 22.328 163.139 22.808V23.336H158.903V23.444C158.903 23.844 159.027 24.168 159.275 24.416C159.523 24.656 159.887 24.776 160.367 24.776C160.735 24.776 161.051 24.708 161.315 24.572C161.579 24.428 161.807 24.24 161.999 24.008L162.959 25.052C162.719 25.348 162.383 25.604 161.951 25.82C161.519 26.036 160.971 26.144 160.307 26.144ZM160.163 20.936C159.779 20.936 159.471 21.056 159.239 21.296C159.015 21.528 158.903 21.844 158.903 22.244V22.34H161.399V22.244C161.399 21.836 161.287 21.516 161.063 21.284C160.847 21.052 160.547 20.936 160.163 20.936ZM163.818 19.808H165.294L165.738 24.824H165.858L166.59 19.808H168.15L168.87 24.824H168.99L169.446 19.808H170.85L170.118 26H168.006L167.394 21.728H167.274L166.662 26H164.55L163.818 19.808ZM179.037 26V17.624H182.277C182.685 17.624 183.049 17.688 183.369 17.816C183.689 17.936 183.957 18.112 184.173 18.344C184.397 18.576 184.565 18.856 184.677 19.184C184.789 19.512 184.845 19.88 184.845 20.288C184.845 20.696 184.789 21.064 184.677 21.392C184.565 21.72 184.397 22 184.173 22.232C183.957 22.464 183.689 22.644 183.369 22.772C183.049 22.892 182.685 22.952 182.277 22.952H180.849V26H179.037ZM180.849 21.5H181.821C182.245 21.5 182.537 21.42 182.697 21.26C182.865 21.1 182.949 20.836 182.949 20.468V20.108C182.949 19.74 182.865 19.476 182.697 19.316C182.537 19.156 182.245 19.076 181.821 19.076H180.849V21.5ZM186.208 24.62H187.636V21.188H186.208V19.808H189.412V21.56H189.496C189.552 21.336 189.628 21.12 189.724 20.912C189.828 20.696 189.956 20.508 190.108 20.348C190.268 20.18 190.46 20.048 190.684 19.952C190.908 19.856 191.172 19.808 191.476 19.808H192.064V21.44H190.744C190.304 21.44 189.972 21.572 189.748 21.836C189.524 22.092 189.412 22.408 189.412 22.784V24.62H191.452V26H186.208V24.62ZM196.116 26.144C195.636 26.144 195.204 26.072 194.82 25.928C194.436 25.776 194.108 25.56 193.836 25.28C193.572 25 193.368 24.66 193.224 24.26C193.08 23.86 193.008 23.408 193.008 22.904C193.008 22.4 193.08 21.948 193.224 21.548C193.368 21.148 193.572 20.808 193.836 20.528C194.108 20.248 194.436 20.036 194.82 19.892C195.204 19.74 195.636 19.664 196.116 19.664C196.596 19.664 197.028 19.74 197.412 19.892C197.796 20.036 198.12 20.248 198.384 20.528C198.656 20.808 198.864 21.148 199.008 21.548C199.152 21.948 199.224 22.4 199.224 22.904C199.224 23.408 199.152 23.86 199.008 24.26C198.864 24.66 198.656 25 198.384 25.28C198.12 25.56 197.796 25.776 197.412 25.928C197.028 26.072 196.596 26.144 196.116 26.144ZM196.116 24.824C196.516 24.824 196.828 24.7 197.052 24.452C197.276 24.204 197.388 23.852 197.388 23.396V22.412C197.388 21.956 197.276 21.604 197.052 21.356C196.828 21.108 196.516 20.984 196.116 20.984C195.716 20.984 195.404 21.108 195.18 21.356C194.956 21.604 194.844 21.956 194.844 22.412V23.396C194.844 23.852 194.956 24.204 195.18 24.452C195.404 24.7 195.716 24.824 196.116 24.824ZM206.707 26.624C206.707 27.28 206.431 27.764 205.879 28.076C205.327 28.388 204.459 28.544 203.275 28.544C202.683 28.544 202.195 28.508 201.811 28.436C201.427 28.372 201.119 28.276 200.887 28.148C200.663 28.02 200.503 27.868 200.407 27.692C200.319 27.516 200.275 27.324 200.275 27.116C200.275 26.764 200.379 26.496 200.587 26.312C200.795 26.136 201.087 26 201.463 25.904V25.832C201.199 25.752 200.987 25.64 200.827 25.496C200.675 25.344 200.599 25.132 200.599 24.86C200.599 24.556 200.699 24.332 200.899 24.188C201.107 24.044 201.379 23.932 201.715 23.852V23.78C201.347 23.604 201.059 23.356 200.851 23.036C200.651 22.716 200.551 22.328 200.551 21.872C200.551 21.512 200.615 21.196 200.743 20.924C200.871 20.644 201.051 20.412 201.283 20.228C201.523 20.044 201.807 19.904 202.135 19.808C202.463 19.712 202.831 19.664 203.239 19.664C203.631 19.664 203.995 19.708 204.331 19.796V19.46C204.331 19.22 204.415 19.02 204.583 18.86C204.751 18.7 204.983 18.62 205.279 18.62H206.371V19.916H204.883V20.024C205.219 20.2 205.479 20.444 205.663 20.756C205.855 21.06 205.951 21.432 205.951 21.872C205.951 22.232 205.887 22.548 205.759 22.82C205.631 23.092 205.447 23.324 205.207 23.516C204.967 23.7 204.679 23.84 204.343 23.936C204.015 24.032 203.647 24.08 203.239 24.08C203.055 24.08 202.879 24.072 202.711 24.056C202.543 24.032 202.383 24 202.231 23.96C202.143 24.008 202.067 24.068 202.003 24.14C201.947 24.212 201.919 24.304 201.919 24.416C201.919 24.512 201.943 24.588 201.991 24.644C202.039 24.7 202.103 24.744 202.183 24.776C202.271 24.8 202.371 24.816 202.483 24.824C202.595 24.832 202.711 24.836 202.831 24.836H204.247C204.687 24.836 205.063 24.88 205.375 24.968C205.687 25.056 205.943 25.18 206.143 25.34C206.343 25.5 206.487 25.688 206.575 25.904C206.663 26.12 206.707 26.36 206.707 26.624ZM205.027 26.756C205.027 26.596 204.963 26.468 204.835 26.372C204.707 26.284 204.463 26.24 204.103 26.24H201.979C201.819 26.376 201.739 26.544 201.739 26.744C201.739 26.936 201.819 27.092 201.979 27.212C202.147 27.34 202.427 27.404 202.819 27.404H203.863C204.271 27.404 204.567 27.348 204.751 27.236C204.935 27.124 205.027 26.964 205.027 26.756ZM203.239 22.952C203.599 22.952 203.859 22.864 204.019 22.688C204.187 22.512 204.271 22.288 204.271 22.016V21.728C204.271 21.456 204.187 21.232 204.019 21.056C203.859 20.88 203.599 20.792 203.239 20.792C202.887 20.792 202.631 20.88 202.471 21.056C202.311 21.232 202.231 21.456 202.231 21.728V22.016C202.231 22.288 202.311 22.512 202.471 22.688C202.631 22.864 202.887 22.952 203.239 22.952ZM207.794 24.62H209.222V21.188H207.794V19.808H210.998V21.56H211.082C211.138 21.336 211.214 21.12 211.31 20.912C211.414 20.696 211.542 20.508 211.694 20.348C211.854 20.18 212.046 20.048 212.27 19.952C212.494 19.856 212.758 19.808 213.062 19.808H213.65V21.44H212.33C211.89 21.44 211.558 21.572 211.334 21.836C211.11 22.092 210.998 22.408 210.998 22.784V24.62H213.038V26H207.794V24.62ZM219.946 26C219.578 26 219.282 25.908 219.058 25.724C218.834 25.532 218.702 25.26 218.662 24.908H218.602C218.49 25.316 218.266 25.624 217.93 25.832C217.602 26.04 217.198 26.144 216.718 26.144C216.118 26.144 215.634 25.984 215.266 25.664C214.906 25.336 214.726 24.88 214.726 24.296C214.726 23.648 214.962 23.168 215.434 22.856C215.906 22.544 216.598 22.388 217.51 22.388H218.506V22.076C218.506 21.708 218.418 21.432 218.242 21.248C218.074 21.056 217.786 20.96 217.378 20.96C217.002 20.96 216.698 21.032 216.466 21.176C216.234 21.32 216.034 21.508 215.866 21.74L214.894 20.876C215.102 20.524 215.426 20.236 215.866 20.012C216.314 19.78 216.886 19.664 217.582 19.664C218.43 19.664 219.09 19.86 219.562 20.252C220.042 20.636 220.282 21.22 220.282 22.004V24.716H220.966V26H219.946ZM217.39 24.98C217.702 24.98 217.966 24.904 218.182 24.752C218.398 24.6 218.506 24.38 218.506 24.092V23.348H217.558C216.83 23.348 216.466 23.592 216.466 24.08V24.32C216.466 24.536 216.55 24.7 216.718 24.812C216.886 24.924 217.11 24.98 217.39 24.98ZM221.657 26V19.808H223.085V20.72H223.169C223.265 20.432 223.401 20.184 223.577 19.976C223.761 19.768 224.017 19.664 224.345 19.664C224.945 19.664 225.313 20.016 225.449 20.72H225.521C225.569 20.576 225.629 20.44 225.701 20.312C225.773 20.184 225.861 20.072 225.965 19.976C226.069 19.88 226.193 19.804 226.337 19.748C226.481 19.692 226.649 19.664 226.841 19.664C227.705 19.664 228.137 20.3 228.137 21.572V26H226.709V21.752C226.709 21.464 226.657 21.264 226.553 21.152C226.457 21.032 226.329 20.972 226.169 20.972C226.017 20.972 225.885 21.024 225.773 21.128C225.669 21.224 225.617 21.376 225.617 21.584V26H224.177V21.752C224.177 21.464 224.129 21.264 224.033 21.152C223.945 21.032 223.821 20.972 223.661 20.972C223.501 20.972 223.365 21.024 223.253 21.128C223.141 21.224 223.085 21.376 223.085 21.584V26H221.657ZM228.852 26V19.808H230.28V20.72H230.364C230.46 20.432 230.596 20.184 230.772 19.976C230.956 19.768 231.212 19.664 231.54 19.664C232.14 19.664 232.508 20.016 232.644 20.72H232.716C232.764 20.576 232.824 20.44 232.896 20.312C232.968 20.184 233.056 20.072 233.16 19.976C233.264 19.88 233.388 19.804 233.532 19.748C233.676 19.692 233.844 19.664 234.036 19.664C234.9 19.664 235.332 20.3 235.332 21.572V26H233.904V21.752C233.904 21.464 233.852 21.264 233.748 21.152C233.652 21.032 233.524 20.972 233.364 20.972C233.212 20.972 233.08 21.024 232.968 21.128C232.864 21.224 232.812 21.376 232.812 21.584V26H231.372V21.752C231.372 21.464 231.324 21.264 231.228 21.152C231.14 21.032 231.016 20.972 230.856 20.972C230.696 20.972 230.56 21.024 230.448 21.128C230.336 21.224 230.28 21.376 230.28 21.584V26H228.852ZM239.672 19.016C239.272 19.016 238.992 18.936 238.832 18.776C238.68 18.608 238.604 18.408 238.604 18.176V17.828C238.604 17.588 238.68 17.388 238.832 17.228C238.992 17.068 239.272 16.988 239.672 16.988C240.072 16.988 240.348 17.068 240.5 17.228C240.66 17.388 240.74 17.588 240.74 17.828V18.176C240.74 18.408 240.66 18.608 240.5 18.776C240.348 18.936 240.072 19.016 239.672 19.016ZM236.816 24.62H238.784V21.188H236.816V19.808H240.56V24.62H242.384V26H236.816V24.62ZM243.663 26V19.808H245.439V20.936H245.511C245.583 20.76 245.671 20.596 245.775 20.444C245.879 20.292 246.003 20.16 246.147 20.048C246.299 19.928 246.471 19.836 246.663 19.772C246.863 19.7 247.087 19.664 247.335 19.664C247.631 19.664 247.903 19.716 248.151 19.82C248.399 19.916 248.611 20.064 248.787 20.264C248.963 20.464 249.099 20.708 249.195 20.996C249.299 21.284 249.351 21.616 249.351 21.992V26H247.575V22.232C247.575 21.432 247.227 21.032 246.531 21.032C246.395 21.032 246.259 21.052 246.123 21.092C245.995 21.124 245.879 21.18 245.775 21.26C245.671 21.332 245.587 21.424 245.523 21.536C245.467 21.648 245.439 21.78 245.439 21.932V26H243.663ZM257.074 26.624C257.074 27.28 256.798 27.764 256.246 28.076C255.694 28.388 254.826 28.544 253.642 28.544C253.05 28.544 252.562 28.508 252.178 28.436C251.794 28.372 251.486 28.276 251.254 28.148C251.03 28.02 250.87 27.868 250.774 27.692C250.686 27.516 250.642 27.324 250.642 27.116C250.642 26.764 250.746 26.496 250.954 26.312C251.162 26.136 251.454 26 251.83 25.904V25.832C251.566 25.752 251.354 25.64 251.194 25.496C251.042 25.344 250.966 25.132 250.966 24.86C250.966 24.556 251.066 24.332 251.266 24.188C251.474 24.044 251.746 23.932 252.082 23.852V23.78C251.714 23.604 251.426 23.356 251.218 23.036C251.018 22.716 250.918 22.328 250.918 21.872C250.918 21.512 250.982 21.196 251.11 20.924C251.238 20.644 251.418 20.412 251.65 20.228C251.89 20.044 252.174 19.904 252.502 19.808C252.83 19.712 253.198 19.664 253.606 19.664C253.998 19.664 254.362 19.708 254.698 19.796V19.46C254.698 19.22 254.782 19.02 254.95 18.86C255.118 18.7 255.35 18.62 255.646 18.62H256.738V19.916H255.25V20.024C255.586 20.2 255.846 20.444 256.03 20.756C256.222 21.06 256.318 21.432 256.318 21.872C256.318 22.232 256.254 22.548 256.126 22.82C255.998 23.092 255.814 23.324 255.574 23.516C255.334 23.7 255.046 23.84 254.71 23.936C254.382 24.032 254.014 24.08 253.606 24.08C253.422 24.08 253.246 24.072 253.078 24.056C252.91 24.032 252.75 24 252.598 23.96C252.51 24.008 252.434 24.068 252.37 24.14C252.314 24.212 252.286 24.304 252.286 24.416C252.286 24.512 252.31 24.588 252.358 24.644C252.406 24.7 252.47 24.744 252.55 24.776C252.638 24.8 252.738 24.816 252.85 24.824C252.962 24.832 253.078 24.836 253.198 24.836H254.614C255.054 24.836 255.43 24.88 255.742 24.968C256.054 25.056 256.31 25.18 256.51 25.34C256.71 25.5 256.854 25.688 256.942 25.904C257.03 26.12 257.074 26.36 257.074 26.624ZM255.394 26.756C255.394 26.596 255.33 26.468 255.202 26.372C255.074 26.284 254.83 26.24 254.47 26.24H252.346C252.186 26.376 252.106 26.544 252.106 26.744C252.106 26.936 252.186 27.092 252.346 27.212C252.514 27.34 252.794 27.404 253.186 27.404H254.23C254.638 27.404 254.934 27.348 255.118 27.236C255.302 27.124 255.394 26.964 255.394 26.756ZM253.606 22.952C253.966 22.952 254.226 22.864 254.386 22.688C254.554 22.512 254.638 22.288 254.638 22.016V21.728C254.638 21.456 254.554 21.232 254.386 21.056C254.226 20.88 253.966 20.792 253.606 20.792C253.254 20.792 252.998 20.88 252.838 21.056C252.678 21.232 252.598 21.456 252.598 21.728V22.016C252.598 22.288 252.678 22.512 252.838 22.688C252.998 22.864 253.254 22.952 253.606 22.952ZM265.573 26V17.624H267.385V24.524H270.985V26H265.573ZM277.508 26C277.14 26 276.844 25.908 276.62 25.724C276.396 25.532 276.264 25.26 276.224 24.908H276.164C276.052 25.316 275.828 25.624 275.492 25.832C275.164 26.04 274.76 26.144 274.28 26.144C273.68 26.144 273.196 25.984 272.828 25.664C272.468 25.336 272.288 24.88 272.288 24.296C272.288 23.648 272.524 23.168 272.996 22.856C273.468 22.544 274.16 22.388 275.072 22.388H276.068V22.076C276.068 21.708 275.98 21.432 275.804 21.248C275.636 21.056 275.348 20.96 274.94 20.96C274.564 20.96 274.26 21.032 274.028 21.176C273.796 21.32 273.596 21.508 273.428 21.74L272.456 20.876C272.664 20.524 272.988 20.236 273.428 20.012C273.876 19.78 274.448 19.664 275.144 19.664C275.992 19.664 276.652 19.86 277.124 20.252C277.604 20.636 277.844 21.22 277.844 22.004V24.716H278.528V26H277.508ZM274.952 24.98C275.264 24.98 275.528 24.904 275.744 24.752C275.96 24.6 276.068 24.38 276.068 24.092V23.348H275.12C274.392 23.348 274.028 23.592 274.028 24.08V24.32C274.028 24.536 274.112 24.7 274.28 24.812C274.448 24.924 274.672 24.98 274.952 24.98ZM279.639 26V19.808H281.415V20.936H281.487C281.559 20.76 281.647 20.596 281.751 20.444C281.855 20.292 281.979 20.16 282.123 20.048C282.275 19.928 282.447 19.836 282.639 19.772C282.839 19.7 283.063 19.664 283.311 19.664C283.607 19.664 283.879 19.716 284.127 19.82C284.375 19.916 284.587 20.064 284.763 20.264C284.939 20.464 285.075 20.708 285.171 20.996C285.275 21.284 285.327 21.616 285.327 21.992V26H283.551V22.232C283.551 21.432 283.203 21.032 282.507 21.032C282.371 21.032 282.235 21.052 282.099 21.092C281.971 21.124 281.855 21.18 281.751 21.26C281.647 21.332 281.563 21.424 281.499 21.536C281.443 21.648 281.415 21.78 281.415 21.932V26H279.639ZM293.051 26.624C293.051 27.28 292.775 27.764 292.223 28.076C291.671 28.388 290.803 28.544 289.619 28.544C289.027 28.544 288.539 28.508 288.155 28.436C287.771 28.372 287.463 28.276 287.231 28.148C287.007 28.02 286.847 27.868 286.751 27.692C286.663 27.516 286.619 27.324 286.619 27.116C286.619 26.764 286.723 26.496 286.931 26.312C287.139 26.136 287.431 26 287.807 25.904V25.832C287.543 25.752 287.331 25.64 287.171 25.496C287.019 25.344 286.943 25.132 286.943 24.86C286.943 24.556 287.043 24.332 287.243 24.188C287.451 24.044 287.723 23.932 288.059 23.852V23.78C287.691 23.604 287.403 23.356 287.195 23.036C286.995 22.716 286.895 22.328 286.895 21.872C286.895 21.512 286.959 21.196 287.087 20.924C287.215 20.644 287.395 20.412 287.627 20.228C287.867 20.044 288.151 19.904 288.479 19.808C288.807 19.712 289.175 19.664 289.583 19.664C289.975 19.664 290.339 19.708 290.675 19.796V19.46C290.675 19.22 290.759 19.02 290.927 18.86C291.095 18.7 291.327 18.62 291.623 18.62H292.715V19.916H291.227V20.024C291.563 20.2 291.823 20.444 292.007 20.756C292.199 21.06 292.295 21.432 292.295 21.872C292.295 22.232 292.231 22.548 292.103 22.82C291.975 23.092 291.791 23.324 291.551 23.516C291.311 23.7 291.023 23.84 290.687 23.936C290.359 24.032 289.991 24.08 289.583 24.08C289.399 24.08 289.223 24.072 289.055 24.056C288.887 24.032 288.727 24 288.575 23.96C288.487 24.008 288.411 24.068 288.347 24.14C288.291 24.212 288.263 24.304 288.263 24.416C288.263 24.512 288.287 24.588 288.335 24.644C288.383 24.7 288.447 24.744 288.527 24.776C288.615 24.8 288.715 24.816 288.827 24.824C288.939 24.832 289.055 24.836 289.175 24.836H290.591C291.031 24.836 291.407 24.88 291.719 24.968C292.031 25.056 292.287 25.18 292.487 25.34C292.687 25.5 292.831 25.688 292.919 25.904C293.007 26.12 293.051 26.36 293.051 26.624ZM291.371 26.756C291.371 26.596 291.307 26.468 291.179 26.372C291.051 26.284 290.807 26.24 290.447 26.24H288.323C288.163 26.376 288.083 26.544 288.083 26.744C288.083 26.936 288.163 27.092 288.323 27.212C288.491 27.34 288.771 27.404 289.163 27.404H290.207C290.615 27.404 290.911 27.348 291.095 27.236C291.279 27.124 291.371 26.964 291.371 26.756ZM289.583 22.952C289.943 22.952 290.203 22.864 290.363 22.688C290.531 22.512 290.615 22.288 290.615 22.016V21.728C290.615 21.456 290.531 21.232 290.363 21.056C290.203 20.88 289.943 20.792 289.583 20.792C289.231 20.792 288.975 20.88 288.815 21.056C288.655 21.232 288.575 21.456 288.575 21.728V22.016C288.575 22.288 288.655 22.512 288.815 22.688C288.975 22.864 289.231 22.952 289.583 22.952ZM297.894 24.872H297.822C297.686 25.224 297.47 25.524 297.174 25.772C296.886 26.02 296.494 26.144 295.998 26.144C295.702 26.144 295.43 26.096 295.182 26C294.934 25.896 294.722 25.744 294.546 25.544C294.37 25.344 294.23 25.1 294.126 24.812C294.03 24.524 293.982 24.192 293.982 23.816V19.808H295.758V23.576C295.758 24.376 296.106 24.776 296.802 24.776C296.938 24.776 297.07 24.76 297.198 24.728C297.334 24.688 297.45 24.632 297.546 24.56C297.65 24.48 297.734 24.384 297.798 24.272C297.862 24.16 297.894 24.028 297.894 23.876V19.808H299.67V26H297.894V24.872ZM306.289 26C305.921 26 305.625 25.908 305.401 25.724C305.177 25.532 305.045 25.26 305.005 24.908H304.945C304.833 25.316 304.609 25.624 304.273 25.832C303.945 26.04 303.541 26.144 303.061 26.144C302.461 26.144 301.977 25.984 301.609 25.664C301.249 25.336 301.069 24.88 301.069 24.296C301.069 23.648 301.305 23.168 301.777 22.856C302.249 22.544 302.941 22.388 303.853 22.388H304.849V22.076C304.849 21.708 304.761 21.432 304.585 21.248C304.417 21.056 304.129 20.96 303.721 20.96C303.345 20.96 303.041 21.032 302.809 21.176C302.577 21.32 302.377 21.508 302.209 21.74L301.237 20.876C301.445 20.524 301.769 20.236 302.209 20.012C302.657 19.78 303.229 19.664 303.925 19.664C304.773 19.664 305.433 19.86 305.905 20.252C306.385 20.636 306.625 21.22 306.625 22.004V24.716H307.309V26H306.289ZM303.733 24.98C304.045 24.98 304.309 24.904 304.525 24.752C304.741 24.6 304.849 24.38 304.849 24.092V23.348H303.901C303.173 23.348 302.809 23.592 302.809 24.08V24.32C302.809 24.536 302.893 24.7 303.061 24.812C303.229 24.924 303.453 24.98 303.733 24.98ZM314.637 26.624C314.637 27.28 314.361 27.764 313.809 28.076C313.257 28.388 312.389 28.544 311.205 28.544C310.613 28.544 310.125 28.508 309.741 28.436C309.357 28.372 309.049 28.276 308.817 28.148C308.593 28.02 308.433 27.868 308.337 27.692C308.249 27.516 308.205 27.324 308.205 27.116C308.205 26.764 308.309 26.496 308.517 26.312C308.725 26.136 309.017 26 309.393 25.904V25.832C309.129 25.752 308.917 25.64 308.757 25.496C308.605 25.344 308.529 25.132 308.529 24.86C308.529 24.556 308.629 24.332 308.829 24.188C309.037 24.044 309.309 23.932 309.645 23.852V23.78C309.277 23.604 308.989 23.356 308.781 23.036C308.581 22.716 308.481 22.328 308.481 21.872C308.481 21.512 308.545 21.196 308.673 20.924C308.801 20.644 308.981 20.412 309.213 20.228C309.453 20.044 309.737 19.904 310.065 19.808C310.393 19.712 310.761 19.664 311.169 19.664C311.561 19.664 311.925 19.708 312.261 19.796V19.46C312.261 19.22 312.345 19.02 312.513 18.86C312.681 18.7 312.913 18.62 313.209 18.62H314.301V19.916H312.813V20.024C313.149 20.2 313.409 20.444 313.593 20.756C313.785 21.06 313.881 21.432 313.881 21.872C313.881 22.232 313.817 22.548 313.689 22.82C313.561 23.092 313.377 23.324 313.137 23.516C312.897 23.7 312.609 23.84 312.273 23.936C311.945 24.032 311.577 24.08 311.169 24.08C310.985 24.08 310.809 24.072 310.641 24.056C310.473 24.032 310.313 24 310.161 23.96C310.073 24.008 309.997 24.068 309.933 24.14C309.877 24.212 309.849 24.304 309.849 24.416C309.849 24.512 309.873 24.588 309.921 24.644C309.969 24.7 310.033 24.744 310.113 24.776C310.201 24.8 310.301 24.816 310.413 24.824C310.525 24.832 310.641 24.836 310.761 24.836H312.177C312.617 24.836 312.993 24.88 313.305 24.968C313.617 25.056 313.873 25.18 314.073 25.34C314.273 25.5 314.417 25.688 314.505 25.904C314.593 26.12 314.637 26.36 314.637 26.624ZM312.957 26.756C312.957 26.596 312.893 26.468 312.765 26.372C312.637 26.284 312.393 26.24 312.033 26.24H309.909C309.749 26.376 309.669 26.544 309.669 26.744C309.669 26.936 309.749 27.092 309.909 27.212C310.077 27.34 310.357 27.404 310.749 27.404H311.793C312.201 27.404 312.497 27.348 312.681 27.236C312.865 27.124 312.957 26.964 312.957 26.756ZM311.169 22.952C311.529 22.952 311.789 22.864 311.949 22.688C312.117 22.512 312.201 22.288 312.201 22.016V21.728C312.201 21.456 312.117 21.232 311.949 21.056C311.789 20.88 311.529 20.792 311.169 20.792C310.817 20.792 310.561 20.88 310.401 21.056C310.241 21.232 310.161 21.456 310.161 21.728V22.016C310.161 22.288 310.241 22.512 310.401 22.688C310.561 22.864 310.817 22.952 311.169 22.952ZM318.604 26.144C317.564 26.144 316.776 25.856 316.24 25.28C315.704 24.704 315.436 23.92 315.436 22.928C315.436 22.424 315.504 21.972 315.64 21.572C315.784 21.164 315.984 20.82 316.24 20.54C316.504 20.252 316.82 20.036 317.188 19.892C317.564 19.74 317.984 19.664 318.448 19.664C318.912 19.664 319.328 19.74 319.696 19.892C320.064 20.036 320.376 20.244 320.632 20.516C320.888 20.788 321.084 21.12 321.22 21.512C321.364 21.896 321.436 22.328 321.436 22.808V23.336H317.2V23.444C317.2 23.844 317.324 24.168 317.572 24.416C317.82 24.656 318.184 24.776 318.664 24.776C319.032 24.776 319.348 24.708 319.612 24.572C319.876 24.428 320.104 24.24 320.296 24.008L321.256 25.052C321.016 25.348 320.68 25.604 320.248 25.82C319.816 26.036 319.268 26.144 318.604 26.144ZM318.46 20.936C318.076 20.936 317.768 21.056 317.536 21.296C317.312 21.528 317.2 21.844 317.2 22.244V22.34H319.696V22.244C319.696 21.836 319.584 21.516 319.36 21.284C319.144 21.052 318.844 20.936 318.46 20.936ZM323.987 17.12H325.535L324.155 20.444H323.351L323.987 17.12ZM326.855 17.12H328.403L327.023 20.444H326.219L326.855 17.12ZM333.967 22.268C333.967 22.852 333.899 23.416 333.763 23.96C333.635 24.496 333.455 24.996 333.223 25.46C332.999 25.924 332.735 26.344 332.431 26.72C332.127 27.096 331.807 27.408 331.471 27.656H330.499C330.843 27.392 331.171 27.084 331.483 26.732C331.795 26.388 332.067 26.012 332.299 25.604C332.539 25.188 332.727 24.744 332.863 24.272C332.999 23.792 333.067 23.296 333.067 22.784V21.752C333.067 21.24 332.999 20.748 332.863 20.276C332.727 19.796 332.539 19.352 332.299 18.944C332.067 18.528 331.795 18.148 331.483 17.804C331.171 17.452 330.843 17.144 330.499 16.88H331.471C331.807 17.136 332.127 17.452 332.431 17.828C332.735 18.196 332.999 18.612 333.223 19.076C333.455 19.54 333.635 20.044 333.763 20.588C333.899 21.124 333.967 21.684 333.967 22.268ZM339.506 24.368H341.054L339.674 27.692H338.87L339.506 24.368ZM340.022 21.356C339.694 21.356 339.462 21.288 339.326 21.152C339.198 21.016 339.134 20.844 339.134 20.636V20.42C339.134 20.212 339.198 20.04 339.326 19.904C339.462 19.768 339.694 19.7 340.022 19.7C340.35 19.7 340.578 19.768 340.706 19.904C340.842 20.04 340.91 20.212 340.91 20.42V20.636C340.91 20.844 340.842 21.016 340.706 21.152C340.578 21.288 340.35 21.356 340.022 21.356ZM136.093 35.808H137.053V36.816H137.101C137.501 36.048 138.137 35.664 139.009 35.664C139.769 35.664 140.361 35.948 140.785 36.516C141.217 37.084 141.433 37.88 141.433 38.904C141.433 39.928 141.217 40.724 140.785 41.292C140.361 41.86 139.769 42.144 139.009 42.144C138.137 42.144 137.501 41.76 137.101 40.992H137.053V44.4H136.093V35.808ZM138.637 41.292C139.197 41.292 139.629 41.124 139.933 40.788C140.245 40.444 140.401 39.992 140.401 39.432V38.376C140.401 37.816 140.245 37.368 139.933 37.032C139.629 36.688 139.197 36.516 138.637 36.516C138.421 36.516 138.217 36.544 138.025 36.6C137.833 36.656 137.665 36.74 137.521 36.852C137.377 36.956 137.261 37.088 137.173 37.248C137.093 37.4 137.053 37.58 137.053 37.788V40.02C137.053 40.228 137.093 40.412 137.173 40.572C137.261 40.724 137.377 40.856 137.521 40.968C137.665 41.072 137.833 41.152 138.025 41.208C138.217 41.264 138.421 41.292 138.637 41.292ZM143.072 41.184H144.884V36.624H143.072V35.808H145.844V37.368H145.904C146.032 36.88 146.272 36.5 146.624 36.228C146.984 35.948 147.44 35.808 147.992 35.808H148.856V36.768H147.692C147.14 36.768 146.692 36.928 146.348 37.248C146.012 37.568 145.844 37.988 145.844 38.508V41.184H148.244V42H143.072V41.184ZM153.328 34.44C153.048 34.44 152.852 34.384 152.74 34.272C152.628 34.152 152.572 34.004 152.572 33.828V33.636C152.572 33.46 152.628 33.316 152.74 33.204C152.852 33.084 153.048 33.024 153.328 33.024C153.608 33.024 153.804 33.084 153.916 33.204C154.028 33.316 154.084 33.46 154.084 33.636V33.828C154.084 34.004 154.028 34.152 153.916 34.272C153.804 34.384 153.608 34.44 153.328 34.44ZM150.616 41.184H152.848V36.624H150.616V35.808H153.808V41.184H155.896V42H150.616V41.184ZM157.715 42V35.808H158.675V36.816H158.723C158.787 36.664 158.867 36.52 158.963 36.384C159.059 36.24 159.175 36.116 159.311 36.012C159.455 35.908 159.623 35.824 159.815 35.76C160.007 35.696 160.231 35.664 160.487 35.664C161.135 35.664 161.655 35.872 162.047 36.288C162.439 36.696 162.635 37.276 162.635 38.028V42H161.675V38.196C161.675 37.628 161.551 37.208 161.303 36.936C161.055 36.656 160.691 36.516 160.211 36.516C160.019 36.516 159.831 36.54 159.647 36.588C159.463 36.636 159.299 36.708 159.155 36.804C159.011 36.9 158.895 37.024 158.807 37.176C158.719 37.328 158.675 37.504 158.675 37.704V42H157.715ZM167.634 42C167.162 42 166.814 41.868 166.59 41.604C166.374 41.34 166.266 41 166.266 40.584V36.624H164.202V35.808H165.738C165.946 35.808 166.09 35.768 166.17 35.688C166.258 35.6 166.302 35.452 166.302 35.244V33.624H167.226V35.808H170.046V36.624H167.226V41.184H170.046V42H167.634ZM173.39 38.268C173.39 37.684 173.454 37.124 173.582 36.588C173.718 36.044 173.898 35.54 174.122 35.076C174.354 34.612 174.622 34.196 174.926 33.828C175.23 33.452 175.55 33.136 175.886 32.88H176.858C176.506 33.144 176.174 33.452 175.862 33.804C175.558 34.148 175.286 34.528 175.046 34.944C174.814 35.352 174.63 35.796 174.494 36.276C174.358 36.748 174.29 37.24 174.29 37.752V38.784C174.29 39.296 174.358 39.792 174.494 40.272C174.63 40.744 174.814 41.188 175.046 41.604C175.286 42.012 175.558 42.388 175.862 42.732C176.174 43.084 176.506 43.392 176.858 43.656H175.886C175.55 43.408 175.23 43.096 174.926 42.72C174.622 42.344 174.354 41.924 174.122 41.46C173.898 40.996 173.718 40.496 173.582 39.96C173.454 39.416 173.39 38.852 173.39 38.268ZM180.489 33.12H181.293L180.657 36.444H179.109L180.489 33.12ZM183.357 33.12H184.161L183.525 36.444H181.977L183.357 33.12ZM189.304 35.016C188.904 35.016 188.624 34.936 188.464 34.776C188.312 34.608 188.236 34.408 188.236 34.176V33.828C188.236 33.588 188.312 33.388 188.464 33.228C188.624 33.068 188.904 32.988 189.304 32.988C189.704 32.988 189.98 33.068 190.132 33.228C190.292 33.388 190.372 33.588 190.372 33.828V34.176C190.372 34.408 190.292 34.608 190.132 34.776C189.98 34.936 189.704 35.016 189.304 35.016ZM186.448 40.62H188.416V37.188H186.448V35.808H190.192V40.62H192.016V42H186.448V40.62ZM193.296 42V35.808H195.072V36.936H195.144C195.216 36.76 195.304 36.596 195.408 36.444C195.512 36.292 195.636 36.16 195.78 36.048C195.932 35.928 196.104 35.836 196.296 35.772C196.496 35.7 196.72 35.664 196.968 35.664C197.264 35.664 197.536 35.716 197.784 35.82C198.032 35.916 198.244 36.064 198.42 36.264C198.596 36.464 198.732 36.708 198.828 36.996C198.932 37.284 198.984 37.616 198.984 37.992V42H197.208V38.232C197.208 37.432 196.86 37.032 196.164 37.032C196.028 37.032 195.892 37.052 195.756 37.092C195.628 37.124 195.512 37.18 195.408 37.26C195.304 37.332 195.22 37.424 195.156 37.536C195.1 37.648 195.072 37.78 195.072 37.932V42H193.296ZM210.986 42C210.346 42 209.87 41.832 209.558 41.496C209.246 41.16 209.09 40.732 209.09 40.212V37.188H207.41V35.808H208.502C208.766 35.808 208.954 35.756 209.066 35.652C209.178 35.548 209.234 35.356 209.234 35.076V33.624H210.866V35.808H213.278V37.188H210.866V40.62H213.278V42H210.986ZM214.882 33.12H216.658V36.936H216.73C216.802 36.76 216.89 36.596 216.994 36.444C217.098 36.292 217.222 36.16 217.366 36.048C217.518 35.928 217.69 35.836 217.882 35.772C218.082 35.7 218.306 35.664 218.554 35.664C218.85 35.664 219.122 35.716 219.37 35.82C219.618 35.916 219.83 36.064 220.006 36.264C220.182 36.464 220.318 36.708 220.414 36.996C220.518 37.284 220.57 37.616 220.57 37.992V42H218.794V38.232C218.794 37.432 218.446 37.032 217.75 37.032C217.614 37.032 217.478 37.052 217.342 37.092C217.214 37.124 217.098 37.18 216.994 37.26C216.89 37.332 216.806 37.424 216.742 37.536C216.686 37.648 216.658 37.78 216.658 37.932V42H214.882V33.12ZM225.065 42.144C224.025 42.144 223.237 41.856 222.701 41.28C222.165 40.704 221.897 39.92 221.897 38.928C221.897 38.424 221.965 37.972 222.101 37.572C222.245 37.164 222.445 36.82 222.701 36.54C222.965 36.252 223.281 36.036 223.649 35.892C224.025 35.74 224.445 35.664 224.909 35.664C225.373 35.664 225.789 35.74 226.157 35.892C226.525 36.036 226.837 36.244 227.093 36.516C227.349 36.788 227.545 37.12 227.681 37.512C227.825 37.896 227.897 38.328 227.897 38.808V39.336H223.661V39.444C223.661 39.844 223.785 40.168 224.033 40.416C224.281 40.656 224.645 40.776 225.125 40.776C225.493 40.776 225.809 40.708 226.073 40.572C226.337 40.428 226.565 40.24 226.757 40.008L227.717 41.052C227.477 41.348 227.141 41.604 226.709 41.82C226.277 42.036 225.729 42.144 225.065 42.144ZM224.921 36.936C224.537 36.936 224.229 37.056 223.997 37.296C223.773 37.528 223.661 37.844 223.661 38.244V38.34H226.157V38.244C226.157 37.836 226.045 37.516 225.821 37.284C225.605 37.052 225.305 36.936 224.921 36.936ZM236.6 42V33.624H239.84C240.248 33.624 240.612 33.688 240.932 33.816C241.252 33.936 241.52 34.112 241.736 34.344C241.96 34.576 242.128 34.856 242.24 35.184C242.352 35.512 242.408 35.88 242.408 36.288C242.408 36.696 242.352 37.064 242.24 37.392C242.128 37.72 241.96 38 241.736 38.232C241.52 38.464 241.252 38.644 240.932 38.772C240.612 38.892 240.248 38.952 239.84 38.952H238.412V42H236.6ZM238.412 37.5H239.384C239.808 37.5 240.1 37.42 240.26 37.26C240.428 37.1 240.512 36.836 240.512 36.468V36.108C240.512 35.74 240.428 35.476 240.26 35.316C240.1 35.156 239.808 35.076 239.384 35.076H238.412V37.5ZM243.663 33.12H245.439V36.936H245.511C245.583 36.76 245.671 36.596 245.775 36.444C245.879 36.292 246.003 36.16 246.147 36.048C246.299 35.928 246.471 35.836 246.663 35.772C246.863 35.7 247.087 35.664 247.335 35.664C247.631 35.664 247.903 35.716 248.151 35.82C248.399 35.916 248.611 36.064 248.787 36.264C248.963 36.464 249.099 36.708 249.195 36.996C249.299 37.284 249.351 37.616 249.351 37.992V42H247.575V38.232C247.575 37.432 247.227 37.032 246.531 37.032C246.395 37.032 246.259 37.052 246.123 37.092C245.995 37.124 245.879 37.18 245.775 37.26C245.671 37.332 245.587 37.424 245.523 37.536C245.467 37.648 245.439 37.78 245.439 37.932V42H243.663V33.12ZM254.062 35.016C253.662 35.016 253.382 34.936 253.222 34.776C253.07 34.608 252.994 34.408 252.994 34.176V33.828C252.994 33.588 253.07 33.388 253.222 33.228C253.382 33.068 253.662 32.988 254.062 32.988C254.462 32.988 254.738 33.068 254.89 33.228C255.05 33.388 255.13 33.588 255.13 33.828V34.176C255.13 34.408 255.05 34.608 254.89 34.776C254.738 34.936 254.462 35.016 254.062 35.016ZM251.206 40.62H253.174V37.188H251.206V35.808H254.95V40.62H256.774V42H251.206V40.62ZM258.089 40.62H259.985V34.5H258.089V33.12H261.761V40.62H263.657V42H258.089V40.62ZM268.453 35.016C268.053 35.016 267.773 34.936 267.613 34.776C267.461 34.608 267.385 34.408 267.385 34.176V33.828C267.385 33.588 267.461 33.388 267.613 33.228C267.773 33.068 268.053 32.988 268.453 32.988C268.853 32.988 269.129 33.068 269.281 33.228C269.441 33.388 269.521 33.588 269.521 33.828V34.176C269.521 34.408 269.441 34.608 269.281 34.776C269.129 34.936 268.853 35.016 268.453 35.016ZM265.597 40.62H267.565V37.188H265.597V35.808H269.341V40.62H271.165V42H265.597V40.62ZM272.372 35.808H274.148V36.936H274.232C274.384 36.568 274.604 36.264 274.892 36.024C275.18 35.784 275.572 35.664 276.068 35.664C276.412 35.664 276.724 35.728 277.004 35.856C277.292 35.984 277.536 36.18 277.736 36.444C277.944 36.708 278.104 37.044 278.216 37.452C278.336 37.86 278.396 38.344 278.396 38.904C278.396 39.464 278.336 39.948 278.216 40.356C278.104 40.764 277.944 41.1 277.736 41.364C277.536 41.628 277.292 41.824 277.004 41.952C276.724 42.08 276.412 42.144 276.068 42.144C275.572 42.144 275.18 42.028 274.892 41.796C274.604 41.556 274.384 41.248 274.232 40.872H274.148V44.4H272.372V35.808ZM275.3 40.764C275.7 40.764 276.008 40.644 276.224 40.404C276.44 40.156 276.548 39.816 276.548 39.384V38.424C276.548 37.992 276.44 37.656 276.224 37.416C276.008 37.168 275.7 37.044 275.3 37.044C274.988 37.044 274.716 37.12 274.484 37.272C274.26 37.424 274.148 37.664 274.148 37.992V39.816C274.148 40.144 274.26 40.384 274.484 40.536C274.716 40.688 274.988 40.764 275.3 40.764ZM279.567 35.808H281.343V36.936H281.427C281.579 36.568 281.799 36.264 282.087 36.024C282.375 35.784 282.767 35.664 283.263 35.664C283.607 35.664 283.919 35.728 284.199 35.856C284.487 35.984 284.731 36.18 284.931 36.444C285.139 36.708 285.299 37.044 285.411 37.452C285.531 37.86 285.591 38.344 285.591 38.904C285.591 39.464 285.531 39.948 285.411 40.356C285.299 40.764 285.139 41.1 284.931 41.364C284.731 41.628 284.487 41.824 284.199 41.952C283.919 42.08 283.607 42.144 283.263 42.144C282.767 42.144 282.375 42.028 282.087 41.796C281.799 41.556 281.579 41.248 281.427 40.872H281.343V44.4H279.567V35.808ZM282.495 40.764C282.895 40.764 283.203 40.644 283.419 40.404C283.635 40.156 283.743 39.816 283.743 39.384V38.424C283.743 37.992 283.635 37.656 283.419 37.416C283.203 37.168 282.895 37.044 282.495 37.044C282.183 37.044 281.911 37.12 281.679 37.272C281.455 37.424 281.343 37.664 281.343 37.992V39.816C281.343 40.144 281.455 40.384 281.679 40.536C281.911 40.688 282.183 40.764 282.495 40.764ZM290.039 35.016C289.639 35.016 289.359 34.936 289.199 34.776C289.047 34.608 288.971 34.408 288.971 34.176V33.828C288.971 33.588 289.047 33.388 289.199 33.228C289.359 33.068 289.639 32.988 290.039 32.988C290.439 32.988 290.715 33.068 290.867 33.228C291.027 33.388 291.107 33.588 291.107 33.828V34.176C291.107 34.408 291.027 34.608 290.867 34.776C290.715 34.936 290.439 35.016 290.039 35.016ZM287.183 40.62H289.151V37.188H287.183V35.808H290.927V40.62H292.751V42H287.183V40.62ZM294.03 42V35.808H295.806V36.936H295.878C295.95 36.76 296.038 36.596 296.142 36.444C296.246 36.292 296.37 36.16 296.514 36.048C296.666 35.928 296.838 35.836 297.03 35.772C297.23 35.7 297.454 35.664 297.702 35.664C297.998 35.664 298.27 35.716 298.518 35.82C298.766 35.916 298.978 36.064 299.154 36.264C299.33 36.464 299.466 36.708 299.562 36.996C299.666 37.284 299.718 37.616 299.718 37.992V42H297.942V38.232C297.942 37.432 297.594 37.032 296.898 37.032C296.762 37.032 296.626 37.052 296.49 37.092C296.362 37.124 296.246 37.18 296.142 37.26C296.038 37.332 295.954 37.424 295.89 37.536C295.834 37.648 295.806 37.78 295.806 37.932V42H294.03ZM304.213 42.144C303.173 42.144 302.385 41.856 301.849 41.28C301.313 40.704 301.045 39.92 301.045 38.928C301.045 38.424 301.113 37.972 301.249 37.572C301.393 37.164 301.593 36.82 301.849 36.54C302.113 36.252 302.429 36.036 302.797 35.892C303.173 35.74 303.593 35.664 304.057 35.664C304.521 35.664 304.937 35.74 305.305 35.892C305.673 36.036 305.985 36.244 306.241 36.516C306.497 36.788 306.693 37.12 306.829 37.512C306.973 37.896 307.045 38.328 307.045 38.808V39.336H302.809V39.444C302.809 39.844 302.933 40.168 303.181 40.416C303.429 40.656 303.793 40.776 304.273 40.776C304.641 40.776 304.957 40.708 305.221 40.572C305.485 40.428 305.713 40.24 305.905 40.008L306.865 41.052C306.625 41.348 306.289 41.604 305.857 41.82C305.425 42.036 304.877 42.144 304.213 42.144ZM304.069 36.936C303.685 36.936 303.377 37.056 303.145 37.296C302.921 37.528 302.809 37.844 302.809 38.244V38.34H305.305V38.244C305.305 37.836 305.193 37.516 304.969 37.284C304.753 37.052 304.453 36.936 304.069 36.936ZM311.169 42.144C310.481 42.144 309.881 42.04 309.369 41.832C308.865 41.624 308.485 41.34 308.229 40.98L309.225 40.056C309.465 40.32 309.745 40.528 310.065 40.68C310.393 40.824 310.765 40.896 311.181 40.896C311.533 40.896 311.809 40.844 312.009 40.74C312.209 40.628 312.309 40.46 312.309 40.236C312.309 40.06 312.241 39.94 312.105 39.876C311.969 39.804 311.781 39.748 311.541 39.708L310.545 39.552C310.265 39.512 310.005 39.452 309.765 39.372C309.525 39.284 309.317 39.168 309.141 39.024C308.965 38.88 308.825 38.704 308.721 38.496C308.617 38.288 308.565 38.036 308.565 37.74C308.565 37.092 308.813 36.584 309.309 36.216C309.805 35.848 310.501 35.664 311.397 35.664C312.005 35.664 312.521 35.748 312.945 35.916C313.377 36.076 313.721 36.308 313.977 36.612L313.089 37.62C312.905 37.42 312.669 37.252 312.381 37.116C312.093 36.98 311.745 36.912 311.337 36.912C310.649 36.912 310.305 37.12 310.305 37.536C310.305 37.72 310.373 37.848 310.509 37.92C310.645 37.984 310.833 38.036 311.073 38.076L312.057 38.232C312.337 38.272 312.597 38.336 312.837 38.424C313.077 38.504 313.285 38.616 313.461 38.76C313.645 38.904 313.789 39.08 313.893 39.288C313.997 39.496 314.049 39.748 314.049 40.044C314.049 40.692 313.797 41.204 313.293 41.58C312.797 41.956 312.089 42.144 311.169 42.144ZM318.148 39.084L317.464 36.06V33.624H319.408V36.06L318.724 39.084H318.148ZM318.436 42.144C318.004 42.144 317.7 42.052 317.524 41.868C317.348 41.684 317.26 41.464 317.26 41.208V40.824C317.26 40.576 317.348 40.36 317.524 40.176C317.708 39.992 318.012 39.9 318.436 39.9C318.86 39.9 319.16 39.992 319.336 40.176C319.52 40.36 319.612 40.576 319.612 40.824V41.208C319.612 41.464 319.524 41.684 319.348 41.868C319.172 42.052 318.868 42.144 318.436 42.144ZM323.987 33.12H325.535L324.155 36.444H323.351L323.987 33.12ZM326.855 33.12H328.403L327.023 36.444H326.219L326.855 33.12ZM333.967 38.268C333.967 38.852 333.899 39.416 333.763 39.96C333.635 40.496 333.455 40.996 333.223 41.46C332.999 41.924 332.735 42.344 332.431 42.72C332.127 43.096 331.807 43.408 331.471 43.656H330.499C330.843 43.392 331.171 43.084 331.483 42.732C331.795 42.388 332.067 42.012 332.299 41.604C332.539 41.188 332.727 40.744 332.863 40.272C332.999 39.792 333.067 39.296 333.067 38.784V37.752C333.067 37.24 332.999 36.748 332.863 36.276C332.727 35.796 332.539 35.352 332.299 34.944C332.067 34.528 331.795 34.148 331.483 33.804C331.171 33.452 330.843 33.144 330.499 32.88H331.471C331.807 33.136 332.127 33.452 332.431 33.828C332.735 34.196 332.999 34.612 333.223 35.076C333.455 35.54 333.635 36.044 333.763 36.588C333.899 37.124 333.967 37.684 333.967 38.268ZM339.506 40.368H341.054L339.674 43.692H338.87L339.506 40.368ZM340.022 37.356C339.694 37.356 339.462 37.288 339.326 37.152C339.198 37.016 339.134 36.844 339.134 36.636V36.42C339.134 36.212 339.198 36.04 339.326 35.904C339.462 35.768 339.694 35.7 340.022 35.7C340.35 35.7 340.578 35.768 340.706 35.904C340.842 36.04 340.91 36.212 340.91 36.42V36.636C340.91 36.844 340.842 37.016 340.706 37.152C340.578 37.288 340.35 37.356 340.022 37.356ZM111.404 70.196H108.14V74H107.132V65.624H108.14V69.32H111.404V65.624H112.412V74H111.404V70.196ZM118.971 67.808H119.931L116.859 75.356C116.787 75.532 116.707 75.684 116.619 75.812C116.531 75.948 116.427 76.056 116.307 76.136C116.187 76.224 116.043 76.288 115.875 76.328C115.707 76.376 115.507 76.4 115.275 76.4H114.363V75.584H115.803L116.499 73.88L114.003 67.808H114.987L116.031 70.4L116.955 72.752H117.003L117.927 70.4L118.971 67.808ZM121.583 74V73.076L125.579 68.624H121.715V67.808H126.622V68.732L122.627 73.184H126.743V74H121.583ZM131.466 74.144C131.018 74.144 130.614 74.068 130.254 73.916C129.902 73.764 129.598 73.548 129.342 73.268C129.094 72.98 128.902 72.64 128.766 72.248C128.63 71.848 128.562 71.404 128.562 70.916C128.562 70.42 128.63 69.972 128.766 69.572C128.91 69.172 129.106 68.832 129.354 68.552C129.602 68.264 129.898 68.044 130.242 67.892C130.594 67.74 130.982 67.664 131.406 67.664C131.822 67.664 132.198 67.74 132.534 67.892C132.878 68.044 133.17 68.256 133.41 68.528C133.65 68.792 133.834 69.108 133.962 69.476C134.09 69.844 134.154 70.248 134.154 70.688V71.144H129.57V71.432C129.57 71.704 129.614 71.956 129.702 72.188C129.79 72.42 129.914 72.62 130.074 72.788C130.242 72.956 130.442 73.088 130.674 73.184C130.914 73.272 131.178 73.316 131.466 73.316C131.882 73.316 132.242 73.22 132.546 73.028C132.85 72.836 133.082 72.572 133.242 72.236L133.95 72.716C133.766 73.132 133.458 73.476 133.026 73.748C132.602 74.012 132.082 74.144 131.466 74.144ZM131.406 68.456C131.142 68.456 130.898 68.504 130.674 68.6C130.45 68.696 130.254 68.828 130.086 68.996C129.926 69.164 129.798 69.364 129.702 69.596C129.614 69.82 129.57 70.068 129.57 70.34V70.424H133.122V70.292C133.122 70.02 133.078 69.772 132.99 69.548C132.91 69.324 132.794 69.132 132.642 68.972C132.498 68.804 132.318 68.676 132.102 68.588C131.894 68.5 131.662 68.456 131.406 68.456ZM135.877 73.184H137.689V68.624H135.877V67.808H138.649V69.368H138.709C138.837 68.88 139.077 68.5 139.429 68.228C139.789 67.948 140.245 67.808 140.797 67.808H141.661V68.768H140.497C139.945 68.768 139.497 68.928 139.153 69.248C138.817 69.568 138.649 69.988 138.649 70.508V73.184H141.049V74H135.877V73.184ZM145.748 74.144C145.316 74.144 144.924 74.068 144.572 73.916C144.228 73.764 143.932 73.548 143.684 73.268C143.444 72.98 143.26 72.64 143.132 72.248C143.004 71.848 142.94 71.4 142.94 70.904C142.94 70.416 143.004 69.972 143.132 69.572C143.26 69.172 143.444 68.832 143.684 68.552C143.932 68.264 144.228 68.044 144.572 67.892C144.924 67.74 145.316 67.664 145.748 67.664C146.18 67.664 146.568 67.74 146.912 67.892C147.264 68.044 147.56 68.264 147.8 68.552C148.048 68.832 148.236 69.172 148.364 69.572C148.492 69.972 148.556 70.416 148.556 70.904C148.556 71.4 148.492 71.848 148.364 72.248C148.236 72.64 148.048 72.98 147.8 73.268C147.56 73.548 147.264 73.764 146.912 73.916C146.568 74.068 146.18 74.144 145.748 74.144ZM145.748 73.316C146.284 73.316 146.716 73.156 147.044 72.836C147.372 72.516 147.536 72.02 147.536 71.348V70.46C147.536 69.788 147.372 69.292 147.044 68.972C146.716 68.652 146.284 68.492 145.748 68.492C145.212 68.492 144.78 68.652 144.452 68.972C144.124 69.292 143.96 69.788 143.96 70.46V71.348C143.96 72.02 144.124 72.516 144.452 72.836C144.78 73.156 145.212 73.316 145.748 73.316ZM157.559 72.812L161.819 70.4V70.304L157.559 67.892V66.872L162.719 69.86V70.82L157.559 73.808V72.812ZM169.746 66.5H166.002L165.762 69.704H165.846C166.054 69.424 166.286 69.204 166.542 69.044C166.798 68.876 167.15 68.792 167.598 68.792C167.966 68.792 168.302 68.852 168.606 68.972C168.918 69.084 169.186 69.252 169.41 69.476C169.634 69.7 169.81 69.972 169.938 70.292C170.066 70.604 170.13 70.964 170.13 71.372C170.13 71.78 170.066 72.156 169.938 72.5C169.81 72.836 169.622 73.128 169.374 73.376C169.126 73.616 168.826 73.804 168.474 73.94C168.122 74.076 167.722 74.144 167.274 74.144C166.922 74.144 166.606 74.104 166.326 74.024C166.054 73.944 165.81 73.836 165.594 73.7C165.386 73.564 165.202 73.412 165.042 73.244C164.882 73.076 164.738 72.9 164.61 72.716L165.366 72.14C165.478 72.308 165.59 72.46 165.702 72.596C165.822 72.732 165.958 72.852 166.11 72.956C166.262 73.052 166.434 73.128 166.626 73.184C166.818 73.24 167.042 73.268 167.298 73.268C167.874 73.268 168.314 73.112 168.618 72.8C168.93 72.488 169.086 72.056 169.086 71.504V71.408C169.086 70.856 168.93 70.424 168.618 70.112C168.306 69.8 167.858 69.644 167.274 69.644C166.874 69.644 166.562 69.712 166.338 69.848C166.122 69.984 165.922 70.152 165.738 70.352L164.886 70.232L165.186 65.624H169.746V66.5ZM180.225 73.136L179.541 72.632L181.029 70.592L178.641 69.8L178.893 69.008L181.281 69.776V67.184H182.169V69.776L184.557 69.008L184.809 69.8L182.421 70.592L183.909 72.632L183.225 73.136L181.725 71.072L180.225 73.136ZM193.536 74V73.124H195.936V66.368H195.852L193.74 68.336L193.152 67.7L195.372 65.624H196.944V73.124H199.152V74H193.536ZM203.311 74.144C202.799 74.144 202.359 74.048 201.991 73.856C201.623 73.656 201.319 73.372 201.079 73.004C200.839 72.636 200.663 72.184 200.551 71.648C200.439 71.112 200.383 70.5 200.383 69.812C200.383 69.132 200.439 68.524 200.551 67.988C200.663 67.444 200.839 66.988 201.079 66.62C201.319 66.252 201.623 65.972 201.991 65.78C202.359 65.58 202.799 65.48 203.311 65.48C203.823 65.48 204.263 65.58 204.631 65.78C204.999 65.972 205.303 66.252 205.543 66.62C205.783 66.988 205.959 67.444 206.071 67.988C206.183 68.524 206.239 69.132 206.239 69.812C206.239 70.5 206.183 71.112 206.071 71.648C205.959 72.184 205.783 72.636 205.543 73.004C205.303 73.372 204.999 73.656 204.631 73.856C204.263 74.048 203.823 74.144 203.311 74.144ZM203.311 73.268C203.647 73.268 203.935 73.204 204.175 73.076C204.415 72.94 204.607 72.752 204.751 72.512C204.903 72.272 205.015 71.984 205.087 71.648C205.159 71.304 205.195 70.92 205.195 70.496V69.128C205.195 68.712 205.159 68.332 205.087 67.988C205.015 67.644 204.903 67.352 204.751 67.112C204.607 66.872 204.415 66.688 204.175 66.56C203.935 66.424 203.647 66.356 203.311 66.356C202.975 66.356 202.687 66.424 202.447 66.56C202.207 66.688 202.011 66.872 201.859 67.112C201.715 67.352 201.607 67.644 201.535 67.988C201.463 68.332 201.427 68.712 201.427 69.128V70.496C201.427 70.92 201.463 71.304 201.535 71.648C201.607 71.984 201.715 72.272 201.859 72.512C202.011 72.752 202.207 72.94 202.447 73.076C202.687 73.204 202.975 73.268 203.311 73.268ZM203.311 70.52C203.031 70.52 202.835 70.464 202.723 70.352C202.619 70.24 202.567 70.104 202.567 69.944V69.68C202.567 69.52 202.619 69.384 202.723 69.272C202.835 69.16 203.031 69.104 203.311 69.104C203.591 69.104 203.783 69.16 203.887 69.272C203.999 69.384 204.055 69.52 204.055 69.68V69.944C204.055 70.104 203.999 70.24 203.887 70.352C203.783 70.464 203.591 70.52 203.311 70.52ZM210.506 74.144C209.994 74.144 209.554 74.048 209.186 73.856C208.818 73.656 208.514 73.372 208.274 73.004C208.034 72.636 207.858 72.184 207.746 71.648C207.634 71.112 207.578 70.5 207.578 69.812C207.578 69.132 207.634 68.524 207.746 67.988C207.858 67.444 208.034 66.988 208.274 66.62C208.514 66.252 208.818 65.972 209.186 65.78C209.554 65.58 209.994 65.48 210.506 65.48C211.018 65.48 211.458 65.58 211.826 65.78C212.194 65.972 212.498 66.252 212.738 66.62C212.978 66.988 213.154 67.444 213.266 67.988C213.378 68.524 213.434 69.132 213.434 69.812C213.434 70.5 213.378 71.112 213.266 71.648C213.154 72.184 212.978 72.636 212.738 73.004C212.498 73.372 212.194 73.656 211.826 73.856C211.458 74.048 211.018 74.144 210.506 74.144ZM210.506 73.268C210.842 73.268 211.13 73.204 211.37 73.076C211.61 72.94 211.802 72.752 211.946 72.512C212.098 72.272 212.21 71.984 212.282 71.648C212.354 71.304 212.39 70.92 212.39 70.496V69.128C212.39 68.712 212.354 68.332 212.282 67.988C212.21 67.644 212.098 67.352 211.946 67.112C211.802 66.872 211.61 66.688 211.37 66.56C211.13 66.424 210.842 66.356 210.506 66.356C210.17 66.356 209.882 66.424 209.642 66.56C209.402 66.688 209.206 66.872 209.054 67.112C208.91 67.352 208.802 67.644 208.73 67.988C208.658 68.332 208.622 68.712 208.622 69.128V70.496C208.622 70.92 208.658 71.304 208.73 71.648C208.802 71.984 208.91 72.272 209.054 72.512C209.206 72.752 209.402 72.94 209.642 73.076C209.882 73.204 210.17 73.268 210.506 73.268ZM210.506 70.52C210.226 70.52 210.03 70.464 209.918 70.352C209.814 70.24 209.762 70.104 209.762 69.944V69.68C209.762 69.52 209.814 69.384 209.918 69.272C210.03 69.16 210.226 69.104 210.506 69.104C210.786 69.104 210.978 69.16 211.082 69.272C211.194 69.384 211.25 69.52 211.25 69.68V69.944C211.25 70.104 211.194 70.24 211.082 70.352C210.978 70.464 210.786 70.52 210.506 70.52ZM112.184 82.5H108.44L108.2 85.704H108.284C108.492 85.424 108.724 85.204 108.98 85.044C109.236 84.876 109.588 84.792 110.036 84.792C110.404 84.792 110.74 84.852 111.044 84.972C111.356 85.084 111.624 85.252 111.848 85.476C112.072 85.7 112.248 85.972 112.376 86.292C112.504 86.604 112.568 86.964 112.568 87.372C112.568 87.78 112.504 88.156 112.376 88.5C112.248 88.836 112.06 89.128 111.812 89.376C111.564 89.616 111.264 89.804 110.912 89.94C110.56 90.076 110.16 90.144 109.712 90.144C109.36 90.144 109.044 90.104 108.764 90.024C108.492 89.944 108.248 89.836 108.032 89.7C107.824 89.564 107.64 89.412 107.48 89.244C107.32 89.076 107.176 88.9 107.048 88.716L107.804 88.14C107.916 88.308 108.028 88.46 108.14 88.596C108.26 88.732 108.396 88.852 108.548 88.956C108.7 89.052 108.872 89.128 109.064 89.184C109.256 89.24 109.48 89.268 109.736 89.268C110.312 89.268 110.752 89.112 111.056 88.8C111.368 88.488 111.524 88.056 111.524 87.504V87.408C111.524 86.856 111.368 86.424 111.056 86.112C110.744 85.8 110.296 85.644 109.712 85.644C109.312 85.644 109 85.712 108.776 85.848C108.56 85.984 108.36 86.152 108.176 86.352L107.324 86.232L107.624 81.624H112.184V82.5ZM116.967 90.144C116.455 90.144 116.015 90.048 115.647 89.856C115.279 89.656 114.975 89.372 114.735 89.004C114.495 88.636 114.319 88.184 114.207 87.648C114.095 87.112 114.039 86.5 114.039 85.812C114.039 85.132 114.095 84.524 114.207 83.988C114.319 83.444 114.495 82.988 114.735 82.62C114.975 82.252 115.279 81.972 115.647 81.78C116.015 81.58 116.455 81.48 116.967 81.48C117.479 81.48 117.919 81.58 118.287 81.78C118.655 81.972 118.959 82.252 119.199 82.62C119.439 82.988 119.615 83.444 119.727 83.988C119.839 84.524 119.895 85.132 119.895 85.812C119.895 86.5 119.839 87.112 119.727 87.648C119.615 88.184 119.439 88.636 119.199 89.004C118.959 89.372 118.655 89.656 118.287 89.856C117.919 90.048 117.479 90.144 116.967 90.144ZM116.967 89.268C117.303 89.268 117.591 89.204 117.831 89.076C118.071 88.94 118.263 88.752 118.407 88.512C118.559 88.272 118.671 87.984 118.743 87.648C118.815 87.304 118.851 86.92 118.851 86.496V85.128C118.851 84.712 118.815 84.332 118.743 83.988C118.671 83.644 118.559 83.352 118.407 83.112C118.263 82.872 118.071 82.688 117.831 82.56C117.591 82.424 117.303 82.356 116.967 82.356C116.631 82.356 116.343 82.424 116.103 82.56C115.863 82.688 115.667 82.872 115.515 83.112C115.371 83.352 115.263 83.644 115.191 83.988C115.119 84.332 115.083 84.712 115.083 85.128V86.496C115.083 86.92 115.119 87.304 115.191 87.648C115.263 87.984 115.371 88.272 115.515 88.512C115.667 88.752 115.863 88.94 116.103 89.076C116.343 89.204 116.631 89.268 116.967 89.268ZM116.967 86.52C116.687 86.52 116.491 86.464 116.379 86.352C116.275 86.24 116.223 86.104 116.223 85.944V85.68C116.223 85.52 116.275 85.384 116.379 85.272C116.491 85.16 116.687 85.104 116.967 85.104C117.247 85.104 117.439 85.16 117.543 85.272C117.655 85.384 117.711 85.52 117.711 85.68V85.944C117.711 86.104 117.655 86.24 117.543 86.352C117.439 86.464 117.247 86.52 116.967 86.52ZM124.163 90.144C123.651 90.144 123.211 90.048 122.843 89.856C122.475 89.656 122.171 89.372 121.931 89.004C121.691 88.636 121.515 88.184 121.403 87.648C121.291 87.112 121.235 86.5 121.235 85.812C121.235 85.132 121.291 84.524 121.403 83.988C121.515 83.444 121.691 82.988 121.931 82.62C122.171 82.252 122.475 81.972 122.843 81.78C123.211 81.58 123.651 81.48 124.163 81.48C124.675 81.48 125.115 81.58 125.483 81.78C125.851 81.972 126.155 82.252 126.395 82.62C126.635 82.988 126.811 83.444 126.923 83.988C127.035 84.524 127.091 85.132 127.091 85.812C127.091 86.5 127.035 87.112 126.923 87.648C126.811 88.184 126.635 88.636 126.395 89.004C126.155 89.372 125.851 89.656 125.483 89.856C125.115 90.048 124.675 90.144 124.163 90.144ZM124.163 89.268C124.499 89.268 124.787 89.204 125.027 89.076C125.267 88.94 125.459 88.752 125.603 88.512C125.755 88.272 125.867 87.984 125.939 87.648C126.011 87.304 126.047 86.92 126.047 86.496V85.128C126.047 84.712 126.011 84.332 125.939 83.988C125.867 83.644 125.755 83.352 125.603 83.112C125.459 82.872 125.267 82.688 125.027 82.56C124.787 82.424 124.499 82.356 124.163 82.356C123.827 82.356 123.539 82.424 123.299 82.56C123.059 82.688 122.863 82.872 122.711 83.112C122.567 83.352 122.459 83.644 122.387 83.988C122.315 84.332 122.279 84.712 122.279 85.128V86.496C122.279 86.92 122.315 87.304 122.387 87.648C122.459 87.984 122.567 88.272 122.711 88.512C122.863 88.752 123.059 88.94 123.299 89.076C123.539 89.204 123.827 89.268 124.163 89.268ZM124.163 86.52C123.883 86.52 123.687 86.464 123.575 86.352C123.471 86.24 123.419 86.104 123.419 85.944V85.68C123.419 85.52 123.471 85.384 123.575 85.272C123.687 85.16 123.883 85.104 124.163 85.104C124.443 85.104 124.635 85.16 124.739 85.272C124.851 85.384 124.907 85.52 124.907 85.68V85.944C124.907 86.104 124.851 86.24 124.739 86.352C124.635 86.464 124.443 86.52 124.163 86.52ZM111.404 102.196H108.14V106H107.132V97.624H108.14V101.32H111.404V97.624H112.412V106H111.404V102.196ZM118.971 99.808H119.931L116.859 107.356C116.787 107.532 116.707 107.684 116.619 107.812C116.531 107.948 116.427 108.056 116.307 108.136C116.187 108.224 116.043 108.288 115.875 108.328C115.707 108.376 115.507 108.4 115.275 108.4H114.363V107.584H115.803L116.499 105.88L114.003 99.808H114.987L116.031 102.4L116.955 104.752H117.003L117.927 102.4L118.971 99.808ZM121.583 106V105.076L125.579 100.624H121.715V99.808H126.622V100.732L122.627 105.184H126.743V106H121.583ZM131.466 106.144C131.018 106.144 130.614 106.068 130.254 105.916C129.902 105.764 129.598 105.548 129.342 105.268C129.094 104.98 128.902 104.64 128.766 104.248C128.63 103.848 128.562 103.404 128.562 102.916C128.562 102.42 128.63 101.972 128.766 101.572C128.91 101.172 129.106 100.832 129.354 100.552C129.602 100.264 129.898 100.044 130.242 99.892C130.594 99.74 130.982 99.664 131.406 99.664C131.822 99.664 132.198 99.74 132.534 99.892C132.878 100.044 133.17 100.256 133.41 100.528C133.65 100.792 133.834 101.108 133.962 101.476C134.09 101.844 134.154 102.248 134.154 102.688V103.144H129.57V103.432C129.57 103.704 129.614 103.956 129.702 104.188C129.79 104.42 129.914 104.62 130.074 104.788C130.242 104.956 130.442 105.088 130.674 105.184C130.914 105.272 131.178 105.316 131.466 105.316C131.882 105.316 132.242 105.22 132.546 105.028C132.85 104.836 133.082 104.572 133.242 104.236L133.95 104.716C133.766 105.132 133.458 105.476 133.026 105.748C132.602 106.012 132.082 106.144 131.466 106.144ZM131.406 100.456C131.142 100.456 130.898 100.504 130.674 100.6C130.45 100.696 130.254 100.828 130.086 100.996C129.926 101.164 129.798 101.364 129.702 101.596C129.614 101.82 129.57 102.068 129.57 102.34V102.424H133.122V102.292C133.122 102.02 133.078 101.772 132.99 101.548C132.91 101.324 132.794 101.132 132.642 100.972C132.498 100.804 132.318 100.676 132.102 100.588C131.894 100.5 131.662 100.456 131.406 100.456ZM135.877 105.184H137.689V100.624H135.877V99.808H138.649V101.368H138.709C138.837 100.88 139.077 100.5 139.429 100.228C139.789 99.948 140.245 99.808 140.797 99.808H141.661V100.768H140.497C139.945 100.768 139.497 100.928 139.153 101.248C138.817 101.568 138.649 101.988 138.649 102.508V105.184H141.049V106H135.877V105.184ZM145.748 106.144C145.316 106.144 144.924 106.068 144.572 105.916C144.228 105.764 143.932 105.548 143.684 105.268C143.444 104.98 143.26 104.64 143.132 104.248C143.004 103.848 142.94 103.4 142.94 102.904C142.94 102.416 143.004 101.972 143.132 101.572C143.26 101.172 143.444 100.832 143.684 100.552C143.932 100.264 144.228 100.044 144.572 99.892C144.924 99.74 145.316 99.664 145.748 99.664C146.18 99.664 146.568 99.74 146.912 99.892C147.264 100.044 147.56 100.264 147.8 100.552C148.048 100.832 148.236 101.172 148.364 101.572C148.492 101.972 148.556 102.416 148.556 102.904C148.556 103.4 148.492 103.848 148.364 104.248C148.236 104.64 148.048 104.98 147.8 105.268C147.56 105.548 147.264 105.764 146.912 105.916C146.568 106.068 146.18 106.144 145.748 106.144ZM145.748 105.316C146.284 105.316 146.716 105.156 147.044 104.836C147.372 104.516 147.536 104.02 147.536 103.348V102.46C147.536 101.788 147.372 101.292 147.044 100.972C146.716 100.652 146.284 100.492 145.748 100.492C145.212 100.492 144.78 100.652 144.452 100.972C144.124 101.292 143.96 101.788 143.96 102.46V103.348C143.96 104.02 144.124 104.516 144.452 104.836C144.78 105.156 145.212 105.316 145.748 105.316ZM157.559 104.812L161.819 102.4V102.304L157.559 99.892V98.872L162.719 101.86V102.82L157.559 105.808V104.812ZM164.658 105.184H166.47V100.624H164.658V99.808H167.43V101.368H167.49C167.618 100.88 167.858 100.5 168.21 100.228C168.57 99.948 169.026 99.808 169.578 99.808H170.442V100.768H169.278C168.726 100.768 168.278 100.928 167.934 101.248C167.598 101.568 167.43 101.988 167.43 102.508V105.184H169.83V106H164.658V105.184ZM175.994 104.992H175.946C175.882 105.144 175.802 105.292 175.706 105.436C175.61 105.572 175.49 105.692 175.346 105.796C175.21 105.9 175.046 105.984 174.854 106.048C174.662 106.112 174.438 106.144 174.182 106.144C173.534 106.144 173.014 105.94 172.622 105.532C172.23 105.116 172.034 104.532 172.034 103.78V99.808H172.994V103.612C172.994 104.18 173.118 104.604 173.366 104.884C173.614 105.156 173.978 105.292 174.458 105.292C174.65 105.292 174.838 105.268 175.022 105.22C175.206 105.172 175.37 105.1 175.514 105.004C175.658 104.908 175.774 104.788 175.862 104.644C175.95 104.492 175.994 104.312 175.994 104.104V99.808H176.954V106H175.994V104.992ZM179.301 106V99.808H180.261V100.816H180.309C180.373 100.664 180.453 100.52 180.549 100.384C180.645 100.24 180.761 100.116 180.897 100.012C181.041 99.908 181.209 99.824 181.401 99.76C181.593 99.696 181.817 99.664 182.073 99.664C182.721 99.664 183.241 99.872 183.633 100.288C184.025 100.696 184.221 101.276 184.221 102.028V106H183.261V102.196C183.261 101.628 183.137 101.208 182.889 100.936C182.641 100.656 182.277 100.516 181.797 100.516C181.605 100.516 181.417 100.54 181.233 100.588C181.049 100.636 180.885 100.708 180.741 100.804C180.597 100.9 180.481 101.024 180.393 101.176C180.305 101.328 180.261 101.504 180.261 101.704V106H179.301ZM187.78 102.268C187.78 101.684 187.844 101.124 187.972 100.588C188.108 100.044 188.288 99.54 188.512 99.076C188.744 98.612 189.012 98.196 189.316 97.828C189.62 97.452 189.94 97.136 190.276 96.88H191.248C190.896 97.144 190.564 97.452 190.252 97.804C189.948 98.148 189.676 98.528 189.436 98.944C189.204 99.352 189.02 99.796 188.884 100.276C188.748 100.748 188.68 101.24 188.68 101.752V102.784C188.68 103.296 188.748 103.792 188.884 104.272C189.02 104.744 189.204 105.188 189.436 105.604C189.676 106.012 189.948 106.388 190.252 106.732C190.564 107.084 190.896 107.392 191.248 107.656H190.276C189.94 107.408 189.62 107.096 189.316 106.72C189.012 106.344 188.744 105.924 188.512 105.46C188.288 104.996 188.108 104.496 187.972 103.96C187.844 103.416 187.78 102.852 187.78 102.268ZM194.88 97.12H195.684L195.048 100.444H193.5L194.88 97.12ZM197.748 97.12H198.552L197.916 100.444H196.368L197.748 97.12ZM200.359 106V99.808H201.247V100.528H201.295C201.391 100.288 201.527 100.084 201.703 99.916C201.879 99.748 202.139 99.664 202.483 99.664C202.843 99.664 203.111 99.756 203.287 99.94C203.463 100.116 203.571 100.348 203.611 100.636H203.647C203.759 100.356 203.919 100.124 204.127 99.94C204.335 99.756 204.623 99.664 204.991 99.664C205.495 99.664 205.831 99.84 205.999 100.192C206.175 100.544 206.263 101.048 206.263 101.704V106H205.375V101.86C205.375 101.332 205.319 100.968 205.207 100.768C205.103 100.56 204.907 100.456 204.619 100.456C204.363 100.456 204.155 100.54 203.995 100.708C203.835 100.868 203.755 101.116 203.755 101.452V106H202.867V101.86C202.867 101.332 202.811 100.968 202.699 100.768C202.595 100.56 202.403 100.456 202.123 100.456C201.867 100.456 201.655 100.54 201.487 100.708C201.327 100.868 201.247 101.116 201.247 101.452V106H200.359ZM212.846 106C212.47 106 212.202 105.904 212.042 105.712C211.882 105.52 211.782 105.28 211.742 104.992H211.682C211.546 105.352 211.326 105.636 211.022 105.844C210.726 106.044 210.326 106.144 209.822 106.144C209.174 106.144 208.658 105.976 208.274 105.64C207.89 105.304 207.698 104.844 207.698 104.26C207.698 103.684 207.906 103.24 208.322 102.928C208.746 102.616 209.426 102.46 210.362 102.46H211.682V101.848C211.682 101.392 211.554 101.052 211.298 100.828C211.042 100.596 210.678 100.48 210.206 100.48C209.79 100.48 209.45 100.564 209.186 100.732C208.922 100.892 208.71 101.112 208.55 101.392L207.902 100.912C207.982 100.752 208.09 100.596 208.226 100.444C208.362 100.292 208.53 100.16 208.73 100.048C208.93 99.928 209.158 99.836 209.414 99.772C209.67 99.7 209.954 99.664 210.266 99.664C210.994 99.664 211.57 99.848 211.994 100.216C212.426 100.584 212.642 101.096 212.642 101.752V105.16H213.506V106H212.846ZM209.99 105.34C210.238 105.34 210.462 105.312 210.662 105.256C210.87 105.192 211.05 105.112 211.202 105.016C211.354 104.912 211.47 104.792 211.55 104.656C211.638 104.512 211.682 104.36 211.682 104.2V103.18H210.362C209.786 103.18 209.366 103.26 209.102 103.42C208.838 103.58 208.706 103.812 208.706 104.116V104.368C208.706 104.688 208.818 104.932 209.042 105.1C209.274 105.26 209.59 105.34 209.99 105.34ZM218.086 98.44C217.806 98.44 217.61 98.384 217.498 98.272C217.386 98.152 217.33 98.004 217.33 97.828V97.636C217.33 97.46 217.386 97.316 217.498 97.204C217.61 97.084 217.806 97.024 218.086 97.024C218.366 97.024 218.562 97.084 218.674 97.204C218.786 97.316 218.842 97.46 218.842 97.636V97.828C218.842 98.004 218.786 98.152 218.674 98.272C218.562 98.384 218.366 98.44 218.086 98.44ZM215.374 105.184H217.606V100.624H215.374V99.808H218.566V105.184H220.654V106H215.374V105.184ZM222.473 106V99.808H223.433V100.816H223.481C223.545 100.664 223.625 100.52 223.721 100.384C223.817 100.24 223.933 100.116 224.069 100.012C224.213 99.908 224.381 99.824 224.573 99.76C224.765 99.696 224.989 99.664 225.245 99.664C225.893 99.664 226.413 99.872 226.805 100.288C227.197 100.696 227.393 101.276 227.393 102.028V106H226.433V102.196C226.433 101.628 226.309 101.208 226.061 100.936C225.813 100.656 225.449 100.516 224.969 100.516C224.777 100.516 224.589 100.54 224.405 100.588C224.221 100.636 224.057 100.708 223.913 100.804C223.769 100.9 223.653 101.024 223.565 101.176C223.477 101.328 223.433 101.504 223.433 101.704V106H222.473ZM232.092 106.108C231.764 106.108 231.532 106.04 231.396 105.904C231.268 105.768 231.204 105.596 231.204 105.388V105.172C231.204 104.964 231.268 104.792 231.396 104.656C231.532 104.52 231.764 104.452 232.092 104.452C232.42 104.452 232.648 104.52 232.776 104.656C232.912 104.792 232.98 104.964 232.98 105.172V105.388C232.98 105.596 232.912 105.768 232.776 105.904C232.648 106.04 232.42 106.108 232.092 106.108ZM236.864 97.12H237.824V100.816H237.872C237.936 100.664 238.016 100.52 238.112 100.384C238.208 100.24 238.324 100.116 238.46 100.012C238.604 99.908 238.772 99.824 238.964 99.76C239.156 99.696 239.38 99.664 239.636 99.664C240.284 99.664 240.804 99.872 241.196 100.288C241.588 100.696 241.784 101.276 241.784 102.028V106H240.824V102.196C240.824 101.628 240.7 101.208 240.452 100.936C240.204 100.656 239.84 100.516 239.36 100.516C239.168 100.516 238.98 100.54 238.796 100.588C238.612 100.636 238.448 100.708 238.304 100.804C238.16 100.9 238.044 101.024 237.956 101.176C237.868 101.328 237.824 101.504 237.824 101.704V106H236.864V97.12ZM248.487 99.808H249.447L246.375 107.356C246.303 107.532 246.223 107.684 246.135 107.812C246.047 107.948 245.943 108.056 245.823 108.136C245.703 108.224 245.559 108.288 245.391 108.328C245.223 108.376 245.023 108.4 244.791 108.4H243.879V107.584H245.319L246.015 105.88L243.519 99.808H244.503L245.547 102.4L246.471 104.752H246.519L247.443 102.4L248.487 99.808ZM251.098 106V105.076L255.094 100.624H251.23V99.808H256.138V100.732L252.142 105.184H256.258V106H251.098ZM260.981 106.144C260.533 106.144 260.129 106.068 259.769 105.916C259.417 105.764 259.113 105.548 258.857 105.268C258.609 104.98 258.417 104.64 258.281 104.248C258.145 103.848 258.077 103.404 258.077 102.916C258.077 102.42 258.145 101.972 258.281 101.572C258.425 101.172 258.621 100.832 258.869 100.552C259.117 100.264 259.413 100.044 259.757 99.892C260.109 99.74 260.497 99.664 260.921 99.664C261.337 99.664 261.713 99.74 262.049 99.892C262.393 100.044 262.685 100.256 262.925 100.528C263.165 100.792 263.349 101.108 263.477 101.476C263.605 101.844 263.669 102.248 263.669 102.688V103.144H259.085V103.432C259.085 103.704 259.129 103.956 259.217 104.188C259.305 104.42 259.429 104.62 259.589 104.788C259.757 104.956 259.957 105.088 260.189 105.184C260.429 105.272 260.693 105.316 260.981 105.316C261.397 105.316 261.757 105.22 262.061 105.028C262.365 104.836 262.597 104.572 262.757 104.236L263.465 104.716C263.281 105.132 262.973 105.476 262.541 105.748C262.117 106.012 261.597 106.144 260.981 106.144ZM260.921 100.456C260.657 100.456 260.413 100.504 260.189 100.6C259.965 100.696 259.769 100.828 259.601 100.996C259.441 101.164 259.313 101.364 259.217 101.596C259.129 101.82 259.085 102.068 259.085 102.34V102.424H262.637V102.292C262.637 102.02 262.593 101.772 262.505 101.548C262.425 101.324 262.309 101.132 262.157 100.972C262.013 100.804 261.833 100.676 261.617 100.588C261.409 100.5 261.177 100.456 260.921 100.456ZM265.393 105.184H267.205V100.624H265.393V99.808H268.165V101.368H268.225C268.353 100.88 268.593 100.5 268.945 100.228C269.305 99.948 269.761 99.808 270.313 99.808H271.177V100.768H270.013C269.461 100.768 269.013 100.928 268.669 101.248C268.333 101.568 268.165 101.988 268.165 102.508V105.184H270.565V106H265.393V105.184ZM275.264 106.144C274.832 106.144 274.44 106.068 274.088 105.916C273.744 105.764 273.448 105.548 273.2 105.268C272.96 104.98 272.776 104.64 272.648 104.248C272.52 103.848 272.456 103.4 272.456 102.904C272.456 102.416 272.52 101.972 272.648 101.572C272.776 101.172 272.96 100.832 273.2 100.552C273.448 100.264 273.744 100.044 274.088 99.892C274.44 99.74 274.832 99.664 275.264 99.664C275.696 99.664 276.084 99.74 276.428 99.892C276.78 100.044 277.076 100.264 277.316 100.552C277.564 100.832 277.752 101.172 277.88 101.572C278.008 101.972 278.072 102.416 278.072 102.904C278.072 103.4 278.008 103.848 277.88 104.248C277.752 104.64 277.564 104.98 277.316 105.268C277.076 105.548 276.78 105.764 276.428 105.916C276.084 106.068 275.696 106.144 275.264 106.144ZM275.264 105.316C275.8 105.316 276.232 105.156 276.56 104.836C276.888 104.516 277.052 104.02 277.052 103.348V102.46C277.052 101.788 276.888 101.292 276.56 100.972C276.232 100.652 275.8 100.492 275.264 100.492C274.728 100.492 274.296 100.652 273.968 100.972C273.64 101.292 273.476 101.788 273.476 102.46V103.348C273.476 104.02 273.64 104.516 273.968 104.836C274.296 105.156 274.728 105.316 275.264 105.316ZM280.815 97.12H282.363L280.983 100.444H280.179L280.815 97.12ZM283.683 97.12H285.231L283.851 100.444H283.047L283.683 97.12ZM290.795 102.268C290.795 102.852 290.727 103.416 290.591 103.96C290.463 104.496 290.283 104.996 290.051 105.46C289.827 105.924 289.563 106.344 289.259 106.72C288.955 107.096 288.635 107.408 288.299 107.656H287.327C287.671 107.392 287.999 107.084 288.311 106.732C288.623 106.388 288.895 106.012 289.127 105.604C289.367 105.188 289.555 104.744 289.691 104.272C289.827 103.792 289.895 103.296 289.895 102.784V101.752C289.895 101.24 289.827 100.748 289.691 100.276C289.555 99.796 289.367 99.352 289.127 98.944C288.895 98.528 288.623 98.148 288.311 97.804C287.999 97.452 287.671 97.144 287.327 96.88H288.299C288.635 97.136 288.955 97.452 289.259 97.828C289.563 98.196 289.827 98.612 290.051 99.076C290.283 99.54 290.463 100.044 290.591 100.588C290.727 101.124 290.795 101.684 290.795 102.268ZM111.404 118.196H108.14V122H107.132V113.624H108.14V117.32H111.404V113.624H112.412V122H111.404V118.196ZM117.075 122.144C116.627 122.144 116.223 122.068 115.863 121.916C115.511 121.764 115.207 121.548 114.951 121.268C114.703 120.98 114.511 120.64 114.375 120.248C114.239 119.848 114.171 119.404 114.171 118.916C114.171 118.42 114.239 117.972 114.375 117.572C114.519 117.172 114.715 116.832 114.963 116.552C115.211 116.264 115.507 116.044 115.851 115.892C116.203 115.74 116.591 115.664 117.015 115.664C117.431 115.664 117.807 115.74 118.143 115.892C118.487 116.044 118.779 116.256 119.019 116.528C119.259 116.792 119.443 117.108 119.571 117.476C119.699 117.844 119.763 118.248 119.763 118.688V119.144H115.179V119.432C115.179 119.704 115.223 119.956 115.311 120.188C115.399 120.42 115.523 120.62 115.683 120.788C115.851 120.956 116.051 121.088 116.283 121.184C116.523 121.272 116.787 121.316 117.075 121.316C117.491 121.316 117.851 121.22 118.155 121.028C118.459 120.836 118.691 120.572 118.851 120.236L119.559 120.716C119.375 121.132 119.067 121.476 118.635 121.748C118.211 122.012 117.691 122.144 117.075 122.144ZM117.015 116.456C116.751 116.456 116.507 116.504 116.283 116.6C116.059 116.696 115.863 116.828 115.695 116.996C115.535 117.164 115.407 117.364 115.311 117.596C115.223 117.82 115.179 118.068 115.179 118.34V118.424H118.731V118.292C118.731 118.02 118.687 117.772 118.599 117.548C118.519 117.324 118.403 117.132 118.251 116.972C118.107 116.804 117.927 116.676 117.711 116.588C117.503 116.5 117.271 116.456 117.015 116.456ZM121.523 121.184H123.683V113.936H121.523V113.12H124.643V121.184H126.803V122H121.523V121.184ZM128.718 121.184H130.878V113.936H128.718V113.12H131.838V121.184H133.998V122H128.718V121.184ZM138.553 122.144C138.121 122.144 137.729 122.068 137.377 121.916C137.033 121.764 136.737 121.548 136.489 121.268C136.249 120.98 136.065 120.64 135.937 120.248C135.809 119.848 135.745 119.4 135.745 118.904C135.745 118.416 135.809 117.972 135.937 117.572C136.065 117.172 136.249 116.832 136.489 116.552C136.737 116.264 137.033 116.044 137.377 115.892C137.729 115.74 138.121 115.664 138.553 115.664C138.985 115.664 139.373 115.74 139.717 115.892C140.069 116.044 140.365 116.264 140.605 116.552C140.853 116.832 141.041 117.172 141.169 117.572C141.297 117.972 141.361 118.416 141.361 118.904C141.361 119.4 141.297 119.848 141.169 120.248C141.041 120.64 140.853 120.98 140.605 121.268C140.365 121.548 140.069 121.764 139.717 121.916C139.373 122.068 138.985 122.144 138.553 122.144ZM138.553 121.316C139.089 121.316 139.521 121.156 139.849 120.836C140.177 120.516 140.341 120.02 140.341 119.348V118.46C140.341 117.788 140.177 117.292 139.849 116.972C139.521 116.652 139.089 116.492 138.553 116.492C138.017 116.492 137.585 116.652 137.257 116.972C136.929 117.292 136.765 117.788 136.765 118.46V119.348C136.765 120.02 136.929 120.516 137.257 120.836C137.585 121.156 138.017 121.316 138.553 121.316ZM150.484 115.808H151.444V116.816H151.492C151.892 116.048 152.528 115.664 153.4 115.664C154.16 115.664 154.752 115.948 155.176 116.516C155.608 117.084 155.824 117.88 155.824 118.904C155.824 119.928 155.608 120.724 155.176 121.292C154.752 121.86 154.16 122.144 153.4 122.144C152.528 122.144 151.892 121.76 151.492 120.992H151.444V124.4H150.484V115.808ZM153.028 121.292C153.588 121.292 154.02 121.124 154.324 120.788C154.636 120.444 154.792 119.992 154.792 119.432V118.376C154.792 117.816 154.636 117.368 154.324 117.032C154.02 116.688 153.588 116.516 153.028 116.516C152.812 116.516 152.608 116.544 152.416 116.6C152.224 116.656 152.056 116.74 151.912 116.852C151.768 116.956 151.652 117.088 151.564 117.248C151.484 117.4 151.444 117.58 151.444 117.788V120.02C151.444 120.228 151.484 120.412 151.564 120.572C151.652 120.724 151.768 120.856 151.912 120.968C152.056 121.072 152.224 121.152 152.416 121.208C152.608 121.264 152.812 121.292 153.028 121.292ZM160.139 122.144C159.707 122.144 159.315 122.068 158.963 121.916C158.619 121.764 158.323 121.548 158.075 121.268C157.835 120.98 157.651 120.64 157.523 120.248C157.395 119.848 157.331 119.4 157.331 118.904C157.331 118.416 157.395 117.972 157.523 117.572C157.651 117.172 157.835 116.832 158.075 116.552C158.323 116.264 158.619 116.044 158.963 115.892C159.315 115.74 159.707 115.664 160.139 115.664C160.571 115.664 160.959 115.74 161.303 115.892C161.655 116.044 161.951 116.264 162.191 116.552C162.439 116.832 162.627 117.172 162.755 117.572C162.883 117.972 162.947 118.416 162.947 118.904C162.947 119.4 162.883 119.848 162.755 120.248C162.627 120.64 162.439 120.98 162.191 121.268C161.951 121.548 161.655 121.764 161.303 121.916C160.959 122.068 160.571 122.144 160.139 122.144ZM160.139 121.316C160.675 121.316 161.107 121.156 161.435 120.836C161.763 120.516 161.927 120.02 161.927 119.348V118.46C161.927 117.788 161.763 117.292 161.435 116.972C161.107 116.652 160.675 116.492 160.139 116.492C159.603 116.492 159.171 116.652 158.843 116.972C158.515 117.292 158.351 117.788 158.351 118.46V119.348C158.351 120.02 158.515 120.516 158.843 120.836C159.171 121.156 159.603 121.316 160.139 121.316ZM166.818 120.368H168.366L166.986 123.692H166.182L166.818 120.368ZM179.205 122V113.624H184.365V114.5H180.213V117.32H184.221V118.196H180.213V121.124H184.365V122H179.205ZM188.308 122L186.088 115.808H187.06L187.948 118.4L188.908 121.196H188.956L189.916 118.4L190.804 115.808H191.752L189.532 122H188.308ZM196.224 122.144C195.776 122.144 195.372 122.068 195.012 121.916C194.66 121.764 194.356 121.548 194.1 121.268C193.852 120.98 193.66 120.64 193.524 120.248C193.388 119.848 193.32 119.404 193.32 118.916C193.32 118.42 193.388 117.972 193.524 117.572C193.668 117.172 193.864 116.832 194.112 116.552C194.36 116.264 194.656 116.044 195 115.892C195.352 115.74 195.74 115.664 196.164 115.664C196.58 115.664 196.956 115.74 197.292 115.892C197.636 116.044 197.928 116.256 198.168 116.528C198.408 116.792 198.592 117.108 198.72 117.476C198.848 117.844 198.912 118.248 198.912 118.688V119.144H194.328V119.432C194.328 119.704 194.372 119.956 194.46 120.188C194.548 120.42 194.672 120.62 194.832 120.788C195 120.956 195.2 121.088 195.432 121.184C195.672 121.272 195.936 121.316 196.224 121.316C196.64 121.316 197 121.22 197.304 121.028C197.608 120.836 197.84 120.572 198 120.236L198.708 120.716C198.524 121.132 198.216 121.476 197.784 121.748C197.36 122.012 196.84 122.144 196.224 122.144ZM196.164 116.456C195.9 116.456 195.656 116.504 195.432 116.6C195.208 116.696 195.012 116.828 194.844 116.996C194.684 117.164 194.556 117.364 194.46 117.596C194.372 117.82 194.328 118.068 194.328 118.34V118.424H197.88V118.292C197.88 118.02 197.836 117.772 197.748 117.548C197.668 117.324 197.552 117.132 197.4 116.972C197.256 116.804 197.076 116.676 196.86 116.588C196.652 116.5 196.42 116.456 196.164 116.456ZM200.635 121.184H202.447V116.624H200.635V115.808H203.407V117.368H203.467C203.595 116.88 203.835 116.5 204.187 116.228C204.547 115.948 205.003 115.808 205.555 115.808H206.419V116.768H205.255C204.703 116.768 204.255 116.928 203.911 117.248C203.575 117.568 203.407 117.988 203.407 118.508V121.184H205.807V122H200.635V121.184ZM212.51 115.808H213.47L210.398 123.356C210.326 123.532 210.246 123.684 210.158 123.812C210.07 123.948 209.966 124.056 209.846 124.136C209.726 124.224 209.582 124.288 209.414 124.328C209.246 124.376 209.046 124.4 208.814 124.4H207.902V123.584H209.342L210.038 121.88L207.542 115.808H208.526L209.57 118.4L210.494 120.752H210.542L211.466 118.4L212.51 115.808ZM217.702 122.144C217.27 122.144 216.878 122.068 216.526 121.916C216.182 121.764 215.886 121.548 215.638 121.268C215.398 120.98 215.214 120.64 215.086 120.248C214.958 119.848 214.894 119.4 214.894 118.904C214.894 118.416 214.958 117.972 215.086 117.572C215.214 117.172 215.398 116.832 215.638 116.552C215.886 116.264 216.182 116.044 216.526 115.892C216.878 115.74 217.27 115.664 217.702 115.664C218.134 115.664 218.522 115.74 218.866 115.892C219.218 116.044 219.514 116.264 219.754 116.552C220.002 116.832 220.19 117.172 220.318 117.572C220.446 117.972 220.51 118.416 220.51 118.904C220.51 119.4 220.446 119.848 220.318 120.248C220.19 120.64 220.002 120.98 219.754 121.268C219.514 121.548 219.218 121.764 218.866 121.916C218.522 122.068 218.134 122.144 217.702 122.144ZM217.702 121.316C218.238 121.316 218.67 121.156 218.998 120.836C219.326 120.516 219.49 120.02 219.49 119.348V118.46C219.49 117.788 219.326 117.292 218.998 116.972C218.67 116.652 218.238 116.492 217.702 116.492C217.166 116.492 216.734 116.652 216.406 116.972C216.078 117.292 215.914 117.788 215.914 118.46V119.348C215.914 120.02 216.078 120.516 216.406 120.836C216.734 121.156 217.166 121.316 217.702 121.316ZM222.473 122V115.808H223.433V116.816H223.481C223.545 116.664 223.625 116.52 223.721 116.384C223.817 116.24 223.933 116.116 224.069 116.012C224.213 115.908 224.381 115.824 224.573 115.76C224.765 115.696 224.989 115.664 225.245 115.664C225.893 115.664 226.413 115.872 226.805 116.288C227.197 116.696 227.393 117.276 227.393 118.028V122H226.433V118.196C226.433 117.628 226.309 117.208 226.061 116.936C225.813 116.656 225.449 116.516 224.969 116.516C224.777 116.516 224.589 116.54 224.405 116.588C224.221 116.636 224.057 116.708 223.913 116.804C223.769 116.9 223.653 117.024 223.565 117.176C223.477 117.328 223.433 117.504 223.433 117.704V122H222.473ZM232.2 122.144C231.752 122.144 231.348 122.068 230.988 121.916C230.636 121.764 230.332 121.548 230.076 121.268C229.828 120.98 229.636 120.64 229.5 120.248C229.364 119.848 229.296 119.404 229.296 118.916C229.296 118.42 229.364 117.972 229.5 117.572C229.644 117.172 229.84 116.832 230.088 116.552C230.336 116.264 230.632 116.044 230.976 115.892C231.328 115.74 231.716 115.664 232.14 115.664C232.556 115.664 232.932 115.74 233.268 115.892C233.612 116.044 233.904 116.256 234.144 116.528C234.384 116.792 234.568 117.108 234.696 117.476C234.824 117.844 234.888 118.248 234.888 118.688V119.144H230.304V119.432C230.304 119.704 230.348 119.956 230.436 120.188C230.524 120.42 230.648 120.62 230.808 120.788C230.976 120.956 231.176 121.088 231.408 121.184C231.648 121.272 231.912 121.316 232.2 121.316C232.616 121.316 232.976 121.22 233.28 121.028C233.584 120.836 233.816 120.572 233.976 120.236L234.684 120.716C234.5 121.132 234.192 121.476 233.76 121.748C233.336 122.012 232.816 122.144 232.2 122.144ZM232.14 116.456C231.876 116.456 231.632 116.504 231.408 116.6C231.184 116.696 230.988 116.828 230.82 116.996C230.66 117.164 230.532 117.364 230.436 117.596C230.348 117.82 230.304 118.068 230.304 118.34V118.424H233.856V118.292C233.856 118.02 233.812 117.772 233.724 117.548C233.644 117.324 233.528 117.132 233.376 116.972C233.232 116.804 233.052 116.676 232.836 116.588C232.628 116.5 232.396 116.456 232.14 116.456ZM239.096 119.204L238.76 116.06V113.624H239.816V116.06L239.48 119.204H239.096ZM239.288 122.108C238.96 122.108 238.728 122.04 238.592 121.904C238.464 121.768 238.4 121.596 238.4 121.388V121.172C238.4 120.964 238.464 120.792 238.592 120.656C238.728 120.52 238.96 120.452 239.288 120.452C239.616 120.452 239.844 120.52 239.972 120.656C240.108 120.792 240.176 120.964 240.176 121.172V121.388C240.176 121.596 240.108 121.768 239.972 121.904C239.844 122.04 239.616 122.108 239.288 122.108Z" fill="grey"/>
</svg>
