<?xml version="1.0" encoding="UTF-8" standalone="no"?>
<svg width="433" height="60" viewBox="0 0 433 60" fill="none" xmlns="http://www.w3.org/2000/svg">
<path d="M16.6316 4H4V56L16.6316 50.8V36.9333L31.3684 54.2667L44 49.0667V26.5333H16.6316V4Z" stroke="grey" stroke-width="7.5" stroke-linejoin="round"/>
<path d="M64.132 25.36H104.146V34.018H64.132V25.36ZM102.43 4.534H112.804V55H102.43V4.534ZM55.006 4.534H65.38V55H55.006V4.534ZM175.011 4.534L152.859 39.088V55H142.407V39.088L120.255 4.534H132.267L150.909 34.72H144.669L162.999 4.534H175.011ZM181.426 4.534H235.636V13.192L190.63 49.228L189.694 46.342H235.636V55H181.426V46.342L226.432 10.306L227.368 13.192H181.426V4.534ZM256.952 33.94V46.342H295.874V55H246.578V4.534H295.796V13.192H256.952V25.75H288.776V33.94H256.952ZM306.526 55V4.534H340.768C344.668 4.534 348.048 5.08 350.908 6.172C353.82 7.212 356.082 8.876 357.694 11.164C359.306 13.4 360.112 16.286 360.112 19.822C360.112 22.214 359.696 24.242 358.864 25.906C358.032 27.57 356.862 28.922 355.354 29.962C353.898 31.002 352.208 31.808 350.284 32.38C348.36 32.9 346.306 33.238 344.122 33.394L343.03 32.77C346.67 32.822 349.66 33.134 352 33.706C354.34 34.226 356.082 35.214 357.226 36.67C358.422 38.074 359.02 40.18 359.02 42.988V55H348.646V43.69C348.646 41.766 348.308 40.284 347.632 39.244C346.956 38.152 345.734 37.398 343.966 36.982C342.25 36.566 339.754 36.358 336.478 36.358H316.9V55H306.526ZM316.9 28.246H340.768C343.68 28.246 345.89 27.544 347.398 26.14C348.958 24.736 349.738 22.838 349.738 20.446C349.738 18.158 348.958 16.416 347.398 15.22C345.89 14.024 343.68 13.426 340.768 13.426H316.9V28.246ZM400.997 56.014C394.289 56.014 388.543 54.974 383.759 52.894C379.027 50.762 375.387 47.746 372.839 43.846C370.343 39.946 369.095 35.266 369.095 29.806C369.095 24.294 370.343 19.588 372.839 15.688C375.387 11.788 379.027 8.798 383.759 6.718C388.543 4.586 394.289 3.52 400.997 3.52C407.757 3.52 413.503 4.586 418.235 6.718C422.967 8.798 426.581 11.788 429.077 15.688C431.625 19.588 432.899 24.294 432.899 29.806C432.899 35.266 431.625 39.946 429.077 43.846C426.581 47.746 422.967 50.762 418.235 52.894C413.503 54.974 407.757 56.014 400.997 56.014ZM400.997 47.044C405.157 47.044 408.797 46.42 411.917 45.172C415.089 43.924 417.559 42.026 419.327 39.478C421.147 36.93 422.057 33.706 422.057 29.806C422.057 25.906 421.147 22.682 419.327 20.134C417.559 17.586 415.089 15.688 411.917 14.44C408.797 13.14 405.157 12.49 400.997 12.49C396.889 12.49 393.223 13.14 389.999 14.44C386.775 15.688 384.253 17.586 382.433 20.134C380.613 22.682 379.703 25.906 379.703 29.806C379.703 33.706 380.613 36.93 382.433 39.478C384.253 42.026 386.775 43.924 389.999 45.172C393.223 46.42 396.889 47.044 400.997 47.044Z" fill="grey"/>
</svg>